<?xml version="1.0" encoding="UTF-8" standalone="no"?>
<svg
   xmlns:dc="http://purl.org/dc/elements/1.1/"
   xmlns:cc="http://creativecommons.org/ns#"
   xmlns:rdf="http://www.w3.org/1999/02/22-rdf-syntax-ns#"
   xmlns:svg="http://www.w3.org/2000/svg"
   xmlns="http://www.w3.org/2000/svg"
   xmlns:xlink="http://www.w3.org/1999/xlink"
   xmlns:sodipodi="http://sodipodi.sourceforge.net/DTD/sodipodi-0.dtd"
   xmlns:inkscape="http://www.inkscape.org/namespaces/inkscape"
   width="2560"
   version="1.0"
   height="2048"
   viewBox="0 0 2047.9999 1638.3999"
   id="svg2"
   sodipodi:version="0.32"
   inkscape:version="0.46"
   sodipodi:docname=".......-5:4.svg"
   inkscape:output_extension="org.inkscape.output.svg.inkscape"
   inkscape:export-filename="/home/punx/Desktop/Neutronium-Grey-5:4.png"
   inkscape:export-xdpi="90"
   inkscape:export-ydpi="90">
  <metadata
     id="metadata97">
    <rdf:RDF>
      <cc:Work
         rdf:about="">
        <dc:format>image/svg+xml</dc:format>
        <dc:type
           rdf:resource="http://purl.org/dc/dcmitype/StillImage" />
        <dc:title />
      </cc:Work>
    </rdf:RDF>
  </metadata>
  <sodipodi:namedview
     pagecolor="#ffffff"
     bordercolor="#666666"
     borderopacity="1"
     objecttolerance="10"
     gridtolerance="10"
     guidetolerance="10"
     inkscape:pageopacity="0"
     inkscape:pageshadow="2"
     inkscape:window-width="1280"
     inkscape:window-height="756"
     id="namedview95"
     showgrid="false"
     inkscape:zoom="0.14849242"
     inkscape:cx="1804.7126"
     inkscape:cy="817.88884"
     inkscape:window-x="0"
     inkscape:window-y="0"
     inkscape:current-layer="svg2" />
  <defs
     id="defs4">
    <linearGradient
       id="linearGradient4651">
      <stop
         id="stop4653"
         offset="0"
         style="stop-color:#ffffff;stop-opacity:1;" />
      <stop
         id="stop4655"
         offset="1"
         style="stop-color:#000000;stop-opacity:1;" />
    </linearGradient>
    <pattern
       inkscape:collect="always"
       xlink:href="#pattern3033"
       id="pattern4630"
       patternTransform="matrix(0.79999996,0,0,0.79999996,909.28873,-193.84204)" />
    <pattern
       inkscape:collect="always"
       xlink:href="#pattern3033"
       id="pattern4599"
       patternTransform="matrix(1.3040165,0,0,1.3040165,895.04911,475.75824)" />
    <linearGradient
       id="linearGradient4581">
      <stop
         style="stop-color:#4b7188;stop-opacity:1"
         offset="0"
         id="stop4583" />
      <stop
         style="stop-color:#263340;stop-opacity:1"
         offset="1"
         id="stop4585" />
    </linearGradient>
    <pattern
       patternUnits="userSpaceOnUse"
       width="90.000567"
       height="90.000692"
       patternTransform="matrix(0.79999996,0,0,0.79999996,895.04911,475.75824)"
       id="pattern3033">
      <g
         id="g2990"
         transform="matrix(1.2500001,0,0,1.2500001,-373.6737,-298.26495)">
        <path
           style="fill:#eeeeee;fill-rule:nonzero;stroke:none"
           d="m 367.314,288.1044 c -0.7832,-1.0576 -1.3985,-2.3828 -1.5684,-3.6865 -0.0947,-0.7266 0.1397,-1.4229 0.4346,-2.0703 0.1943,-0.3584 0.4385,-0.6778 0.7344,-0.9551 0.6015,-0.7354 1.2275,-0.6084 1.8789,0.3818 -0.8496,0.541 0.6797,1.0303 1.2246,0.6836 0.9092,-0.5791 0.8437,-1.6387 -0.0547,-2.2676 -0.9942,-0.6943 -2.1777,-0.6963 -3.2481,-0.1445 -3.1523,1.625 -3.0507,4.8535 -1.5214,7.6201 1.2412,2.2461 3.3671,3.8692 5.7451,4.7549 l 0,-1.2344 c -1.4307,-0.7158 -2.6817,-1.8066 -3.625,-3.082 z"
           id="path13" />
        <path
           style="fill:#eeeeee;fill-rule:nonzero;stroke:none"
           d="m 369.332,304.1071 c 0.3789,0.6865 0.8798,1.2871 1.4619,1.7979 -0.2989,0.1904 -0.6787,0.4365 -0.8448,0.497 -0.4101,-0.1787 -1.955,-0.7793 -2.9677,-0.1503 -0.9912,0.6162 -1.5244,1.6181 -1.3535,2.4199 0.0166,0.0752 0.9306,0.1045 1.6308,-0.127 0.6904,-0.2275 1.168,-0.7158 1.207,-0.6504 0.0459,0.0743 -0.3554,0.7012 -0.9648,1.0606 -0.6104,0.3623 -1.4277,0.458 -1.3584,0.5078 0.6484,0.4775 1.7559,0.4316 2.7266,-0.1709 1.0175,-0.6318 1.1611,-2.293 1.1816,-2.7324 0.2002,-0.0811 0.5762,-0.2149 0.8887,-0.2832 l 0,-0.4639 0,-1.207 c -0.0528,-0.0664 -0.1104,-0.1299 -0.1612,-0.1983 -0.5341,-0.7217 -0.9541,-1.6259 -1.0703,-2.5156 -0.0644,-0.4961 0.0957,-0.9717 0.2969,-1.4131 0.1318,-0.2451 0.2988,-0.4629 0.502,-0.6523 0.1416,-0.1739 0.2871,-0.251 0.4326,-0.2832 l 0,-0.8467 c -0.1924,0.0449 -0.3838,0.1152 -0.5703,0.2109 -2.1504,1.1094 -2.0811,3.3125 -1.0371,5.2002 z"
           id="path15" />
        <path
           style="fill:#eeeeee;fill-rule:nonzero;stroke:none"
           d="m 367.7607,242.45043 c -0.6739,0.0264 -1.3575,-0.15821 -1.9375,-0.49219 -0.4121,-0.2334 -0.8037,-0.58203 -1.0508,-0.98731 -0.1367,-0.22656 -0.1582,-0.48925 -0.1533,-0.74707 0.0127,-0.14453 0.0459,-0.28613 0.1045,-0.41894 0.0937,-0.3291 0.3144,-0.37793 0.6728,-0.14453 -0.1992,0.29883 0.374,0.23926 0.5029,0.0498 0.2168,-0.32422 0.043,-0.66406 -0.3437,-0.74121 -0.4287,-0.084 -0.8174,0.084 -1.0918,0.4209 -0.8067,0.98926 -0.3057,2.03906 0.5967,2.73047 0.5088,0.3916 1.1211,0.60547 1.7529,0.69238 -0.749,0.32813 -1.4668,0.73926 -2.1328,1.28223 -2.0567,1.67676 -3.5518,4.13767 -3.7373,6.82814 -0.1953,2.8183 0.9394,5.4726 4.1084,5.6005 1.0752,0.043 2.0351,-0.4052 2.5771,-1.3427 0.4912,-0.8487 0.1446,-1.7325 -0.8105,-1.8584 -0.5723,-0.0743 -1.626,0.8984 -0.7344,1.0166 -0.1543,1.0478 -0.6143,1.3886 -1.3779,1.0195 -0.3448,-0.1152 -0.6641,-0.2813 -0.9571,-0.499 -0.4824,-0.4131 -0.9355,-0.8887 -1.1337,-1.5137 -0.3536,-1.1211 -0.3555,-2.4258 -0.1202,-3.5781 0.4434,-2.16503 1.6602,-4.2412 3.5293,-5.47558 -0.3545,0.375 -0.6504,0.79981 -0.8388,1.3086 -0.3741,1.00195 -0.3907,2.16211 0.0927,3.12991 0.5059,1.01847 1.4405,1.71187 2.5664,1.10927 0.3829,-0.205 0.6221,-0.5546 0.6211,-0.99117 -9e-4,-0.3945 -0.3017,-0.6308 -0.6611,-0.4795 -0.2109,0.0899 -0.3789,0.64157 -0.0478,0.503 0.1611,0.39647 0.0712,0.60447 -0.2706,0.63377 -0.1416,0.0302 -0.2871,0.0371 -0.4316,0.0205 -0.2529,-0.044 -0.5078,-0.1153 -0.7031,-0.293 -0.3506,-0.3193 -0.6182,-0.77047 -0.7686,-1.21967 -0.2968,-0.86721 -0.29,-1.87014 0.1436,-2.69339 0.4297,-0.81543 1.1992,-1.45214 2.0713,-1.92285 0.9853,-0.36718 2.0468,-0.58984 3.1416,-0.68847 l 0,-0.88965 c -1.0899,0.10254 -2.1582,0.2959 -3.1787,0.63086 z"
           id="path17" />
        <path
           style="fill:#eeeeee;fill-rule:nonzero;stroke:none"
           d="m 369.1531,259.4861 c -0.3623,0.2774 -0.3691,0.7198 0.0205,0.9444 0.2325,0.1338 0.8604,-0.0977 0.4961,-0.3067 0.253,-0.4248 0.5118,-0.4892 0.7745,-0.1943 0.1289,0.1103 0.2363,0.2383 0.3232,0.3848 0.0693,0.1367 0.1309,0.2802 0.1719,0.4277 l 0,-1.1152 c -0.126,-0.0967 -0.2705,-0.1846 -0.4365,-0.2608 -0.4551,-0.209 -0.9493,-0.1875 -1.3497,0.1201 z"
           id="path19" />
        <path
           style="fill:#eeeeee;fill-rule:nonzero;stroke:none"
           d="m 367.814,264.4821 c -0.8653,0.1426 -1.7783,-0.0127 -2.6573,-0.3359 -0.4335,-0.2168 -0.8496,-0.4444 -1.2373,-0.6777 -5.5302,-3.3301 -8.7968,-9.376 -8.5625,-15.79596 2.0879,-2.69726 3.6358,-5.7832 4.5733,-9.06054 l -1.7266,0 c -0.7637,2.58691 -1.9004,5.06347 -3.415,7.31445 0.8672,-2.27734 1.2295,-4.76465 0.9844,-7.31445 l -0.6534,0 c 0.1026,1.625 -0.0966,3.29297 -0.4414,4.7041 -0.5996,2.4541 -1.7099,4.69629 -3.2168,6.5928 -0.0781,0.0771 -0.1504,0.1592 -0.2295,0.2353 -1.3593,1.292 -3.0312,2.585 -4.8554,3.6368 -1.2852,0.5976 -2.6553,0.9482 -3.9668,0.791 -1.4561,-0.1739 -2.7608,-1.0655 -3.6192,-2.2237 -0.4433,-0.5986 -0.791,-1.3486 -0.8877,-2.0869 -0.0537,-0.4121 0.0791,-0.8066 0.2461,-1.1728 0.1104,-0.2032 0.2491,-0.3838 0.416,-0.54101 0.3409,-0.4161 0.6954,-0.3438 1.0635,0.21681 -0.4804,0.3056 0.3858,0.583 0.6934,0.3867 0.5146,-0.3282 0.4785,-0.92781 -0.0313,-1.28422 -0.5625,-0.39258 -1.2334,-0.39356 -1.8388,-0.082 -1.7842,0.92095 -1.7276,2.74905 -0.8614,4.31445 0.8252,1.4951 2.3418,2.5088 3.9707,2.9219 0.6397,0.1621 1.2715,0.2021 1.8956,0.1562 -1.8936,0.7149 -3.8584,1.0811 -5.751,0.8545 -2.5713,-0.3076 -4.876,-1.8808 -6.3916,-3.9277 -0.7832,-1.0576 -1.3985,-2.3828 -1.5684,-3.68651 -0.0947,-0.72659 0.1397,-1.42288 0.4346,-2.07034 0.1943,-0.3584 0.4385,-0.67774 0.7344,-0.95508 0.6015,-0.73535 1.2275,-0.6084 1.8789,0.38184 -0.8496,0.54101 0.6797,1.03027 1.2246,0.68359 0.9092,-0.5791 0.8437,-1.63867 -0.0547,-2.26758 -0.9942,-0.69433 -2.1777,-0.69629 -3.2481,-0.14453 -3.1523,1.625 -3.0507,4.85351 -1.5214,7.62011 1.458,2.6397 4.1357,4.4297 7.0127,5.1592 2.5468,0.6465 5.0322,0.2041 7.4248,-0.6504 1.9375,-0.5566 3.7236,-1.4473 5.2998,-2.6025 1.624,-1.045 3.1054,-2.2559 4.4287,-3.6065 1.539,6.167 -0.3526,12.6963 -4.9883,17.1035 -2.3106,2.1963 -5.9326,4.4131 -9.2315,4.0186 -1.7548,-0.21 -3.3281,-1.2842 -4.3623,-2.6807 -0.5341,-0.7217 -0.9541,-1.6259 -1.0703,-2.5156 -0.0644,-0.4961 0.0957,-0.9717 0.2969,-1.4131 0.1318,-0.2451 0.2988,-0.4629 0.502,-0.6523 0.4091,-0.502 0.8369,-0.4151 1.2812,0.2607 -0.5801,0.3692 0.4649,0.7031 0.8359,0.4668 0.6202,-0.3955 0.5752,-1.1182 -0.038,-1.5478 -0.6768,-0.4737 -1.4864,-0.4746 -2.2168,-0.0987 -2.1504,1.1094 -2.0811,3.3125 -1.0371,5.2002 0.3789,0.6865 0.8798,1.2871 1.4619,1.7979 -0.2989,0.1904 -0.6787,0.4365 -0.8448,0.497 -0.4101,-0.1787 -1.955,-0.7793 -2.9677,-0.1503 -0.9912,0.6162 -1.5244,1.6181 -1.3535,2.4199 0.0166,0.0752 0.9306,0.1045 1.6308,-0.127 0.6904,-0.2275 1.168,-0.7158 1.207,-0.6504 0.0459,0.0743 -0.3554,0.7012 -0.9648,1.0606 -0.6104,0.3623 -1.4277,0.458 -1.3584,0.5078 0.6484,0.4775 1.7559,0.4316 2.7266,-0.1709 1.0175,-0.6318 1.1611,-2.293 1.1816,-2.7324 0.2676,-0.1084 0.8438,-0.3106 1.165,-0.3184 0.8614,0.6504 1.8604,1.1231 2.9024,1.3877 1.6494,0.418 3.2598,0.168 4.8164,-0.3564 -0.165,0.208 -0.3145,0.4267 -0.4414,0.6621 -0.7305,1.3457 -0.7705,2.9121 0.7637,3.6845 0.5234,0.2637 1.0937,0.2569 1.5742,-0.081 0.4326,-0.3067 0.4619,-0.8203 0.0166,-1.1006 -0.2617,-0.1621 -1.001,0.0791 -0.5908,0.3369 -0.3125,0.4844 -0.6114,0.5449 -0.9082,0.1924 -0.1426,-0.1309 -0.2637,-0.2871 -0.3575,-0.459 -0.1474,-0.3125 -0.2646,-0.6474 -0.2216,-1.0019 0.081,-0.6338 0.371,-1.2784 0.75,-1.7911 0.3535,-0.4873 0.8125,-0.8994 1.3193,-1.2334 6.5029,-3.0839 10.3389,-9.8193 10.1728,-16.7773 1.9121,6.2139 7.0625,11.2373 13.7686,12.4932 0.7178,0.1347 1.4404,0.2285 2.1592,0.2607 l 0,-0.6816 c -1.2959,-0.0528 -2.626,-0.3614 -3.8819,-0.8145 0.4629,0.0137 0.9287,-0.0361 1.3955,-0.1767 0.9873,-0.2979 1.8858,-0.9151 2.4864,-1.7608 l 0,-1.5713 c -0.0889,0.4532 -0.2842,0.9033 -0.5371,1.2783 -0.5938,0.879 -1.5235,1.5762 -2.5879,1.751 z"
           id="path21" />
        <path
           style="fill:#eeeeee;fill-rule:nonzero;stroke:none"
           d="m 352.2629,246.99066 c 0.1455,0.0908 0.211,-1.18653 -0.1103,-2.52442 -0.2969,-1.24023 -1.0508,-2.10351 -1.0508,-2.10351 0,0 1.2597,0.37793 1.5967,1.48339 0.4043,1.3252 0.2129,3.34082 0.3632,2.75782 0.2979,-1.16407 0.5909,-2.53223 0.5166,-3.16992 -0.1435,-1.22657 -3.2841,-3.20313 -3.9687,-3.2461 -0.6856,-0.0449 -0.2139,1.87988 -0.0625,3.16113 0.1504,1.28223 2.4355,3.4668 2.7158,3.64161 z"
           id="path23" />
        <path
           style="fill:#eeeeee;fill-rule:nonzero;stroke:none"
           d="m 353.003,264.25 c -0.5264,1.0801 -1.0909,2.3604 -1.1456,3 -0.1074,1.2305 2.5694,3.8008 3.2315,3.9805 0.6621,0.1826 0.5879,-1.7979 0.6992,-3.083 0.1113,-1.2862 -1.6865,-3.8877 -1.9248,-4.1153 -0.124,-0.1181 -0.4453,1.1201 -0.4023,2.4951 0.042,1.2745 0.6054,2.2725 0.6054,2.2725 0,0 -1.1582,-0.625 -1.2636,-1.7754 -0.129,-1.3799 0.4648,-3.3154 0.2002,-2.7744 z"
           id="path25" />
        <path
           style="fill:#eeeeee;fill-rule:nonzero;stroke:none"
           d="m 357.3269,246.45951 c -0.3662,0.31348 -0.9024,1.2168 -1.3311,2.01074 -0.2148,0.3975 0.707,-0.81152 1.6055,-1.33496 0.749,-0.4375 1.6367,-0.004 1.6367,-0.004 0,0 -0.8564,0.0918 -1.6523,0.62304 -0.8584,0.57422 -1.4737,1.31152 -1.3467,1.33492 0.2431,0.0469 2.6162,0.008 3.3525,-0.622 0.7363,-0.62991 1.9776,-1.44924 1.5772,-1.77444 -0.3994,-0.32519 -3.1377,-0.83691 -3.8418,-0.2334 z"
           id="path27" />
        <path
           style="fill:#eeeeee;fill-rule:nonzero;stroke:none"
           d="m 349.0813,250.15946 c 1.5488,-0.3135 2.4541,-2.29787 2.4541,-2.29787 0,0 -1.6074,-1.47559 -3.1553,-1.16211 -1.5498,0.31348 -2.4561,2.29878 -2.4561,2.29878 0,0 1.6065,1.4756 3.1573,1.1612 z"
           id="path29" />
        <path
           style="fill:#eeeeee;fill-rule:nonzero;stroke:none"
           d="m 346.9729,246.11663 c 0.8945,0.41211 2.2383,-0.59668 2.2383,-0.59668 0,0 -0.1075,-1.67871 -1.003,-2.08984 -0.8965,-0.41211 -2.2392,0.59766 -2.2392,0.59766 0,0 0.1074,1.67675 1.0039,2.08886 z"
           id="path31" />
        <path
           style="fill:#eeeeee;fill-rule:nonzero;stroke:none"
           d="m 356.3306,250.0093 c 0,0 -0.4326,1.624 0.2861,2.2998 0.7158,0.6758 2.3115,0.1474 2.3115,0.1474 0,0 0.4326,-1.6259 -0.2841,-2.3007 -0.7188,-0.6758 -2.3135,-0.1465 -2.3135,-0.1465 z"
           id="path33" />
        <path
           style="fill:#eeeeee;fill-rule:nonzero;stroke:none"
           d="m 356.9899,262.1125 c -0.4952,-0.1846 -1.5586,-2.8525 -1.8565,-2.3242 -0.3799,0.6738 -0.9824,2.458 -0.6787,3.2148 0.543,1.3526 3.0088,1.6338 3.0088,1.6338 0,0 1.5889,-1.9082 1.0459,-3.2607 -0.2481,-0.6172 -0.8985,-1.0108 -1.5303,-1.2569 -0.7519,-0.292 0.5049,2.1768 0.0108,1.9932 z"
           id="path35" />
        <path
           style="fill:#eeeeee;fill-rule:nonzero;stroke:none"
           d="m 351.486,252.7471 c -0.6484,0.2607 -1.3867,0.6953 -1.8398,1.4043 -0.9482,1.4824 -0.2812,3.6074 -0.2812,3.6074 0,0 2.2089,-0.2842 3.1582,-1.7656 0.4755,-0.7452 0.5459,-1.6485 0.497,-2.3643 -0.0488,-0.7158 -1.8388,1.3193 -2.3467,1.3916 -0.5068,0.0723 1.5254,-2.5605 0.8125,-2.2734 z"
           id="path37" />
        <path
           style="fill:#eeeeee;fill-rule:nonzero;stroke:none"
           d="m 307.25628,239.61883 c 0.52343,0.26367 1.09375,0.25684 1.57424,-0.0811 0.3554,-0.25196 0.4209,-0.63867 0.1904,-0.92578 l -0.8789,0 c -0.003,0.0508 0.0234,0.10547 0.11426,0.16211 -0.3125,0.48437 -0.61133,0.54492 -0.90821,0.19238 -0.11035,-0.10058 -0.19433,-0.22754 -0.27539,-0.35449 l -0.84668,0 c 0.19434,0.39746 0.51758,0.74902 1.03028,1.00683 z"
           id="path39" />
        <path
           style="fill:#eeeeee;fill-rule:nonzero;stroke:none"
           d="m 369.8134,272.5304 c 0.1377,-1.2735 -0.6865,-2.4463 -1.8818,-3.2696 -1.5713,-1.083 -3.5928,-1.3398 -5.4258,-0.9394 -1.9688,0.4277 -3.4405,1.7305 -4.708,3.2226 -3.3213,3.9034 -4.458,8.9932 -3.5762,13.7579 -0.8496,-0.9161 -1.7695,-1.7598 -2.749,-2.5323 -0.0166,-0.0449 -0.042,-0.0957 -0.0899,-0.1611 -0.2509,-0.3437 -0.4463,-1.3145 -0.5175,-1.751 0.5175,-0.3447 2.4296,-1.7383 2.4511,-3.4355 0.0205,-1.6201 -0.7383,-2.9961 -1.792,-3.4356 -0.1113,-0.0468 0.3721,1.0157 0.3809,2.0205 0.009,1.0049 -0.457,1.9512 -0.5791,1.9502 -0.1094,0 0.1318,-0.9375 -0.0977,-1.9414 -0.2334,-1.0195 -0.9375,-2.1074 -1.041,-2.0722 -1.0986,0.3798 -1.9238,1.7617 -1.9443,3.415 -0.0215,1.6914 1.8389,3.125 2.3564,3.4922 0.045,0.2236 0.0323,0.7734 0.0196,1.249 -4.0323,-2.8965 -8.9717,-4.5469 -14.2295,-4.375 -1.586,0.0518 -3.1573,0.2422 -4.6289,0.7256 -0.6739,0.0264 -1.3575,-0.1582 -1.9375,-0.4922 -0.4121,-0.2334 -0.8037,-0.582 -1.0508,-0.9873 -0.1367,-0.2266 -0.1582,-0.4893 -0.1533,-0.7471 0.0127,-0.1445 0.0459,-0.2861 0.1045,-0.4189 0.0937,-0.3291 0.3144,-0.3779 0.6728,-0.1445 -0.1992,0.2988 0.374,0.2392 0.5029,0.0498 0.2168,-0.3243 0.043,-0.6641 -0.3437,-0.7412 -0.4287,-0.084 -0.8174,0.0839 -1.0918,0.4209 -0.8067,0.9892 -0.3057,2.039 0.5967,2.7304 0.5088,0.3916 1.1211,0.6055 1.7529,0.6924 -0.749,0.3281 -1.4668,0.7393 -2.1328,1.2822 -2.0567,1.6768 -3.5518,4.1377 -3.7373,6.8282 -0.1953,2.8183 0.9394,5.4726 4.1084,5.6005 1.0752,0.043 2.0351,-0.4052 2.5771,-1.3427 0.4912,-0.8487 0.1446,-1.7325 -0.8105,-1.8584 -0.5723,-0.0743 -1.626,0.8984 -0.7344,1.0166 -0.1543,1.0478 -0.6143,1.3886 -1.3779,1.0195 -0.3448,-0.1152 -0.6641,-0.2813 -0.9571,-0.499 -0.4824,-0.4131 -0.9355,-0.8887 -1.1337,-1.5137 -0.3536,-1.1211 -0.3555,-2.4258 -0.1202,-3.5781 0.4434,-2.1651 1.6602,-4.2412 3.5293,-5.4756 -0.3545,0.375 -0.6504,0.7998 -0.8388,1.3086 -0.3741,1.0019 -0.3907,2.1621 0.0927,3.1299 0.5059,1.0185 1.4405,1.7119 2.5664,1.1093 0.3829,-0.205 0.6221,-0.5546 0.6211,-0.9912 -9e-4,-0.3945 -0.3017,-0.6308 -0.6611,-0.4795 -0.2109,0.0899 -0.3789,0.6416 -0.0478,0.503 0.1611,0.3965 0.0712,0.6045 -0.2706,0.6338 -0.1416,0.0302 -0.2871,0.0371 -0.4316,0.0205 -0.2529,-0.044 -0.5078,-0.1153 -0.7031,-0.293 -0.3506,-0.3193 -0.6182,-0.7705 -0.7686,-1.2197 -0.2968,-0.8672 -0.29,-1.8701 0.1436,-2.6934 0.4297,-0.8154 1.1992,-1.4521 2.0713,-1.9228 2.7705,-1.0323 6.1504,-0.8897 9.125,-0.2364 -0.1875,0.2061 -0.4014,0.4092 -0.5332,0.5254 -0.4073,-0.1806 -1.9785,-0.8086 -3.0137,-0.1748 -0.9893,0.6055 -1.5332,1.5879 -1.3975,2.3936 0.0137,0.0859 0.4737,-0.6114 1.0782,-1 0.6045,-0.3877 1.3545,-0.4658 1.4004,-0.3916 0.0419,0.0664 -0.6172,0.2763 -1.1377,0.7978 -0.5284,0.5303 -0.918,1.3711 -0.8584,1.4199 0.6494,0.5206 1.7998,0.4942 2.8095,-0.123 1.0313,-0.6309 1.1905,-2.3047 1.2158,-2.7578 0.1397,-0.1328 0.5879,-0.3916 0.9034,-0.5791 0.6924,0.167 1.3623,0.3574 1.9892,0.5683 2.9991,1.0079 5.6758,2.5909 7.9463,4.6006 -0.126,-0.0576 -0.2392,-0.1299 -0.3672,-0.1845 -1.6133,-0.6885 -3.3115,-1.1446 -5.0595,-0.7012 -1.6289,0.4131 -3.1455,1.4267 -3.9707,2.9219 -0.8663,1.5654 -0.9229,3.3935 0.8613,4.3144 0.6055,0.3115 1.2763,0.3106 1.8389,-0.082 0.5087,-0.3565 0.5458,-0.9561 0.0312,-1.2842 -0.3076,-0.1963 -1.1738,0.0811 -0.6934,0.3867 -0.3681,0.5606 -0.7226,0.6328 -1.0634,0.2168 -0.167,-0.1572 -0.3057,-0.3379 -0.4161,-0.541 -0.1669,-0.3662 -0.2998,-0.7607 -0.246,-1.1728 0.0966,-0.7383 0.4443,-1.4883 0.8877,-2.087 0.8583,-1.1582 2.163,-2.0498 3.6191,-2.2236 2.2266,-0.2666 4.6269,0.9043 6.4775,2.332 2.0762,2.3184 3.6817,5.0498 4.7149,8.0538 -0.4649,-0.0977 -1.0078,-0.2139 -1.2158,-0.3096 -0.2344,-0.5821 -1.1895,-2.7031 -2.8223,-3.0703 -1.5977,-0.3584 -3.1172,0.1201 -3.7354,1.0908 -0.0566,0.0918 0.8291,1.0195 1.7578,1.4775 0.9141,0.4512 1.8721,0.4336 1.8467,0.5381 -0.0263,0.1182 -1.0439,0.3496 -2.0097,0.1123 -0.9659,-0.2392 -1.8789,-0.9482 -1.8584,-0.8301 0.1806,1.1163 1.333,2.1612 2.8984,2.5127 1.6387,0.3692 3.418,-1.1543 3.8691,-1.5732 0.3975,0.165 1.2647,0.5654 1.5518,0.8828 0.0566,0.1885 0.1016,0.3818 0.1543,0.5713 0.125,0.4512 0.2393,0.9053 0.3389,1.3652 0.042,0.1983 0.0791,0.3975 0.1172,0.5967 0.833,4.2832 0.5957,8.7139 -0.628,12.8584 l 1.7266,0 c 0.1699,-0.5957 0.3242,-1.1973 0.4531,-1.8047 0.0947,-0.2148 0.1846,-0.4736 0.249,-0.8291 0.7022,-3.874 2.795,-7.4394 5.9981,-9.9658 1.1933,-0.9424 2.709,-1.8535 4.3086,-2.4346 l 0,-0.6875 c -0.0528,0.0166 -0.1055,0.0313 -0.1582,0.0479 -4.4756,1.4385 -7.9151,4.6963 -9.8125,8.7119 0.0371,-2.2041 -0.1983,-4.4297 -0.7237,-6.627 0.2325,-0.2011 0.4815,-0.4101 0.6075,-0.4775 0.4316,0.1182 2.0459,0.4922 2.9589,-0.2754 0.8936,-0.751 1.2774,-1.8193 0.9942,-2.5879 -0.0274,-0.0722 -0.9365,0.0293 -1.5957,0.3584 -0.6514,0.3233 -1.0537,0.875 -1.1026,0.8154 -0.0556,-0.0664 0.252,-0.7441 0.8038,-1.1875 0.5527,-0.4453 1.3476,-0.6572 1.2724,-0.6962 -0.7109,-0.3799 -1.8008,-0.1768 -2.6758,0.5586 -0.916,0.7705 -0.8203,2.4355 -0.7773,2.873 -0.1309,0.0752 -0.3438,0.1904 -0.5606,0.292 -0.0459,-0.1797 -0.0996,-0.3574 -0.1494,-0.5361 -0.7744,-3.3331 -2.2636,-6.3936 -4.2715,-9.0352 -1.1445,-3.4463 -1.1464,-7.2383 0.1397,-10.7812 1.0059,-2.7774 3.0928,-6.1143 5.9922,-7.1524 1.542,-0.5517 3.291,-0.3115 4.7265,0.4199 0.7413,0.377 1.4629,0.9522 1.9278,1.6426 0.2588,0.3848 0.3222,0.8447 0.3388,1.2949 -0.009,0.2569 -0.0566,0.5069 -0.1464,0.7491 -0.1329,0.5849 -0.5225,0.6894 -1.1709,0.3125 0.3281,-0.545 -0.6748,-0.3907 -0.8868,-0.0411 -0.3505,0.584 -0.0136,1.1661 0.6729,1.2666 0.71,0.1075 1.3379,-0.1904 1.7852,-0.7334 -0.2051,1.0391 -0.6329,2.0616 -1.3838,2.7002 -0.6221,0.5284 -1.4805,0.7237 -2.2784,0.6358 -0.413,-0.0449 -0.8505,-0.1865 -1.1894,-0.4268 -0.1895,-0.1338 -0.2988,-0.3379 -0.3858,-0.5449 -0.0419,-0.1211 -0.0634,-0.2461 -0.0644,-0.375 -0.041,-0.2969 0.1221,-0.4141 0.4912,-0.3516 -0.0566,0.3116 0.3838,0.0616 0.4209,-0.1367 0.0605,-0.3349 -0.1982,-0.5478 -0.5352,-0.4736 -0.375,0.081 -0.6289,0.3545 -0.7304,0.7197 -0.3008,1.0781 0.4677,1.7471 1.4365,1.9863 0.9229,0.2286 1.9111,-0.008 2.6973,-0.5166 0.8437,-0.5449 1.2998,-1.413 1.6298,-2.332 0.129,-0.3623 0.2247,-0.7266 0.3008,-1.0937 0.0899,0.373 0.1895,0.7461 0.3213,1.1152 0.2656,0.7412 0.6123,1.4433 1.0811,2.0527 l 0,-0.7129 c -0.6826,-1.0966 -1.0166,-2.5019 -1.1114,-3.792 -9e-4,-0.0117 -0.0127,-0.0146 -0.0146,-0.0263 z"
           id="path41" />
        <path
           style="fill:#eeeeee;fill-rule:nonzero;stroke:none"
           d="m 354.9734,300.3107 c 0.2128,0.2647 0.5439,0.2071 0.708,-0.0966 0.1836,-0.3369 0.1425,-0.7071 -0.0684,-1.0225 -0.6191,-0.9326 -1.6279,-0.7871 -2.4424,-0.21 -0.7754,0.5489 -1.2431,1.4522 -1.3701,2.3799 -0.008,0.0508 10e-4,0.0996 -0.004,0.1494 -0.3281,-0.7304 -0.7695,-1.3925 -1.4668,-1.8418 -0.8262,-0.5341 -1.8662,-0.7802 -2.834,-0.538 -1.0176,0.2519 -1.8252,0.955 -1.5068,2.0879 0.1074,0.3847 0.374,0.6699 0.7676,0.7558 0.3544,0.0772 0.6259,-0.1465 0.5625,-0.499 -0.0391,-0.209 -0.502,-0.4697 -0.4434,-0.1436 -0.3877,0.0655 -0.5576,-0.0566 -0.5166,-0.3691 0.001,-0.1348 0.0234,-0.2656 0.0684,-0.3926 0.0898,-0.2187 0.205,-0.4336 0.4033,-0.5742 0.3574,-0.252 0.8164,-0.4023 1.249,-0.4492 0.8389,-0.0938 1.7402,0.1113 2.3955,0.665 0.9531,0.8076 1.4092,2.2012 1.5596,3.5059 -1.041,-0.6221 -2.2295,-0.9922 -3.4541,-0.9727 -1.999,0.0322 -3.7998,0.9893 -3.7012,3.2315 0.0322,0.7607 0.4063,1.4121 1.1006,1.7363 0.626,0.2949 1.2295,-10e-4 1.2627,-0.6816 0.0166,-0.4092 -0.7324,-1.0928 -0.7608,-0.4581 -0.75,-0.0459 -1.0166,-0.3496 -0.8027,-0.9101 0.0606,-0.25 0.1592,-0.4834 0.294,-0.7031 0.2636,-0.3662 0.5712,-0.7139 1,-0.8907 0.7695,-0.3173 1.6875,-0.3955 2.5156,-0.2978 1.5996,0.1865 3.1885,0.956 4.166,2.2715 0.9336,1.2558 1.3603,2.8896 1.4648,4.5693 l 0.6534,0 c -0.0108,-0.1162 -0.01,-0.2314 -0.0235,-0.3486 -0.2295,-1.9453 -0.7314,-3.8448 -2.1328,-5.293 -0.1172,-0.1211 -0.2432,-0.2344 -0.3691,-0.3486 -0.6553,-0.836 -1.1543,-1.8301 -1.1465,-2.8194 0.006,-0.8164 0.4189,-1.5937 1.0078,-2.1416 0.3018,-0.2822 0.6963,-0.5205 1.0996,-0.6211 0.2236,-0.0556 0.4512,-0.006 0.6641,0.0645 0.1191,0.0469 0.2285,0.1123 0.3261,0.1953 0.251,0.1641 0.2334,0.3633 -0.0546,0.6016 -0.1993,-0.2451 -0.2979,0.2509 -0.1709,0.4091 z"
           id="path43" />
        <path
           style="fill:#eeeeee;fill-rule:nonzero;stroke:none"
           d="m 359.6939,291.1147 c 0.2373,-0.2285 2.0253,-2.8359 1.9091,-4.122 -0.1152,-1.2842 -0.0488,-3.2657 -0.7099,-3.0801 -0.6621,0.1826 -3.3291,2.7627 -3.2168,3.9922 0.0576,0.6396 0.626,1.9179 1.1562,2.9961 0.2666,0.54 -0.334,-1.3936 -0.2109,-2.7735 0.1016,-1.1513 1.2578,-1.7802 1.2578,-1.7802 0,0 -0.5605,1 -0.5967,2.2744 -0.039,1.3759 0.2871,2.6123 0.4112,2.4931 z"
           id="path45" />
        <path
           style="fill:#eeeeee;fill-rule:nonzero;stroke:none"
           d="m 357.6328,285.8485 c 0.3799,-0.4043 0.7657,-0.9648 0.8535,-1.6259 0.1875,-1.3829 -1.0039,-2.6866 -1.0039,-2.6866 0,0 -1.4921,0.9434 -1.6796,2.3252 -0.0918,0.6944 0.1582,1.3672 0.4335,1.8662 0.2745,0.4981 0.8799,-1.5634 1.2208,-1.7851 0.3408,-0.2207 -0.2393,2.3506 0.1757,1.9062 z"
           id="path47" />
        <path
           style="fill:#eeeeee;fill-rule:nonzero;stroke:none"
           d="m 299.78764,300.0864 c -0.58008,0.3692 0.46484,0.7031 0.83593,0.4668 0.62012,-0.3955 0.5752,-1.1182 -0.0381,-1.5478 -0.50488,-0.3526 -1.08301,-0.4424 -1.64649,-0.3096 l 0,0.8467 c 0.27637,-0.0616 0.5586,0.1025 0.84864,0.5439 z"
           id="path49" />
        <path
           style="fill:#eeeeee;fill-rule:nonzero;stroke:none"
           d="m 336.0106,242.08856 c 1.038,0.67187 2.3427,0.9834 3.5625,0.68164 1.2773,-0.31543 2.2929,-1.19922 1.8964,-2.62207 -0.1337,-0.48242 -0.4707,-0.84473 -0.9638,-0.95117 -0.4453,-0.0977 -0.7881,0.18359 -0.7071,0.62597 0.0479,0.2627 0.6299,0.5918 0.5547,0.18067 0.4873,-0.083 0.7032,0.0723 0.6495,0.46387 -0.002,0.16992 -0.0293,0.33496 -0.085,0.49511 -0.1143,0.27344 -0.2608,0.54297 -0.5098,0.71973 -0.4472,0.31738 -1.0263,0.50488 -1.5703,0.56445 -1.0537,0.11621 -2.1865,-0.14258 -3.0098,-0.84082 -0.8046,-0.68359 -1.3261,-1.70117 -1.6406,-2.79394 l -0.4433,0 c 0.042,0.13184 0.0673,0.26562 0.1142,0.39648 0.4365,1.21387 1.0381,2.35938 2.1524,3.08008 z"
           id="path51" />
        <path
           style="fill:#eeeeee;fill-rule:nonzero;stroke:none"
           d="m 328.9093,241.83563 c 0.9229,0.22851 1.9111,-0.008 2.6973,-0.5166 0.8437,-0.54492 1.2998,-1.41309 1.6298,-2.33203 0.045,-0.12402 0.0704,-0.25 0.1084,-0.375 l -0.3369,0 c -0.2353,0.85547 -0.6357,1.65722 -1.2636,2.19043 -0.6221,0.52832 -1.4805,0.72363 -2.2784,0.63574 -0.413,-0.0449 -0.8505,-0.18653 -1.1894,-0.42676 -0.1895,-0.13379 -0.2988,-0.33789 -0.3858,-0.54492 -0.0419,-0.1211 -0.0634,-0.2461 -0.0644,-0.375 -0.041,-0.29688 0.1221,-0.41406 0.4912,-0.35156 -0.0566,0.31152 0.3838,0.0615 0.4209,-0.13672 0.0605,-0.33496 -0.1982,-0.54785 -0.5352,-0.47364 -0.375,0.0811 -0.6289,0.3545 -0.7304,0.71973 -0.3008,1.07813 0.4677,1.74707 1.4365,1.98633 z"
           id="path53" />
        <path
           style="fill:#eeeeee;fill-rule:nonzero;stroke:none"
           d="m 308.142,310.6118 0.8789,0 c -0.0488,-0.0615 -0.0947,-0.125 -0.1738,-0.1748 -0.2041,-0.127 -0.69241,-0.007 -0.7051,0.1748 z"
           id="path55" />
        <path
           style="fill:#eeeeee;fill-rule:nonzero;stroke:none"
           d="m 340.6899,292.3767 c -0.7949,-0.209 -1.5839,-0.0332 -2.1425,0.5761 -0.5069,0.5518 -0.3936,1.2666 0.2968,1.5186 0.4151,0.1504 1.3614,-0.4014 0.7159,-0.6358 0.2881,-0.7558 0.6865,-0.9336 1.1953,-0.5322 0.2383,0.1416 0.4482,0.3184 0.6308,0.5283 0.2911,0.3877 0.5498,0.8174 0.5948,1.3155 0.0791,0.8945 -0.1348,1.8672 -0.501,2.6875 -0.707,1.5879 -2.0108,2.9765 -3.6787,3.5605 -2.0733,0.7266 -4.5283,0.3662 -6.7442,-0.4336 0.4629,0.0137 0.9287,-0.0361 1.3955,-0.1767 1.1836,-0.3565 2.2657,-1.1514 2.8233,-2.2764 0.5849,-1.1787 0.5683,-2.5244 -0.7734,-3.1426 -0.4551,-0.209 -0.9493,-0.1875 -1.3497,0.1201 -0.3623,0.2774 -0.3691,0.7198 0.0205,0.9444 0.2325,0.1338 0.8604,-0.0977 0.4961,-0.3067 0.253,-0.4248 0.5118,-0.4892 0.7745,-0.1943 0.1289,0.1103 0.2363,0.2383 0.3232,0.3848 0.1348,0.2636 0.2461,0.5488 0.2187,0.8535 -0.0468,0.5459 -0.2783,1.1093 -0.5839,1.5634 -0.5938,0.879 -1.5235,1.5762 -2.5879,1.751 -0.8653,0.1426 -1.7783,-0.0127 -2.6573,-0.3359 -0.4335,-0.2168 -0.8496,-0.4444 -1.2373,-0.6777 -5.5302,-3.3301 -8.7968,-9.376 -8.5625,-15.7959 2.4668,-3.1875 4.1856,-6.917 5.0264,-10.8653 0.0947,-0.2148 0.1846,-0.4736 0.249,-0.8291 0.7022,-3.874 2.795,-7.4394 5.9981,-9.9658 2.3183,-1.8311 5.8496,-3.5684 8.8603,-2.9229 1.6016,0.3428 2.9619,1.4678 3.7969,2.8467 0.4316,0.711 0.7422,1.5791 0.7734,2.4112 0.0166,0.4638 -0.1709,0.8877 -0.3945,1.2793 -0.1426,0.2138 -0.3144,0.4003 -0.5185,0.5595 -0.4209,0.4278 -0.8077,0.3106 -1.1592,-0.3506 0.5644,-0.291 -0.3692,-0.6884 -0.7324,-0.5019 -0.6055,0.3115 -0.626,0.9834 -0.0957,1.4307 0.583,0.4951 1.3291,0.5654 2.0361,0.2802 2.0801,-0.8418 2.2031,-2.8789 1.4014,-4.7099 -0.7657,-1.7481 -2.3477,-3.0303 -4.1172,-3.6563 -1.8994,-0.6728 -3.836,-0.3408 -5.7002,0.2598 -4.4756,1.4385 -7.9151,4.6963 -9.8125,8.7119 0.0371,-2.2041 -0.1983,-4.4297 -0.7237,-6.627 0.2325,-0.2011 0.4815,-0.4101 0.6075,-0.4775 0.4316,0.1182 2.0459,0.4922 2.9589,-0.2754 0.8936,-0.751 1.2774,-1.8193 0.9942,-2.5879 -0.0274,-0.0722 -0.9365,0.0293 -1.5957,0.3584 -0.6514,0.3233 -1.0537,0.875 -1.1026,0.8154 -0.0556,-0.0664 0.252,-0.7441 0.8038,-1.1875 0.5527,-0.4453 1.3476,-0.6572 1.2724,-0.6962 -0.7109,-0.3799 -1.8008,-0.1768 -2.6758,0.5586 -0.916,0.7705 -0.8203,2.4355 -0.7773,2.873 -0.1309,0.0752 -0.3438,0.1904 -0.5606,0.292 -0.0459,-0.1797 -0.0996,-0.3574 -0.1494,-0.5361 -0.7744,-3.3331 -2.2636,-6.3936 -4.2715,-9.0352 -1.1445,-3.4463 -1.1464,-7.23829 0.1397,-10.78126 0.2031,-0.5625 0.4629,-1.14746 0.7519,-1.73144 l -0.8886,0 c -1.7071,3.3164 -2.1963,7.09375 -1.5303,10.6895 -0.8496,-0.91611 -1.7695,-1.75982 -2.749,-2.53228 -0.0166,-0.0449 -0.042,-0.0957 -0.0899,-0.16113 -0.2509,-0.34375 -0.4463,-1.31445 -0.5175,-1.75098 0.5175,-0.34472 2.4296,-1.73828 2.4511,-3.43554 0.0147,-1.14063 -0.3623,-2.15235 -0.9511,-2.80957 l -0.6924,0 c 0.1074,0.38476 0.2285,0.89648 0.2324,1.39453 0.009,1.00488 -0.457,1.95117 -0.5791,1.95019 -0.1094,0 0.1318,-0.9375 -0.0977,-1.9414 -0.1132,-0.49805 -0.3398,-1.01172 -0.5547,-1.40332 l -1.4453,0 c -0.5849,0.64355 -0.9716,1.6289 -0.9853,2.74609 -0.0225,1.69141 1.8389,3.125 2.3564,3.49219 0.045,0.22363 0.0323,0.77343 0.0196,1.24902 -4.0323,-2.89648 -8.97169,-4.54687 -14.2295,-4.375 -0.48633,0.0156 -0.96973,0.0498 -1.4502,0.0947 l 0,0.88965 c 1.98243,-0.17969 4.06739,0.0312 5.9834,0.45214 -0.1875,0.20606 -0.40137,0.40918 -0.5332,0.52539 -0.40723,-0.18066 -1.97852,-0.80859 -3.01367,-0.1748 -0.98926,0.60547 -1.53321,1.58789 -1.39746,2.39356 0.0137,0.0859 0.47363,-0.61133 1.07812,-1 0.60449,-0.3877 1.35449,-0.46583 1.40039,-0.39161 0.042,0.0664 -0.61719,0.27637 -1.13769,0.79785 -0.52832,0.53028 -0.91797,1.3711 -0.8584,1.41993 0.64941,0.5205 1.7998,0.49414 2.80957,-0.12305 1.03125,-0.63086 1.19043,-2.30469 1.21582,-2.75781 0.13867,-0.13281 0.58789,-0.3916 0.90332,-0.5791 0.69238,0.16699 1.3623,0.35742 1.98926,0.56836 2.99904,1.00781 5.67574,2.59082 7.94624,4.60055 -0.126,-0.0576 -0.2392,-0.1299 -0.3672,-0.1845 -1.6133,-0.68852 -3.3115,-1.14457 -5.0595,-0.70121 -1.62892,0.41311 -3.14552,1.42672 -3.97072,2.92192 -0.86621,1.5654 -0.92382,3.3935 0.86133,4.3144 0.60547,0.3115 1.27637,0.3106 1.83892,-0.082 0.50867,-0.3565 0.54577,-0.9561 0.0312,-1.2842 -0.30762,-0.1963 -1.17383,0.0811 -0.69336,0.3867 -0.36816,0.5606 -0.72266,0.6328 -1.06348,0.2168 -0.16699,-0.1572 -0.30664,-0.3379 -0.41601,-0.541 -0.16699,-0.3662 -0.29981,-0.7607 -0.2461,-1.1728 0.0967,-0.7383 0.44434,-1.4883 0.8877,-2.087 0.8584,-1.1582 2.16302,-2.04981 3.61912,-2.22361 2.2266,-0.26659 4.6269,0.90431 6.4775,2.33201 2.0762,2.3184 3.6817,5.0498 4.7149,8.0538 -0.4649,-0.0977 -1.0078,-0.2139 -1.2158,-0.3096 -0.2344,-0.5821 -1.1895,-2.7031 -2.8223,-3.0703 -1.5977,-0.3584 -3.1172,0.1201 -3.7354,1.0908 -0.0566,0.0918 0.8291,1.0195 1.7578,1.4775 0.9141,0.4512 1.8721,0.4336 1.8467,0.5381 -0.0263,0.1182 -1.0439,0.3496 -2.0097,0.1123 -0.9659,-0.2392 -1.8789,-0.9482 -1.8584,-0.8301 0.1806,1.1163 1.333,2.1612 2.8984,2.5127 1.6387,0.3692 3.418,-1.1543 3.8691,-1.5732 0.3975,0.165 1.2647,0.5654 1.5518,0.8828 0.0566,0.1885 0.1016,0.3818 0.1543,0.5713 0.125,0.4512 0.2393,0.9053 0.3389,1.3652 0.042,0.1983 0.0791,0.3975 0.1172,0.5967 1.3535,6.958 -0.1016,14.3174 -4.043,20.1729 0.9062,-2.3819 1.2763,-4.9913 0.9609,-7.6631 -0.2295,-1.9453 -0.7314,-3.8448 -2.1328,-5.293 -0.1172,-0.1211 -0.2432,-0.2344 -0.3691,-0.3486 -0.6553,-0.836 -1.1543,-1.8301 -1.1465,-2.8194 0.006,-0.8164 0.4189,-1.5937 1.0078,-2.1416 0.3018,-0.2822 0.6963,-0.5205 1.0996,-0.6211 0.2236,-0.0556 0.4512,-0.006 0.6641,0.0645 0.1191,0.0469 0.2285,0.1123 0.3261,0.1953 0.251,0.1641 0.2334,0.3633 -0.0546,0.6016 -0.1993,-0.2451 -0.2979,0.2509 -0.1709,0.4091 0.2128,0.2647 0.5439,0.2071 0.708,-0.0966 0.1836,-0.3369 0.1425,-0.7071 -0.0684,-1.0225 -0.6191,-0.9326 -1.6279,-0.7871 -2.4424,-0.21 -0.7754,0.5489 -1.2431,1.4522 -1.3701,2.3799 -0.008,0.0508 0.001,0.0996 -0.004,0.1494 -0.3281,-0.7304 -0.7695,-1.3925 -1.4678,-1.8418 -0.8252,-0.5341 -1.8652,-0.7802 -2.833,-0.538 -1.0176,0.2519 -1.8252,0.955 -1.5068,2.0879 0.1064,0.3847 0.373,0.6699 0.7676,0.7558 0.3544,0.0772 0.6259,-0.1465 0.5625,-0.499 -0.0391,-0.209 -0.502,-0.4697 -0.4444,-0.1436 -0.3867,0.0655 -0.5566,-0.0566 -0.5156,-0.3691 0.001,-0.1348 0.0234,-0.2656 0.0684,-0.3926 0.0898,-0.2187 0.205,-0.4336 0.4033,-0.5742 0.3564,-0.252 0.8164,-0.4023 1.248,-0.4492 0.8399,-0.0938 1.7412,0.1113 2.3965,0.665 0.9531,0.8076 1.4092,2.2012 1.5596,3.5059 -1.041,-0.6221 -2.2295,-0.9922 -3.4541,-0.9727 -1.999,0.0322 -3.79977,0.9893 -3.70217,3.2315 0.0332,0.7607 0.40727,1.4121 1.10157,1.7363 0.626,0.2949 1.2295,-0.001 1.2627,-0.6816 0.0166,-0.4092 -0.7324,-1.0928 -0.7608,-0.4581 -0.75,-0.0459 -1.0166,-0.3496 -0.8027,-0.9101 0.0606,-0.25 0.1592,-0.4834 0.294,-0.7031 0.2636,-0.3662 0.5712,-0.7139 1,-0.8907 0.7695,-0.3173 1.6875,-0.3955 2.5156,-0.2978 1.5996,0.1865 3.1885,0.956 4.166,2.2715 1.8379,2.4707 1.7246,6.4043 1.0234,9.2734 -0.5996,2.4541 -1.7099,4.6963 -3.2168,6.5928 -0.0781,0.0771 -0.1504,0.1592 -0.2295,0.2353 -1.3593,1.292 -3.0312,2.585 -4.8554,3.6368 -1.2852,0.5976 -2.65527,0.9482 -3.96679,0.791 -1.45606,-0.1739 -2.76075,-1.0655 -3.61914,-2.2237 -0.44336,-0.5986 -0.79102,-1.3486 -0.8877,-2.0869 -0.0537,-0.4121 0.0791,-0.8066 0.24609,-1.1728 0.11036,-0.2032 0.24903,-0.3838 0.41602,-0.541 0.34082,-0.4161 0.69531,-0.3438 1.06348,0.2168 -0.48047,0.3056 0.38574,0.583 0.69336,0.3867 0.51464,-0.3282 0.47753,-0.9278 -0.0312,-1.2842 -0.5625,-0.3926 -1.2334,-0.3936 -1.83887,-0.082 -1.78418,0.9209 -1.72754,2.749 -0.86133,4.3144 0.8252,1.4951 2.3418,2.5088 3.9707,2.9219 0.63965,0.1621 1.27149,0.2021 1.89551,0.1562 -1.89453,0.7149 -3.8584,1.0811 -5.75097,0.8545 -0.96973,-0.1162 -1.9004,-0.4121 -2.76661,-0.8457 l 0,1.2344 c 0.41699,0.1553 0.83887,0.2959 1.26758,0.4043 2.54688,0.6465 5.03223,0.2041 7.42481,-0.6504 1.93751,-0.5566 3.72361,-1.4473 5.29981,-2.6025 1.624,-1.045 3.1054,-2.2559 4.4287,-3.6065 1.539,6.167 -0.3526,12.6963 -4.9883,17.1035 -2.3106,2.1963 -5.9326,4.4131 -9.23142,4.0186 -1.66993,-0.2002 -3.16797,-1.1856 -4.20118,-2.4824 l 0,1.207 0,0.4639 c 0.10547,-0.0225 0.19531,-0.0332 0.27637,-0.0352 0.86133,0.6504 1.86035,1.1231 2.90234,1.3877 1.64844,0.418 3.25977,0.168 4.81641,-0.3564 -0.16504,0.208 -0.31445,0.4267 -0.44141,0.6621 -0.48632,0.8965 -0.65332,1.8857 -0.2666,2.6777 l 0.84668,0 c -0.0244,-0.0371 -0.0605,-0.0654 -0.082,-0.1045 -0.14746,-0.3125 -0.26465,-0.6474 -0.22168,-1.0019 0.0811,-0.6338 0.3711,-1.2784 0.75,-1.7911 0.35352,-0.4873 0.8125,-0.8994 1.31935,-1.2334 6.50287,-3.0839 10.33887,-9.8193 10.17277,-16.7773 1.9121,6.2139 7.0625,11.2373 13.7686,12.4932 1.6855,0.3154 3.3975,0.4257 5.0205,-0.0616 0.2627,0.3614 0.5391,1.0401 0.6592,1.3819 -0.4209,0.4101 -1.9658,2.0351 -1.6944,3.6211 0.2579,1.5136 1.2002,2.666 2.2579,2.8935 0.1123,0.0264 -0.5196,-0.8828 -0.7002,-1.8164 -0.1797,-0.9355 0.0918,-1.8965 0.207,-1.916 0.1016,-0.0176 0.0361,0.8945 0.4219,1.792 0.3925,0.9092 1.2353,1.8037 1.3261,1.752 0.958,-0.542 1.4903,-1.9698 1.2276,-3.5157 -0.2705,-1.5781 -2.251,-2.5957 -2.7959,-2.8496 -0.1074,-0.2666 -0.2168,-1.0849 -0.2959,-1.5586 0.168,-0.0683 0.3369,-0.1338 0.5029,-0.2168 1.8096,-0.9111 3.3301,-2.499 3.9111,-4.4736 0.6114,-2.0684 0.2032,-4.2344 -2.1377,-4.8525 z"
           id="path57" />
        <path
           style="fill:#eeeeee;fill-rule:nonzero;stroke:none"
           d="m 332.5221,238.612 -1.7041,0 c 0.1357,0.11035 0.3096,0.19238 0.5244,0.22363 0.4307,0.0654 0.8291,-0.0283 1.1797,-0.22363 z"
           id="path59" />
        <path
           style="fill:#eeeeee;fill-rule:nonzero;stroke:none"
           d="m 316.6985,279.8461 c 0.4043,1.3252 0.2129,3.3408 0.3632,2.7578 0.2979,-1.164 0.5909,-2.5322 0.5166,-3.1699 -0.1435,-1.2266 -3.2841,-3.2031 -3.9687,-3.2461 -0.6856,-0.0449 -0.2139,1.8799 -0.0625,3.1611 0.1504,1.2823 2.4355,3.4668 2.7158,3.6416 0.1455,0.0909 0.211,-1.1865 -0.1103,-2.5244 -0.2969,-1.2402 -1.0508,-2.1035 -1.0508,-2.1035 0,0 1.2597,0.3779 1.5967,1.4834 z"
           id="path61" />
        <path
           style="fill:#eeeeee;fill-rule:nonzero;stroke:none"
           d="m 317.8633,300.0322 c -0.124,-0.1181 -0.4453,1.1201 -0.4023,2.4951 0.042,1.2745 0.6054,2.2725 0.6054,2.2725 0,0 -1.1582,-0.625 -1.2636,-1.7754 -0.129,-1.3799 0.4648,-3.3154 0.2002,-2.7744 -0.5264,1.0801 -1.0909,2.3604 -1.1456,3 -0.1074,1.2305 2.5694,3.8008 3.2315,3.9805 0.6621,0.1826 0.5879,-1.7979 0.6992,-3.083 0.1113,-1.2862 -1.6865,-3.8877 -1.9248,-4.1153 z"
           id="path63" />
        <path
           style="fill:#eeeeee;fill-rule:nonzero;stroke:none"
           d="m 325.1687,282.693 c -0.3994,-0.3252 -3.1377,-0.837 -3.8418,-0.2334 -0.3662,0.3134 -0.9024,1.2168 -1.3311,2.0107 -0.2148,0.3975 0.707,-0.8115 1.6055,-1.335 0.749,-0.4375 1.6367,-0.004 1.6367,-0.004 0,0 -0.8564,0.0918 -1.6523,0.6231 -0.8584,0.5742 -1.4737,1.3115 -1.3467,1.3349 0.2431,0.0469 2.6162,0.008 3.3525,-0.622 0.7363,-0.6299 1.9776,-1.4492 1.5772,-1.7744 z"
           id="path65" />
        <path
           style="fill:#eeeeee;fill-rule:nonzero;stroke:none"
           d="m 322.8325,254.90086 c 0.2666,0.54 -0.334,-1.3936 -0.2109,-2.7735 0.1016,-1.1513 1.2578,-1.7802 1.2578,-1.7802 0,0 -0.5605,1 -0.5967,2.2744 -0.039,1.3759 0.2871,2.6123 0.4112,2.4931 0.2373,-0.2285 2.0253,-2.8359 1.9091,-4.122 -0.1152,-1.2842 -0.0488,-3.26566 -0.7099,-3.08011 -0.6621,0.18261 -3.3291,2.76271 -3.2168,3.99221 0.0576,0.6396 0.626,1.9179 1.1562,2.9961 z"
           id="path67" />
        <path
           style="fill:#eeeeee;fill-rule:nonzero;stroke:none"
           d="m 313.0813,286.1595 c 1.5488,-0.3135 2.4541,-2.2979 2.4541,-2.2979 0,0 -1.6074,-1.4756 -3.1553,-1.1621 -1.5508,0.3135 -2.4561,2.2988 -2.4561,2.2988 0,0 1.6065,1.4756 3.1573,1.1612 z"
           id="path69" />
        <path
           style="fill:#eeeeee;fill-rule:nonzero;stroke:none"
           d="m 313.2112,281.5199 c 0,0 -0.1075,-1.6787 -1.003,-2.0898 -0.8965,-0.4121 -2.2392,0.5976 -2.2392,0.5976 0,0 0.1074,1.6768 1.0039,2.0889 0.8945,0.4121 2.2383,-0.5967 2.2383,-0.5967 z"
           id="path71" />
        <path
           style="fill:#eeeeee;fill-rule:nonzero;stroke:none"
           d="m 320.3306,286.0093 c 0,0 -0.4326,1.624 0.2861,2.2998 0.7158,0.6758 2.3115,0.1474 2.3115,0.1474 0,0 0.4326,-1.6259 -0.2841,-2.3007 -0.7188,-0.6758 -2.3135,-0.1465 -2.3135,-0.1465 z"
           id="path73" />
        <path
           style="fill:#eeeeee;fill-rule:nonzero;stroke:none"
           d="m 320.9899,298.1125 c -0.4952,-0.1846 -1.5586,-2.8525 -1.8565,-2.3242 -0.3799,0.6738 -0.9824,2.458 -0.6787,3.2148 0.543,1.3526 3.0088,1.6338 3.0088,1.6338 0,0 1.5889,-1.9082 1.0459,-3.2607 -0.2481,-0.6172 -0.8985,-1.0108 -1.5303,-1.2569 -0.7519,-0.292 0.5049,2.1768 0.0108,1.9932 z"
           id="path75" />
        <path
           style="fill:#eeeeee;fill-rule:nonzero;stroke:none"
           d="m 315.486,288.7471 c -0.6484,0.2607 -1.3867,0.6953 -1.8398,1.4043 -0.9482,1.4824 -0.2812,3.6074 -0.2812,3.6074 0,0 2.2089,-0.2842 3.1582,-1.7656 0.4755,-0.7452 0.5459,-1.6485 0.497,-2.3643 -0.0488,-0.7158 -1.8388,1.3193 -2.3467,1.3916 -0.5068,0.0723 1.5254,-2.5605 0.8125,-2.2734 z"
           id="path77" />
        <path
           style="fill:#eeeeee;fill-rule:nonzero;stroke:none"
           d="m 320.2363,249.72737 c 0.2745,0.4981 0.8799,-1.5634 1.2208,-1.7851 0.3408,-0.22072 -0.2393,2.3506 0.1757,1.9062 0.3799,-0.4043 0.7657,-0.9648 0.8535,-1.6259 0.1875,-1.38285 -1.0039,-2.68657 -1.0039,-2.68657 0,0 -1.4921,0.94336 -1.6796,2.3252 -0.0918,0.69437 0.1582,1.36717 0.4335,1.86617 z"
           id="path79" />
        <path
           style="fill:#eeeeee;fill-rule:nonzero;stroke:none"
           d="m 298.939,259.627 0,1.1152 c 0.0381,0.1377 0.0596,0.2793 0.0469,0.4258 -0.008,0.0947 -0.0283,0.1904 -0.0469,0.2851 l 0,1.5713 c 0.11816,-0.168 0.24512,-0.3301 0.33691,-0.5156 0.51368,-1.0332 0.56251,-2.1953 -0.33691,-2.8818 z"
           id="path81" />
        <path
           style="fill:#eeeeee;fill-rule:nonzero;stroke:none"
           d="m 301.80033,266.1357 c 0.26172,0.3614 0.53906,1.0401 0.65918,1.3819 -0.4209,0.4101 -1.96582,2.0351 -1.69433,3.6211 0.25781,1.5136 1.20019,2.666 2.25781,2.8935 0.1123,0.0264 -0.51953,-0.8828 -0.7002,-1.8164 -0.17968,-0.9355 0.0918,-1.8965 0.20703,-1.916 0.10157,-0.0176 0.0361,0.8945 0.42188,1.792 0.39258,0.9092 1.23535,1.8037 1.32617,1.752 0.95801,-0.542 1.49024,-1.9698 1.22754,-3.5157 -0.27051,-1.5781 -2.25195,-2.5957 -2.7959,-2.8496 -0.10742,-0.2666 -0.2168,-1.0849 -0.2959,-1.5586 0.16797,-0.0683 0.33692,-0.1338 0.50293,-0.2168 1.80957,-0.9111 3.33008,-2.499 3.91114,-4.4736 0.61132,-2.0684 0.20312,-4.2344 -2.1377,-4.8525 -0.79492,-0.209 -1.58398,-0.0332 -2.14258,0.5761 -0.50683,0.5518 -0.39355,1.2666 0.29688,1.5186 0.41504,0.1504 1.36133,-0.4014 0.71582,-0.6358 0.28808,-0.7558 0.68652,-0.9336 1.19531,-0.5322 0.23828,0.1416 0.44824,0.3184 0.63086,0.5283 0.29101,0.3877 0.5498,0.8174 0.59473,1.3155 0.0791,0.8945 -0.13477,1.8672 -0.50098,2.6875 -0.70703,1.5879 -2.01074,2.9765 -3.67871,3.5605 -0.89844,0.3145 -1.87012,0.4209 -2.86231,0.3809 l 0,0.6816 c 0.96875,0.043 1.92969,-0.043 2.86133,-0.3223 z"
           id="path83" />
        <path
           style="fill:#eeeeee;fill-rule:nonzero;stroke:none"
           d="m 333.8135,308.5304 c 0.1377,-1.2735 -0.6865,-2.4463 -1.8818,-3.2696 -1.5713,-1.083 -3.5928,-1.3398 -5.4258,-0.9394 -1.9688,0.4277 -3.4405,1.7305 -4.708,3.2226 -0.8155,0.9581 -1.4912,1.9903 -2.0459,3.0684 l 0.8886,0 c 1.1436,-2.3027 2.9278,-4.5928 5.2403,-5.4209 1.542,-0.5517 3.291,-0.3115 4.7265,0.4199 0.7413,0.377 1.4629,0.9522 1.9278,1.6426 0.2588,0.3848 0.3222,0.8447 0.3388,1.2949 -0.009,0.2569 -0.0566,0.5069 -0.1464,0.7491 -0.1329,0.5849 -0.5225,0.6894 -1.1709,0.3125 0.3281,-0.545 -0.6748,-0.3907 -0.8868,-0.0411 -0.2412,0.4024 -0.1513,0.7989 0.1485,1.043 l 1.7041,0 c 0.2265,-0.126 0.4297,-0.2969 0.6055,-0.5098 -0.0342,0.1709 -0.0743,0.3409 -0.1202,0.5098 l 0.3369,0 c 0.0723,-0.2393 0.1426,-0.4775 0.1924,-0.7187 0.0576,0.2412 0.1319,0.4794 0.2071,0.7187 l 0.4433,0 c -0.1943,-0.6768 -0.3095,-1.3828 -0.3594,-2.0557 -9e-4,-0.0117 -0.0127,-0.0146 -0.0146,-0.0263 z"
           id="path85" />
        <path
           style="fill:#eeeeee;fill-rule:nonzero;stroke:none"
           d="m 314.187,309.9436 c -0.3554,0.123 -0.6787,0.3603 -0.959,0.6689 l 1.4453,0 c -0.2236,-0.4102 -0.4335,-0.6865 -0.4863,-0.6689 z"
           id="path87" />
        <path
           style="fill:#eeeeee;fill-rule:nonzero;stroke:none"
           d="m 315.6731,310.6124 0.6924,0 c -0.2471,-0.2764 -0.5293,-0.4961 -0.8409,-0.626 -0.0556,-0.0234 0.0391,0.2354 0.1485,0.626 z"
           id="path89" />
        <path
           style="fill:#eeeeee;fill-rule:nonzero;stroke:none"
           d="m 300.01029,278.0893 c 1.03809,0.6718 2.34278,0.9834 3.5625,0.6816 1.27735,-0.3154 2.29297,-1.1992 1.89649,-2.6221 -0.13379,-0.4824 -0.47071,-0.8447 -0.96387,-0.9511 -0.44531,-0.0977 -0.78809,0.1836 -0.70703,0.6259 0.0478,0.2627 0.62988,0.5918 0.55469,0.1807 0.4873,-0.083 0.70312,0.0723 0.64941,0.4639 -0.002,0.1699 -0.0293,0.3349 -0.085,0.4951 -0.11426,0.2734 -0.26074,0.543 -0.50977,0.7197 -0.44726,0.3174 -1.02636,0.5049 -1.57031,0.5645 -1.05469,0.1162 -2.18652,-0.1426 -3.00976,-0.8408 -0.34766,-0.2959 -0.63966,-0.6573 -0.88868,-1.0577 l 0,0.7129 c 0.29883,0.3887 0.6377,0.7471 1.07129,1.0274 z"
           id="path91" />
        <path
           style="fill:#eeeeee;fill-rule:nonzero;stroke:none"
           d="m 303.49076,295.0894 c 1.60156,0.3428 2.96192,1.4678 3.79688,2.8467 0.43164,0.711 0.74218,1.5791 0.77343,2.4112 0.0166,0.4638 -0.17089,0.8877 -0.39453,1.2793 -0.14258,0.2138 -0.31445,0.4003 -0.51855,0.5595 -0.4209,0.4278 -0.80762,0.3106 -1.15918,-0.3506 0.56445,-0.291 -0.36914,-0.6884 -0.73242,-0.5019 -0.60547,0.3115 -0.62598,0.9834 -0.0957,1.4307 0.58301,0.4951 1.3291,0.5654 2.03614,0.2802 2.08008,-0.8418 2.20308,-2.8789 1.40141,-4.7099 -0.76567,-1.7481 -2.34868,-3.0303 -4.11723,-3.6563 -1.84571,-0.6543 -3.72657,-0.3564 -5.542,0.2119 l 0,0.6875 c 1.50879,-0.5468 3.09082,-0.8017 4.55176,-0.4883 z"
           id="path93" />
      </g>
    </pattern>
    <radialGradient
       inkscape:collect="always"
       xlink:href="#linearGradient4581"
       id="radialGradient4591"
       gradientUnits="userSpaceOnUse"
       gradientTransform="matrix(-1.3501263,1.3180136,-1.3073154,-1.3391678,2864.8088,198.35392)"
       cx="624.68854"
       cy="762.93793"
       fx="624.68854"
       fy="762.93793"
       r="1023.9999" />
    <radialGradient
       inkscape:collect="always"
       xlink:href="#linearGradient4651"
       id="radialGradient4661"
       gradientUnits="userSpaceOnUse"
       gradientTransform="matrix(-1.3501263,1.3180136,-1.3073155,-1.3391679,2864.8089,198.35392)"
       cx="624.68854"
       cy="762.93793"
       fx="624.68854"
       fy="762.93793"
       r="1023.9999" />
    <mask
       maskUnits="userSpaceOnUse"
       id="mask4657">
      <rect
         y="-9.9999997e-06"
         x="1.1035157e-05"
         height="1638.3999"
         width="2047.9999"
         id="rect4659"
         style="opacity:0.22222224;fill:url(#radialGradient4661);fill-opacity:1;stroke:none" />
    </mask>
  </defs>
  <rect
     style="opacity:1;fill:url(#radialGradient4591);fill-opacity:1;stroke:none"
     id="rect4571"
     width="2047.9999"
     height="1638.3999"
     x="1.1035157e-05"
     y="-1.1718748e-06" />
  <rect
     y="-1.1718748e-06"
     x="1.1035157e-05"
     height="1638.3999"
     width="2047.9999"
     id="rect4593"
     style="opacity:0.13213213;fill:url(#pattern4599);fill-opacity:1;stroke:none;fill-rule:evenodd"
     inkscape:export-xdpi="90"
     inkscape:export-ydpi="90"
     mask="url(#mask4657)" />
</svg>
