/* XPM */
static char * hide_pressed_xpm[] = {
"16 20 16 1",
" 	c None",
".	c #1A1A1A",
"+	c #272727",
"@	c #333333",
"#	c #1D1D1D",
"$	c #2A2A2A",
"%	c #1C1C1C",
"&	c #2C2C2C",
"*	c #2B2B2B",
"=	c #282828",
"-	c #292929",
";	c #616161",
">	c #1E1E1E",
",	c #262626",
"'	c #252525",
")	c #232323",
" ...............",
" .++++++++++++++",
"@#$$$$$$$$$$$$$$",
"@%$&&&&&&&&&&&&$",
"@%$*&&&&&&&&&&*$",
"@#$*&&&&&&&&&&*$",
"@#=-$$$$$$$$$$-=",
"@#=-$$;;;;;;$$-=",
"@#=-$-;;;;;;---=",
"@#+------------+",
"@>+============+",
"@>+============+",
"@>,++++++++++++,",
"@>,+==========+,",
"@'))))))))))))))",
"@@@@@@@@@@@@@@@@",
"@@@@@@@@@@@@@@@@",
"@@@@@@@@@@@@@@@@",
"@@@@@@@@@@@@@@@@",
"@@@@@@@@@@@@@@@@"};
