/* XPM */
static char * close_pressed_xpm[] = {
"27 22 48 1",
" 	c None",
".	c #535353",
"+	c #878787",
"@	c #9A9A9A",
"#	c #525252",
"$	c #979797",
"%	c #8C8C8C",
"&	c #959595",
"*	c #898989",
"=	c #797979",
"-	c #696969",
";	c #515151",
">	c #939393",
",	c #686868",
"'	c #FFFFFF",
")	c #8F8F8F",
"!	c #848484",
"~	c #666666",
"{	c #8E8E8E",
"]	c #818181",
"^	c #646464",
"/	c #505050",
"(	c #8B8B8B",
"_	c #7E7E7E",
":	c #626262",
"<	c #888888",
"[	c #7C7C7C",
"}	c #616161",
"|	c #4F4F4F",
"1	c #868686",
"2	c #5F5F5F",
"3	c #393939",
"4	c #6D6D6D",
"5	c #5E5E5E",
"6	c #3B3B3B",
"7	c #717171",
"8	c #3D3D3D",
"9	c #747474",
"0	c #5C5C5C",
"a	c #545454",
"b	c #3F3F3F",
"c	c #787878",
"d	c #424242",
"e	c #6E6E6E",
"f	c #444444",
"g	c #727272",
"h	c #808080",
"i	c #464646",
" ......................... ",
".+@@@@@@@@@@@@@@@@@@@@@@@+.",
"#$%%%%%%%%%%%%%%%%%%%%%%%$#",
"#&******=--****--=*******&#",
";>++++++,'',++,'',+++++++>;",
";)!!!!!!~'''~~'''~!!!!!!!);",
";{]]]]]]]^''''''^]]]]]]]]{;",
"/(________:'''':_________(/",
"/<[[[[[[[[}''''}[[[[[[[[[</",
"|1=======2''''''2========1|",
"34555555|'''||'''|555555543",
"67::::::;'';::;'';:::::::76",
"89~~~~~~0aa~~~~aa0~~~~~~~98",
"bc-----------------------cb",
"d[eeeeeeeeeeeeeeeeeeeeeee[d",
"fghhhhhhhhhhhhhhhhhhhhhhhgf",
" iiiiiiiiiiiiiiiiiiiiiiiii ",
"                           ",
"                           ",
"                           ",
"                           ",
"                           "};
