/* XPM */
static char * hide_pressed_xpm[] = {
"27 22 44 1",
" 	c None",
".	c #535353",
"+	c #878787",
"@	c #9A9A9A",
"#	c #525252",
"$	c #979797",
"%	c #8C8C8C",
"&	c #959595",
"*	c #898989",
"=	c #515151",
"-	c #939393",
";	c #8F8F8F",
">	c #848484",
",	c #8E8E8E",
"'	c #818181",
")	c #505050",
"!	c #8B8B8B",
"~	c #7E7E7E",
"{	c #888888",
"]	c #7C7C7C",
"^	c #4F4F4F",
"/	c #868686",
"(	c #797979",
"_	c #5F5F5F",
":	c #393939",
"<	c #6D6D6D",
"[	c #5E5E5E",
"}	c #FFFFFF",
"|	c #3B3B3B",
"1	c #717171",
"2	c #626262",
"3	c #3D3D3D",
"4	c #747474",
"5	c #666666",
"6	c #545454",
"7	c #3F3F3F",
"8	c #787878",
"9	c #696969",
"0	c #424242",
"a	c #6E6E6E",
"b	c #444444",
"c	c #727272",
"d	c #808080",
"e	c #464646",
" ......................... ",
".+@@@@@@@@@@@@@@@@@@@@@@@+.",
"#$%%%%%%%%%%%%%%%%%%%%%%%$#",
"#&***********************&#",
"=-+++++++++++++++++++++++-=",
"=;>>>>>>>>>>>>>>>>>>>>>>>;=",
"=,''''''''''''''''''''''',=",
")!~~~~~~~~~~~~~~~~~~~~~~~!)",
"){]]]]]]]]]]]]]]]]]]]]]]]{)",
"^/((((((__________(((((((/^",
":<[[[[[[^}}}}}}}}^[[[[[[[<:",
"|1222222=}}}}}}}}=22222221|",
"345555556666666666555555543",
"789999999999999999999999987",
"0]aaaaaaaaaaaaaaaaaaaaaaa]0",
"bcdddddddddddddddddddddddcb",
" eeeeeeeeeeeeeeeeeeeeeeeee ",
"                           ",
"                           ",
"                           ",
"                           ",
"                           "};
