/* XPM */
static char * maximize_toggled_pressed_xpm[] = {
"27 22 47 1",
" 	c None",
".	c #535353",
"+	c #878787",
"@	c #9A9A9A",
"#	c #525252",
"$	c #979797",
"%	c #8C8C8C",
"&	c #959595",
"*	c #898989",
"=	c #515151",
"-	c #939393",
";	c #676767",
">	c #8F8F8F",
",	c #848484",
"'	c #666666",
")	c #FFFFFF",
"!	c #8E8E8E",
"~	c #818181",
"{	c #646464",
"]	c #505050",
"^	c #8B8B8B",
"/	c #7E7E7E",
"(	c #626262",
"_	c #888888",
":	c #7C7C7C",
"<	c #616161",
"[	c #4F4F4F",
"}	c #868686",
"|	c #797979",
"1	c #5F5F5F",
"2	c #393939",
"3	c #6D6D6D",
"4	c #5E5E5E",
"5	c #4E4E4E",
"6	c #3B3B3B",
"7	c #717171",
"8	c #3D3D3D",
"9	c #747474",
"0	c #3F3F3F",
"a	c #787878",
"b	c #696969",
"c	c #424242",
"d	c #6E6E6E",
"e	c #444444",
"f	c #727272",
"g	c #808080",
"h	c #464646",
" ......................... ",
".+@@@@@@@@@@@@@@@@@@@@@@@+.",
"#$%%%%%%%%%%%%%%%%%%%%%%%$#",
"#&***********************&#",
"=-+++++++;;;;;;;;++++++++-=",
"=>,,,,,,,'))))))',,,,,,,,>=",
"=!~~~~~~~{)))))){~~~~~~~~!=",
"]^///////()(((()(////////^]",
"]_:::::::<)<::<)<::::::::_]",
"[}|||||||1)1111)1||||||||}[",
"2344444445))))))54444444432",
"67(((((((========((((((((76",
"89'''''''''''''''''''''''98",
"0abbbbbbbbbbbbbbbbbbbbbbba0",
"c:ddddddddddddddddddddddd:c",
"efgggggggggggggggggggggggfe",
" hhhhhhhhhhhhhhhhhhhhhhhhh ",
"                           ",
"                           ",
"                           ",
"                           ",
"                           "};
