/* XPM */
static char * maximize_pressed_xpm[] = {
"27 22 47 1",
" 	c None",
".	c #535353",
"+	c #878787",
"@	c #9A9A9A",
"#	c #525252",
"$	c #979797",
"%	c #8C8C8C",
"&	c #959595",
"*	c #898989",
"=	c #696969",
"-	c #515151",
";	c #939393",
">	c #686868",
",	c #FFFFFF",
"'	c #8F8F8F",
")	c #848484",
"!	c #666666",
"~	c #8E8E8E",
"{	c #818181",
"]	c #646464",
"^	c #505050",
"/	c #8B8B8B",
"(	c #7E7E7E",
"_	c #626262",
":	c #888888",
"<	c #7C7C7C",
"[	c #616161",
"}	c #4F4F4F",
"|	c #868686",
"1	c #797979",
"2	c #5F5F5F",
"3	c #393939",
"4	c #6D6D6D",
"5	c #5E5E5E",
"6	c #3B3B3B",
"7	c #717171",
"8	c #3D3D3D",
"9	c #747474",
"0	c #545454",
"a	c #3F3F3F",
"b	c #787878",
"c	c #424242",
"d	c #6E6E6E",
"e	c #444444",
"f	c #727272",
"g	c #808080",
"h	c #464646",
" ......................... ",
".+@@@@@@@@@@@@@@@@@@@@@@@+.",
"#$%%%%%%%%%%%%%%%%%%%%%%%$#",
"#&******==========*******&#",
"-;++++++>,,,,,,,,>+++++++;-",
"-'))))))!,,,,,,,,!)))))))'-",
"-~{{{{{{],]]]]]],]{{{{{{{~-",
"^/((((((_,_((((_,_(((((((/^",
"^:<<<<<<[,[<<<<[,[<<<<<<<:^",
"}|1111112,211112,21111111|}",
"34555555},}}}}}},}555555543",
"67______-,,,,,,,,-_______76",
"89!!!!!!0000000000!!!!!!!98",
"ab=======================ba",
"c<ddddddddddddddddddddddd<c",
"efgggggggggggggggggggggggfe",
" hhhhhhhhhhhhhhhhhhhhhhhhh ",
"                           ",
"                           ",
"                           ",
"                           ",
"                           "};
