/* XPM */
static char *dummy[]={
"20 3 3 1",
"# c #1f1f1f",
". c #262626",
"a c #666666",
"....................",
"####################",
"aaaaaaaaaaaaaaaaaaaa"};
