/* XPM */
static char *dummy[]={
"3 3 5 1",
"a c None",
". c #1c1c1c",
"c c #4a4c4e",
"# c #515151",
"b c #545454",
".#a",
"bca",
"aaa"};
