/* XPM */
static char *dummy[]={
"3 3 5 1",
". c None",
"a c #1c1c1c",
"b c #4a4c4e",
"# c #515151",
"c c #545454",
".#a",
".bc",
"..."};
