/* XPM */
static char *dummy[]={
"16 20 48 1",
". c None",
"R c #090909",
"T c #0b0b0b",
"O c #0e0e0e",
"M c #131313",
"S c #151515",
"I c #1d1d1d",
"d c #202020",
"c c #232323",
"b c #242424",
"a c #252525",
"# c #262626",
"g c #272727",
"z c #282828",
"f c #2a2a2a",
"e c #2b2b2b",
"i c #2d2d2d",
"H c #2e2e2e",
"h c #2f2f2f",
"q c #303030",
"k c #313131",
"j c #323232",
"r c #333333",
"u c #373737",
"A c #383838",
"l c #454545",
"p c #4a4a4a",
"P c #5f5f5f",
"J c #616161",
"v c #626262",
"s c #646464",
"m c #666666",
"o c #676767",
"t c #686868",
"n c #757575",
"y c #7e7e7e",
"E c #868686",
"w c #8f8f8f",
"x c #989898",
"B c #a0a0a0",
"N c #bababa",
"K c #c3c3c3",
"D c #d4d4d4",
"Q c #dddddd",
"G c #e6e6e6",
"L c #eeeeee",
"F c #f7f7f7",
"C c #ffffff",
"................",
"................",
"############abcd",
"eeeeeeeeeeeeefgb",
"hhhhhhhhhhhhhieg",
"jjjkilmnnopjkqif",
"rrqisnnnnnntukhe",
"rqavnwxynwxytjhe",
"jzAnnBCDEFGnnphe",
"HIJnnnKCLFwnnohe",
"fMnnnnyLCNnnnnhe",
"gOnnnnwCCGnnnnhe",
"gOPnnyLFNCNnnmhe",
"fMinnKCBnQCwnlhe",
"HIRPnnnnnnnnsihe",
"jzSTPnnnnnnvikhe",
"rqaSRiPnnJAaqjhe",
"rrqzIMOOMIzqrjhe",
"rrrjHfggfHjrrjhe",
"................"};
