/* XPM */
static char *dummy[]={
"16 20 37 1",
". c None",
"I c #080808",
"H c #090909",
"E c #0e0e0e",
"C c #131313",
"F c #151515",
"z c #1d1d1d",
"d c #202020",
"c c #232323",
"b c #242424",
"a c #252525",
"# c #262626",
"g c #272727",
"r c #282828",
"n c #292929",
"f c #2a2a2a",
"e c #2b2b2b",
"i c #2d2d2d",
"y c #2e2e2e",
"h c #2f2f2f",
"l c #303030",
"k c #313131",
"j c #323232",
"m c #333333",
"q c #404040",
"v c #4d4d4d",
"o c #595959",
"p c #666666",
"s c #737373",
"D c #999999",
"A c #a6a6a6",
"u c #c0c0c0",
"G c #cdcdcd",
"x c #d9d9d9",
"B c #e6e6e6",
"w c #f3f3f3",
"t c #ffffff",
"................",
"................",
"############abcd",
"eeeeeeeeeeeeefgb",
"hhhhhhhhhhhhhieg",
"jjjkiilmmjjjklif",
"mmlnhmmmmmmjmkhe",
"mlaimopqmopqjjhe",
"jrdmmstuvwxmmjhe",
"yzemmmAtBwommjhe",
"fCmmmmqBtDmmmmhe",
"gEmmmmottxmmmmhe",
"gEnmmqBwDtDmmlhe",
"fCFmmAtsmGtomihe",
"yzHnmmmmmmmmhihe",
"jrFInmmmmmminkhe",
"mlaFHFnmmedaljhe",
"mmlrzCEECzrlmjhe",
"mmmjyfggfyjmmjhe",
"................"};
