/* XPM */
static char *dummy[]={
"16 20 33 1",
". c None",
"C c #1a1a1a",
"E c #1b1b1b",
"z c #1d1d1d",
"t c #202020",
"D c #212121",
"# c #262626",
"n c #2a2a2a",
"a c #2b2b2b",
"y c #2c2c2c",
"p c #2d2d2d",
"b c #2f2f2f",
"r c #303030",
"d c #313131",
"c c #323232",
"i c #333333",
"m c #353535",
"e c #3a3a3a",
"B c #3b3b3b",
"h c #3d3d3d",
"q c #3e3e3e",
"A c #464646",
"s c #474747",
"o c #484848",
"j c #494949",
"f c #4a4a4a",
"l c #4b4b4b",
"g c #515151",
"k c #525252",
"u c #595959",
"x c #797979",
"v c #a7a7a7",
"w c #bababa",
"................",
"................",
"################",
"aaaaaaaaaaaaaaaa",
"bbbbbbbbbbbbbbbb",
"cccdbefggfhccccc",
"iidbjkkkkkklmiii",
"idnokkkkkkkkliii",
"cpikkkkkkkkkkqii",
"r#skkkkkkkkkklii",
"ptkkuvwwwwxkkkii",
"yzkkkuvwwxkkkkii",
"yzAkkkuvxkkkklii",
"ptykkkkkkkkkkBii",
"r#CAkkkkkkkkjrii",
"cpDEAkkkkkkobcii",
"idnDCyAkksindiii",
"iidp#tzzt#pdiiii",
"iiicrpyyprciiiii",
"................"};
