/* XPM */
static char *dummy[]={
"16 20 22 1",
". c None",
"t c #191919",
"s c #1a1a1a",
"q c #1d1d1d",
"k c #202020",
"r c #212121",
"# c #262626",
"i c #272727",
"h c #2a2a2a",
"a c #2b2b2b",
"p c #2c2c2c",
"f c #2d2d2d",
"j c #2e2e2e",
"b c #2f2f2f",
"g c #303030",
"d c #313131",
"c c #323232",
"e c #333333",
"l c #3b3b3b",
"o c #616161",
"m c #979797",
"n c #adadad",
"................",
"................",
"################",
"aaaaaaaaaaaaaaaa",
"bbbbbbbbbbbbbbbb",
"cccdbbdeeccccccc",
"eedfgeeeeeeeeeee",
"edhgeeeeeeeeeeee",
"cfieeeeeeeeeeeee",
"g#jeeeeeeeeeecee",
"fkeelmnnnnoeeeee",
"pqeeelmnnoeeeeee",
"pqfeeelmoeeeedee",
"fkreeeeeeeeeegee",
"g#sfeeeeeeeeggee",
"cfrtfeeeeeegfcee",
"edhrsrfeejihdeee",
"eedf#kqqk#fdeeee",
"eeecgfppfgceeeee",
"................"};
