/* XPM */
static char *dummy[]={
"3 20 3 1",
"# c #1f1f1f",
"a c #262626",
". c #666666",
".#a",
".#a",
".#a",
".#a",
".#a",
".#a",
".#a",
".#a",
".#a",
".#a",
".#a",
".#a",
".#a",
".#a",
".#a",
".#a",
".#a",
".#a",
".#a",
".#a"};
