/* XPM */
static char *dummy[]={
"16 20 35 1",
". c None",
"E c #1a1a1a",
"G c #1b1b1b",
"z c #1d1d1d",
"w c #202020",
"F c #212121",
"# c #262626",
"n c #2a2a2a",
"a c #2b2b2b",
"y c #2c2c2c",
"p c #2d2d2d",
"b c #2f2f2f",
"s c #303030",
"d c #313131",
"c c #323232",
"i c #333333",
"m c #353535",
"e c #3a3a3a",
"D c #3b3b3b",
"h c #3d3d3d",
"r c #3e3e3e",
"A c #464646",
"t c #474747",
"o c #484848",
"j c #494949",
"f c #4a4a4a",
"l c #4b4b4b",
"g c #515151",
"k c #525252",
"q c #595959",
"C c #5f5f5f",
"B c #6c6c6c",
"u c #939393",
"v c #a7a7a7",
"x c #bababa",
"................",
"................",
"################",
"aaaaaaaaaaaaaaaa",
"bbbbbbbbbbbbbbbb",
"cccdbefggfhccccc",
"iidbjkkkkkklmiii",
"idnokkkkkkkkliii",
"cpikkkkkqkkkkrii",
"s#tkkkkuvqkkklii",
"pwkkkkuxxvqkkkii",
"yzkkkuxxxxvqkkii",
"yzAkqBBBBBBCklii",
"pwykkkkkkkkkkDii",
"s#EAkkkkkkkkjsii",
"cpFGAkkkkkkobcii",
"idnFEyAkktindiii",
"iidp#wzzw#pdiiii",
"iiicspyypsciiiii",
"................"};
