/* XPM */
static char *dummy[]={
"16 20 24 1",
". c None",
"v c #191919",
"u c #1a1a1a",
"q c #1d1d1d",
"n c #202020",
"t c #212121",
"# c #262626",
"i c #272727",
"h c #2a2a2a",
"a c #2b2b2b",
"p c #2c2c2c",
"f c #2d2d2d",
"k c #2e2e2e",
"b c #2f2f2f",
"g c #303030",
"d c #313131",
"c c #323232",
"e c #333333",
"j c #3b3b3b",
"s c #424242",
"r c #515151",
"l c #808080",
"m c #979797",
"o c #adadad",
"................",
"................",
"################",
"aaaaaaaaaaaaaaaa",
"bbbbbbbbbbbbbbbb",
"cccdbbdeeccccccc",
"eedfgeeeeeeeeeee",
"edhgeeeeeeeeeeee",
"cfieeeeejeeeeeee",
"g#keeeelmjeeecee",
"fneeeeloomjeeeee",
"pqeeeloooomjeeee",
"pqfejrrrrrrsedee",
"fnteeeeeeeeeegee",
"g#ufeeeeeeeeggee",
"cftvfeeeeeegfcee",
"edhtutfeekihdeee",
"eedf#nqqn#fdeeee",
"eeecgfppfgceeeee",
"................"};
