/* XPM */
static char *dummy[]={
"16 20 22 1",
"f c #1e1e1e",
"g c #1f1f1f",
"e c #202020",
"h c #232323",
"i c #242424",
"j c #252525",
"k c #262626",
"l c #272727",
"m c #2a2a2a",
"n c #2b2b2b",
"o c #2d2d2d",
"d c #2e2e2e",
"p c #2f2f2f",
"q c #303030",
"r c #313131",
"s c #323232",
"t c #333333",
". c #595959",
"# c #626262",
"a c #646464",
"b c #656565",
"c c #666666",
".#abcccccccccccc",
"defggggggggggggg",
"ehijkkkkkkkkkkkk",
"ilmnnnnnnnnnnnnn",
"lnoppppppppppppp",
"moqrssssssssssss",
"nprttttttttttttt",
"npsttttttttttttt",
"npsttttttttttttt",
"npsttttttttttttt",
"npsttttttttttttt",
"npsttttttttttttt",
"npsttttttttttttt",
"npsttttttttttttt",
"npsttttttttttttt",
"npsttttttttttttt",
"npsttttttttttttt",
"npsttttttttttttt",
"npsttttttttttttt",
"npsttttttttttttt"};
