/* XPM */
static char *dummy[]={
"3 20 18 1",
". c None",
"b c #1c1c1c",
"j c #1e1e1e",
"m c #1f1f1f",
"d c #202020",
"g c #232323",
"i c #242424",
"l c #252525",
"o c #262626",
"e c #2e2e2e",
"a c #4a4c4e",
"c c #4e4e4e",
"# c #4f4f4f",
"f c #595959",
"h c #616161",
"k c #646464",
"n c #656565",
"p c #666666",
"...",
"#a.",
"bc.",
"def",
"gdh",
"ijk",
"lmn",
"omp",
"omp",
"omp",
"omp",
"omp",
"omp",
"omp",
"omp",
"omp",
"omp",
"omp",
"omp",
"omp"};
