/* XPM */
static char *dummy[]={
"3 20 18 1",
". c None",
"c c #1c1c1c",
"j c #1e1e1e",
"m c #1f1f1f",
"f c #202020",
"h c #232323",
"k c #242424",
"n c #252525",
"p c #262626",
"e c #2e2e2e",
"# c #4a4c4e",
"b c #4e4e4e",
"a c #4f4f4f",
"d c #595959",
"g c #616161",
"i c #646464",
"l c #656565",
"o c #666666",
"...",
".#a",
".bc",
"def",
"gfh",
"ijk",
"lmn",
"omp",
"omp",
"omp",
"omp",
"omp",
"omp",
"omp",
"omp",
"omp",
"omp",
"omp",
"omp",
"omp"};
