/* XPM */
static char * bottom_right_active_xpm[] = {
"16 16 5 1",
" 	c None",
".	c #313441",
"+	c #3C4355",
"@	c #4E5058",
"#	c #130F0D",
"           .++@#",
"           .++@#",
"           .++@#",
"           .++@#",
"           .++@#",
"           .++@#",
"           .++@#",
"           .++@#",
"           .++@#",
"           .++@#",
"           .++@#",
"............++@#",
"++++++++++++++@#",
"++++++++++++++@#",
"@@@@@@@@@@@@@@@#",
"################"};
