/* XPM */
static char * bottom_left_active_xpm[] = {
"16 16 5 1",
" 	c None",
".	c #130F0D",
"+	c #4E5058",
"@	c #3C4355",
"#	c #313441",
".+@@#           ",
".+@@#           ",
".+@@#           ",
".+@@#           ",
".+@@#           ",
".+@@#           ",
".+@@#           ",
".+@@#           ",
".+@@#           ",
".+@@#           ",
".+@@#           ",
".+@@############",
".+@@@@@@@@@@@@@@",
".+@@@@@@@@@@@@@@",
".+++++++++++++++",
"................"};
