/* XPM */
static char * close_active_xpm[] = {
"43 21 129 2",
"  	c None",
". 	c #16191E",
"+ 	c #1B1F26",
"@ 	c #1D2028",
"# 	c #1D2029",
"$ 	c #181B20",
"% 	c #0E0F10",
"& 	c #13151A",
"* 	c #545C73",
"= 	c #5A637B",
"- 	c #586179",
"; 	c #5A637C",
"> 	c #535C73",
", 	c #101115",
"' 	c #111317",
") 	c #3C4352",
"! 	c #1E1F23",
"~ 	c #19191C",
"{ 	c #191A1D",
"] 	c #3D4453",
"^ 	c #0C0D10",
"/ 	c #111316",
"( 	c #3A414F",
"_ 	c #161617",
": 	c #0F0F0F",
"< 	c #101010",
"[ 	c #0C0E10",
"} 	c #121317",
"| 	c #3D4352",
"1 	c #171819",
"2 	c #111111",
"3 	c #121212",
"4 	c #111112",
"5 	c #111113",
"6 	c #0D0F11",
"7 	c #121417",
"8 	c #3E4656",
"9 	c #17181A",
"0 	c #111110",
"a 	c #101013",
"b 	c #DADFE6",
"c 	c #3F4656",
"d 	c #0E1013",
"e 	c #131418",
"f 	c #414859",
"g 	c #0D0D15",
"h 	c #101014",
"i 	c #0F1114",
"j 	c #131519",
"k 	c #434A5C",
"l 	c #18181A",
"m 	c #0F0F14",
"n 	c #0B0B16",
"o 	c #141519",
"p 	c #444C5E",
"q 	c #171718",
"r 	c #0F0F0E",
"s 	c #111010",
"t 	c #100F10",
"u 	c #0E0D12",
"v 	c #0A0A15",
"w 	c #D9DEE5",
"x 	c #101215",
"y 	c #131419",
"z 	c #495163",
"A 	c #343945",
"B 	c #30353E",
"C 	c #303540",
"D 	c #2D313E",
"E 	c #252838",
"F 	c #F1F6FD",
"G 	c #485163",
"H 	c #0F1115",
"I 	c #121418",
"J 	c #4A5365",
"K 	c #414858",
"L 	c #3E4553",
"M 	c #3E4554",
"N 	c #383F4F",
"O 	c #FFFFFF",
"P 	c #4B5366",
"Q 	c #404757",
"R 	c #3D4452",
"S 	c #3B4251",
"T 	c #373E4F",
"U 	c #20243A",
"V 	c #101114",
"W 	c #4B5367",
"X 	c #262A3F",
"Y 	c #2D3245",
"Z 	c #4C5468",
"` 	c #424A5B",
" .	c #3F4756",
"..	c #3F4757",
"+.	c #394052",
"@.	c #2E3448",
"#.	c #272C41",
"$.	c #292E42",
"%.	c #333A4C",
"&.	c #3B4354",
"*.	c #424A5A",
"=.	c #4C5569",
"-.	c #4D5569",
";.	c #444C5D",
">.	c #414958",
",.	c #414959",
"'.	c #3B4254",
").	c #404858",
"!.	c #464E60",
"~.	c #0D0E10",
"{.	c #50596D",
"].	c #4A5265",
"^.	c #474F61",
"/.	c #474F62",
"(.	c #485164",
"_.	c #59637A",
":.	c #2C303B",
"<.	c #16181C",
"[.	c #0F0F12",
"}.	c #4A5165",
"|.	c #515A6F",
"1.	c #4F586D",
"2.	c #50586E",
"3.	c #4D556A",
"4.	c #2C303C",
"5.	c #080809",
"6.	c #0B0C0E",
"7.	c #0E0F12",
"8.	c #191B20",
". + @ @ @ @ @ @ @ @ @ @ @ @ @ @ @ @ @ @ @ @ @ @ @ @ @ @ @ @ @ @ @ @ @ @ @ @ @ @ # $ % ",
"& * = - - - - - - - - - - - - - - - - - - - - - - - - - - - - - - - - - - - - - ; > , ",
"' ) ! ~ { { { { { { { { { { { { { { { { { { { { { { { { { { { { { { { { { { { ~ ! ] ^ ",
"/ ( _ : < < < < < < < < < < < < < < < < < < < < < < < < < < < < < < < < < < < : _ ( [ ",
"} | 1 2 3 3 3 3 3 3 3 3 3 3 4 5 5 5 4 3 4 5 5 5 4 3 3 3 3 3 3 3 3 3 3 3 3 3 3 2 1 ] 6 ",
"7 8 9 0 3 3 3 3 3 3 3 3 3 3 a b b b a 4 a b b b a 3 3 3 3 3 3 3 3 3 3 3 3 3 3 0 9 c d ",
"e f 9 0 3 3 3 3 3 3 3 3 3 3 a g b b b h b b b g a 3 3 3 3 3 3 3 3 3 3 3 3 3 3 0 9 f i ",
"j k l 0 3 3 3 3 3 3 3 3 3 3 4 m n b b b b b n m 4 3 3 3 3 3 3 3 3 3 3 3 3 3 3 0 l k , ",
"o p q r s s s s s s s s s s s t u v w w w v u t s s s s s s s s s s s s s s s r q p x ",
"y z A B C C C C C C C C C C C C D E F F F E D C C C C C C C C C C C C C C C C B A G H ",
"I J K L M M M M M M M M M M M ) N O O O O O N ) M M M M M M M M M M M M M M M L K J , ",
"e P Q R ] ] ] ] ] ] ] ] ] ] S T O O O U O O O T S ] ] ] ] ] ] ] ] ] ] ] ] ] ] R Q P V ",
"e W K L M M M M M M M M M M N O O O X Y X O O O N M M M M M M M M M M M M M M L K W V ",
"e Z `  .....................+.@.#.$.%.&.%.$.#.@.+............................. .*.=., ",
"e -.;.>.,.,.,.,.,.,.,.,.,.,...'.+.'...,...'.+.'...,.,.,.,.,.,.,.,.,.,.,.,.,.,.).!.Z ~.",
"e {.].^././././././././././././././././././././././././././././././././././.^.(._.:.<.",
"[.}.|.1.1.1.1.1.1.1.1.1.1.1.1.1.1.1.1.1.1.1.1.1.1.1.1.1.1.1.1.1.1.1.1.1.1.1.2.3.4.5.  ",
"6.i x x x x x x x x x x x x x x x x x x x x x x x x x x x x x x x x x x x x x 7.8.    ",
"                                                                                      ",
"                                                                                      ",
"                                                                                      "};
