/* XPM */
static char * close_inactive_xpm[] = {
"43 21 56 1",
" 	c None",
".	c #16191E",
"+	c #1B1F26",
"@	c #1D2028",
"#	c #252525",
"$	c #0E0F10",
"%	c #13151A",
"&	c #555555",
"*	c #101115",
"=	c #111317",
"-	c #141414",
";	c #0C0D10",
">	c #111316",
",	c #0E0E0E",
"'	c #0C0E10",
")	c #121317",
"!	c #0F0F0F",
"~	c #0D0F11",
"{	c #121417",
"]	c #DADFE6",
"^	c #101013",
"/	c #111112",
"(	c #0E1013",
"_	c #131418",
":	c #101014",
"<	c #0F1114",
"[	c #131519",
"}	c #101010",
"|	c #141519",
"1	c #D9DEE5",
"2	c #101215",
"3	c #131419",
"4	c #191919",
"5	c #161616",
"6	c #F1F6FD",
"7	c #0F1115",
"8	c #121418",
"9	c #2E2E2E",
"0	c #242424",
"a	c #FFFFFF",
"b	c #2A2A2A",
"c	c #101114",
"d	c #323232",
"e	c #282828",
"f	c #343434",
"g	c #2B2B2B",
"h	c #0D0E10",
"i	c #383838",
"j	c #2F2F2F",
"k	c #16181C",
"l	c #0F0F12",
"m	c #444444",
"n	c #3B3B3B",
"o	c #080809",
"p	c #0B0C0E",
"q	c #191B20",
".+@#######################################$",
"%&&&&&&&&&&&&&&&&&&&&&&&&&&&&&&&&&&&&&&&&&*",
"=&---------------------------------------&;",
">&,,,,,,,,,,,,,,,,,,,,,,,,,,,,,,,,,,,,,,,&'",
")&!!!!!!!!!!!!!!!!!!!!!!!!!!!!!!!!!!!!!!!&~",
"{&!!!!!!!!!!!!!]]]^/^]]]!!!!!!!!!!!!!!!!!&(",
"_&!!!!!!!!!!!!!!]]]:]]]!!!!!!!!!!!!!!!!!!&<",
"[&}}}}}}}}}}}}}}}]]]]]}}}}}}}}}}}}}}}}}}}&*",
"|&}}}}}}}}}}}}}}}}111}}}}}}}}}}}}}}}}}}}}&2",
"3&455555555555555566655555555555555555555&7",
"8&900000000000000aaaaa0000000000000000009&*",
"_&90000000000000aaabaaa000000000000000009&c",
"_&deeeeeeeeeeeeaaabbbaaaeeeeeeeeeeeeeeeed&c",
"_&fbbbbbbbbbbbbbbbbbbbbbbbbbbbbbbbbbbbbbf&*",
"_&fgggggggggggggggggggggggggggggggggggggf&h",
"_&ijjjjjjjjjjjjjjjjjjjjjjjjjjjjjjjjjjjjj&ik",
"l&mnnnnnnnnnnnnnnnnnnnnnnnnnnnnnnnnnnnnnio ",
"p<22222222222222222222222222222222222222q  ",
"                                           ",
"                                           ",
"                                           "};
