/* XPM */
static char * close_pressed_xpm[] = {
"43 21 509 2",
"  	c None",
". 	c #352B1D",
"+ 	c #453A25",
"@ 	c #4B3F27",
"# 	c #4D4127",
"$ 	c #504227",
"% 	c #524427",
"& 	c #554627",
"* 	c #594927",
"= 	c #5C4B27",
"- 	c #5E4C27",
"; 	c #604E26",
"> 	c #624F27",
", 	c #635027",
"' 	c #645127",
") 	c #665326",
"! 	c #685426",
"~ 	c #695526",
"{ 	c #6A5627",
"] 	c #6C5727",
"^ 	c #6D5826",
"/ 	c #6E5826",
"( 	c #6F5927",
"_ 	c #6E5827",
": 	c #6D5827",
"< 	c #695527",
"[ 	c #685427",
"} 	c #665327",
"| 	c #614F27",
"1 	c #5F4E27",
"2 	c #4B3F28",
"3 	c #41361F",
"4 	c #161010",
"5 	c #3D1E19",
"6 	c #858482",
"7 	c #878684",
"8 	c #8A8985",
"9 	c #8D8B86",
"0 	c #8F8D86",
"a 	c #928F87",
"b 	c #959288",
"c 	c #989488",
"d 	c #9A9589",
"e 	c #9C9789",
"f 	c #9E988A",
"g 	c #A09A8A",
"h 	c #A19B8A",
"i 	c #A39C8B",
"j 	c #A59E8C",
"k 	c #A6A08C",
"l 	c #A8A18C",
"m 	c #A9A28C",
"n 	c #ABA38E",
"o 	c #ABA38D",
"p 	c #ABA38C",
"q 	c #AAA28C",
"r 	c #A9A18B",
"s 	c #A8A08B",
"t 	c #A69F8B",
"u 	c #A49D8B",
"v 	c #A09B89",
"w 	c #9F9A89",
"x 	c #9D9789",
"y 	c #9B9688",
"z 	c #999488",
"A 	c #979488",
"B 	c #949187",
"C 	c #918E86",
"D 	c #8E8C85",
"E 	c #8B8985",
"F 	c #888783",
"G 	c #868583",
"H 	c #848383",
"I 	c #311614",
"J 	c #3A2416",
"K 	c #886A5E",
"L 	c #8D3A10",
"M 	c #8A340C",
"N 	c #91360B",
"O 	c #98380A",
"P 	c #9F3A09",
"Q 	c #A73C08",
"R 	c #AF3D07",
"S 	c #B43E06",
"T 	c #B84006",
"U 	c #BD4105",
"V 	c #C24204",
"W 	c #C54304",
"X 	c #CA4403",
"Y 	c #CE4503",
"Z 	c #D24602",
"` 	c #D54602",
" .	c #D84701",
"..	c #DB4801",
"+.	c #DE4800",
"@.	c #E04900",
"#.	c #866B5F",
"$.	c #2D1B0F",
"%.	c #382415",
"&.	c #8A6B54",
"*.	c #82290A",
"=.	c #842006",
"-.	c #8C2206",
";.	c #932306",
">.	c #9A2405",
",.	c #A22505",
"'.	c #AA2704",
").	c #AF2704",
"!.	c #B42803",
"~.	c #B92903",
"{.	c #BE2902",
"].	c #C22A02",
"^.	c #C62B02",
"/.	c #CB2B01",
"(.	c #CF2C01",
"_.	c #D22C01",
":.	c #D52D01",
"<.	c #D82D00",
"[.	c #DB2E00",
"}.	c #DD2E00",
"|.	c #886C55",
"1.	c #392315",
"2.	c #8C7357",
"3.	c #84270B",
"4.	c #861C07",
"5.	c #8E1F07",
"6.	c #951F06",
"7.	c #9C2006",
"8.	c #A42105",
"9.	c #AC2204",
"0.	c #B12204",
"a.	c #B62304",
"b.	c #BB2303",
"c.	c #C02403",
"d.	c #C42402",
"e.	c #C12403",
"f.	c #C02304",
"g.	c #C42403",
"h.	c #C72403",
"i.	c #CF2502",
"j.	c #DA2700",
"k.	c #D52601",
"l.	c #D12502",
"m.	c #CC2502",
"n.	c #D42601",
"o.	c #D12601",
"p.	c #CD2502",
"q.	c #C82502",
"r.	c #8A7359",
"s.	c #2E1A10",
"t.	c #382315",
"u.	c #8F7B59",
"v.	c #85230C",
"w.	c #881607",
"x.	c #901807",
"y.	c #971806",
"z.	c #9E1906",
"A.	c #A61905",
"B.	c #AF1A04",
"C.	c #B41A04",
"D.	c #B81A04",
"E.	c #BD1A03",
"F.	c #C21A03",
"G.	c #C61B02",
"H.	c #B91905",
"I.	c #DADFE6",
"J.	c #C61904",
"K.	c #D51B01",
"L.	c #CC1903",
"M.	c #D71B01",
"N.	c #D31B01",
"O.	c #CF1B02",
"P.	c #CB1B02",
"Q.	c #8D7A5A",
"R.	c #301B11",
"S.	c #3A2115",
"T.	c #92835B",
"U.	c #86200C",
"V.	c #8A1007",
"W.	c #911307",
"X.	c #981306",
"Y.	c #A01306",
"Z.	c #A81305",
"`.	c #B01404",
" +	c #B51404",
".+	c #BA1404",
"++	c #BF1403",
"@+	c #C41403",
"#+	c #C81402",
"$+	c #BA1205",
"%+	c #990F09",
"&+	c #C41204",
"*+	c #A40F08",
"=+	c #C71204",
"-+	c #D81401",
";+	c #D51401",
">+	c #D11402",
",+	c #CD1402",
"'+	c #90815D",
")+	c #321812",
"!+	c #96895C",
"~+	c #871E0C",
"{+	c #8C0C07",
"]+	c #911007",
"^+	c #990F06",
"/+	c #A00F06",
"(+	c #A90F05",
"_+	c #B10F04",
":+	c #B60F04",
"<+	c #BB0F04",
"[+	c #C00F03",
"}+	c #C50F03",
"|+	c #C90F02",
"1+	c #C80E03",
"2+	c #AA0B07",
"3+	c #84090C",
"4+	c #8C090B",
"5+	c #B60B05",
"6+	c #D60E02",
"7+	c #D90E01",
"8+	c #D60E01",
"9+	c #D20E02",
"0+	c #CE0E02",
"a+	c #94895E",
"b+	c #331712",
"c+	c #402014",
"d+	c #9A9578",
"e+	c #871B0B",
"f+	c #8B0606",
"g+	c #930906",
"h+	c #9A0906",
"i+	c #A20905",
"j+	c #AA0805",
"k+	c #B30804",
"l+	c #B80704",
"m+	c #BD0703",
"n+	c #C20703",
"o+	c #C70702",
"p+	c #CB0602",
"q+	c #D00602",
"r+	c #CE0602",
"s+	c #B00506",
"t+	c #87040C",
"u+	c #D9DEE5",
"v+	c #8F030B",
"w+	c #BA0405",
"x+	c #DC0501",
"y+	c #E00501",
"z+	c #DC0601",
"A+	c #D90601",
"B+	c #D50601",
"C+	c #979378",
"D+	c #341511",
"E+	c #542C13",
"F+	c #9F9F9E",
"G+	c #A34F42",
"H+	c #A7402E",
"I+	c #AD4330",
"J+	c #B4442F",
"K+	c #BC452E",
"L+	c #C4452D",
"M+	c #CC462C",
"N+	c #D1472C",
"O+	c #D6472B",
"P+	c #DA482B",
"Q+	c #DF482A",
"R+	c #E34929",
"S+	c #E84929",
"T+	c #EC4A28",
"U+	c #E04527",
"V+	c #BA3925",
"W+	c #F1F6FD",
"X+	c #C23A24",
"Y+	c #EC4725",
"Z+	c #FA4B27",
"`+	c #F74B27",
" @	c #F44B27",
".@	c #F04A28",
"+@	c #9C9C9B",
"@@	c #3D2111",
"#@	c #563612",
"$@	c #A3A3A3",
"%@	c #A96D5F",
"&@	c #AD614E",
"*@	c #B36551",
"=@	c #B96751",
"-@	c #C06951",
";@	c #C86B50",
">@	c #CF6D50",
",@	c #D46E50",
"'@	c #D86F50",
")@	c #DD7150",
"!@	c #E17250",
"~@	c #E57350",
"{@	c #EA7450",
"]@	c #E6714D",
"^@	c #DB6B4B",
"/@	c #FFFFFF",
"(@	c #E66E4B",
"_@	c #F1754D",
":@	c #F7784F",
"<@	c #F4774F",
"[@	c #F1764F",
"}@	c #EE754F",
"|@	c #A0A0A0",
"1@	c #402810",
"2@	c #573311",
"3@	c #A8A8A8",
"4@	c #A86D5C",
"5@	c #AC624B",
"6@	c #B2664E",
"7@	c #B9684E",
"8@	c #C06A4E",
"9@	c #C76C4D",
"0@	c #CF6E4D",
"a@	c #D46F4D",
"b@	c #D8714D",
"c@	c #DD724C",
"d@	c #E1734C",
"e@	c #E5754C",
"f@	c #E2724A",
"g@	c #D96C48",
"h@	c #834135",
"i@	c #E37047",
"j@	c #EE7649",
"k@	c #F4794B",
"l@	c #F1784C",
"m@	c #EE774C",
"n@	c #EA764C",
"o@	c #A5A5A5",
"p@	c #41260F",
"q@	c #593210",
"r@	c #ADACAC",
"s@	c #A9715C",
"t@	c #AD664B",
"u@	c #B3694E",
"v@	c #B96B4E",
"w@	c #C06D4D",
"x@	c #C8704D",
"y@	c #CF724C",
"z@	c #D4744C",
"A@	c #D8754C",
"B@	c #DD764C",
"C@	c #E1784C",
"D@	c #E5794B",
"E@	c #D56F47",
"F@	c #984E39",
"G@	c #B45C3D",
"H@	c #9C4F39",
"I@	c #E17446",
"J@	c #F47E4B",
"K@	c #F17D4B",
"L@	c #EE7C4B",
"M@	c #EA7A4B",
"N@	c #ABAAAA",
"O@	c #42260E",
"P@	c #5A2F0F",
"Q@	c #B1B1B1",
"R@	c #A9795C",
"S@	c #AD6E4A",
"T@	c #B3724D",
"U@	c #BA754C",
"V@	c #C1784C",
"W@	c #C87A4B",
"X@	c #D07D4A",
"Y@	c #D47F4A",
"Z@	c #D98149",
"`@	c #DD8249",
" #	c #E28449",
".#	c #E58548",
"+#	c #D47A44",
"@#	c #AF643D",
"##	c #945537",
"$#	c #9D5938",
"%#	c #C9723F",
"&#	c #EA8444",
"*#	c #CD733E",
"=#	c #A45C37",
"-#	c #9C5736",
";#	c #B7673B",
">#	c #E07F43",
",#	c #F48B47",
"'#	c #F18A47",
")#	c #EE8948",
"!#	c #EA8748",
"~#	c #A9785B",
"{#	c #AFAFAE",
"]#	c #44240D",
"^#	c #5B2E0F",
"/#	c #B5B5B4",
"(#	c #AA855C",
"_#	c #AE7B49",
":#	c #B47F4C",
"<#	c #BA834B",
"[#	c #C1864A",
"}#	c #C98949",
"|#	c #D08D48",
"1#	c #D58F48",
"2#	c #D99147",
"3#	c #DD9347",
"4#	c #E29546",
"5#	c #E69746",
"6#	c #E39444",
"7#	c #D88C42",
"8#	c #D48940",
"9#	c #DE8F41",
"0#	c #F09A43",
"a#	c #FBA144",
"b#	c #F59D42",
"c#	c #E79440",
"d#	c #DD8E3F",
"e#	c #E39241",
"f#	c #F59E44",
"g#	c #F29D45",
"h#	c #EE9B45",
"i#	c #EA9945",
"j#	c #AD7847",
"k#	c #AB8E65",
"l#	c #B3B2AE",
"m#	c #351A0A",
"n#	c #592B0E",
"o#	c #B8B8B7",
"p#	c #AD9C6F",
"q#	c #B0955E",
"r#	c #B69A61",
"s#	c #BD9F61",
"t#	c #C3A361",
"u#	c #CAA861",
"v#	c #D2AD61",
"w#	c #D6B061",
"x#	c #DAB361",
"y#	c #DFB661",
"z#	c #E3B961",
"A#	c #E6BB61",
"B#	c #EBBE61",
"C#	c #EEC161",
"D#	c #F2C361",
"E#	c #F5C561",
"F#	c #F8C761",
"G#	c #FBC961",
"H#	c #FDCB61",
"I#	c #FFCC61",
"J#	c #B6995F",
"K#	c #B19D67",
"L#	c #BAB9B8",
"M#	c #B86B4B",
"N#	c #2E1811",
"O#	c #481A0A",
"P#	c #BBB9B5",
"Q#	c #BFBFBE",
"R#	c #C3C2C1",
"S#	c #C8C7C5",
"T#	c #CDCBC9",
"U#	c #D2D0CE",
"V#	c #D7D5D3",
"W#	c #DDDAD8",
"X#	c #DEDDDA",
"Y#	c #E2E0DD",
"Z#	c #E4E2DF",
"`#	c #E7E5E1",
" $	c #E9E8E4",
".$	c #EBE9E6",
"+$	c #EDEBE8",
"@$	c #EFEDEA",
"#$	c #F0EFEC",
"$$	c #F2F0ED",
"%$	c #F3F2EE",
"&$	c #F4F3F0",
"*$	c #F5F4F1",
"=$	c #F3F2F0",
"-$	c #EFEEEB",
";$	c #EEECE9",
">$	c #ECEAE7",
",$	c #EAE9E6",
"'$	c #E9E7E3",
")$	c #E6E5E0",
"!$	c #E0DFDB",
"~$	c #DDDCD9",
"{$	c #DBD9D6",
"]$	c #D6D4D1",
"^$	c #D1D0CD",
"/$	c #CCCBC9",
"($	c #C6C6C4",
"_$	c #C3C2B4",
":$	c #BF6C48",
"<$	c #330B05",
"[$	c #330F08",
"}$	c #3D1B0B",
"|$	c #441D0B",
"1$	c #461E0A",
"2$	c #481E09",
"3$	c #4A1E09",
"4$	c #4B1E08",
"5$	c #4D1E07",
"6$	c #4E1F06",
"7$	c #4F1F06",
"8$	c #501F05",
"9$	c #511F05",
"0$	c #511E05",
"a$	c #521E04",
"b$	c #521E03",
"c$	c #521D02",
"d$	c #531D02",
"e$	c #501F06",
"f$	c #4F1F07",
"g$	c #4E1F07",
"h$	c #4D1F08",
"i$	c #3B1609",
"j$	c #361911",
". + @ # $ % & * = - ; > , ' ) ! ~ { ] ^ / ( _ : ] { < [ } ' , | 1 - = * & % $ # 2 3 4 ",
"5 6 7 8 9 0 a b c d e f g h i j k l m n o p q q r s t u i v w x y z A B C D E F G H I ",
"J K L M N O P Q R S T U V W X Y Z `  ...+.@.+... .` Z Y X W V U T S R Q P O N M L #.$.",
"%.&.*.=.-.;.>.,.'.).!.~.{.].^./.(._.:.<.[.}.[.<.:._.(./.^.].{.~.!.).'.,.>.;.-.=.*.|.$.",
"1.2.3.4.5.6.7.8.9.0.a.b.c.d.e.f.g.h.i.j.k.l.i.m.i.n.o.p.q.d.c.b.a.0.9.8.7.6.5.4.3.r.s.",
"t.u.v.w.x.y.z.A.B.C.D.E.F.G.H.I.I.I.J.K.L.I.I.I.J.M.N.O.P.G.F.E.D.C.B.A.z.y.x.w.v.Q.R.",
"S.T.U.V.W.X.Y.Z.`. +.+++@+#+$+%+I.I.I.&+I.I.I.*+=+-+;+>+,+#+@+++.+ +`.Z.Y.X.W.V.U.'+)+",
"S.!+~+{+]+^+/+(+_+:+<+[+}+|+1+2+3+I.I.I.I.I.4+5+6+7+8+9+0+|+}+[+<+:+_+(+/+^+]+{+~+a+b+",
"c+d+e+f+g+h+i+j+k+l+m+n+o+p+q+r+s+t+u+u+u+v+w+x+y+z+A+B+q+p+o+n+m+l+k+j+i+h+g+f+e+C+D+",
"E+F+G+H+I+J+K+L+M+N+O+P+Q+R+S+T+U+V+W+W+W+X+Y+Z+`+ @.@T+S+R+Q+P+O+N+M+L+K+J+I+H+G++@@@",
"#@$@%@&@*@=@-@;@>@,@'@)@!@~@{@]@^@/@/@/@/@/@(@_@:@<@[@}@{@~@!@)@'@,@>@;@-@=@*@&@%@|@1@",
"2@3@4@5@6@7@8@9@0@a@b@c@d@e@f@g@/@/@/@h@/@/@/@i@j@k@l@m@n@e@d@c@b@a@0@9@8@7@6@5@4@o@p@",
"q@r@s@t@u@v@w@x@y@z@A@B@C@D@E@/@/@/@F@G@H@/@/@/@I@J@K@L@M@D@C@B@A@z@y@x@w@v@u@t@s@N@O@",
"P@Q@R@S@T@U@V@W@X@Y@Z@`@ #.#+#@###$#%#&#*#=#-#;#>#,#'#)#!#.# #`@Z@Y@X@W@V@U@T@S@~#{#]#",
"^#/#(#_#:#<#[#}#|#1#2#3#4#5#6#7#8#9#0#a#b#c#d#e#0#f#g#h#i#5#4#3#2#1#|#}#[#<#:#j#k#l#m#",
"n#o#p#q#r#s#t#u#v#w#x#y#z#A#B#C#D#E#F#G#H#I#H#G#F#E#D#C#B#A#z#y#x#w#v#u#t#s#J#K#L#M#N#",
"O#P#Q#R#S#T#U#V#W#X#Y#Z#`# $.$+$@$#$$$%$&$*$=$%$$$-$;$>$,$'$)$Z#!$~${$]$^$/$($_$:$<$  ",
"[$}$|$1$2$3$4$5$6$7$7$8$9$0$a$a$b$b$b$c$c$d$c$c$b$b$b$a$a$0$9$e$7$f$g$h$4$3$2$i$j$    ",
"                                                                                      ",
"                                                                                      ",
"                                                                                      "};
