/* XPM */
static char * hide_inactive_xpm[] = {
"26 21 34 1",
" 	c None",
".	c #0E0F10",
"+	c #181B20",
"@	c #252525",
"#	c #1B1F26",
"$	c #101115",
"%	c #555555",
"&	c #0C0D10",
"*	c #0E0E0E",
"=	c #0C0E10",
"-	c #0D0F11",
";	c #0F0F0F",
">	c #0E1013",
",	c #0F1114",
"'	c #101010",
")	c #101215",
"!	c #0F1115",
"~	c #161616",
"{	c #242424",
"]	c #232323",
"^	c #FFFFFF",
"/	c #101114",
"(	c #282828",
"_	c #272727",
":	c #2A2A2A",
"<	c #292929",
"[	c #0D0E10",
"}	c #2B2B2B",
"|	c #323232",
"1	c #2E2E2E",
"2	c #2F2F2F",
"3	c #080809",
"4	c #0E0F12",
"5	c #0B0C0E",
".+@@@@@@@@@@@@@@@@@@@@@@#.",
"$%%%%%%%%%%%%%%%%%%%%%%%%.",
"&%**********************%$",
"=%**********************%&",
"-%;;;;;;;;;;;;;;;;;;;;;;%=",
">%;;;;;;;;;;;;;;;;;;;;;;%-",
",%;;;;;;;;;;;;;;;;;;;;;;%>",
"$%''''''''''''''''''''''%,",
")%''''''''''''''''''''''%$",
"!%~~~~~~~~~~~~~~~~~~~~~~%)",
"$%{{{]^^^^^^^^^^]{{{{{{{%!",
"/%{{{]^^^^^^^^^^]{{{{{{{%$",
"/%{((_^^^^^^^^^^_(((((((%/",
"$%{::<<<<<<<<<<<(:::::::%/",
"[%{}}}}}}}}}}}}}}}}}}}}}%$",
"(|1222222222222222222222%[",
" 3(|||||||||||||||||||||%4",
"  (4)))))))))))))))))))),5",
"                          ",
"                          ",
"                          "};
