/* XPM */
static char * hide_active_xpm[] = {
"26 21 111 2",
"  	c None",
". 	c #0E0F10",
"+ 	c #181B20",
"@ 	c #1D2029",
"# 	c #1D2028",
"$ 	c #1B1F26",
"% 	c #16191E",
"& 	c #101115",
"* 	c #535C73",
"= 	c #5A637C",
"- 	c #586179",
"; 	c #5A637B",
"> 	c #545C73",
", 	c #13151A",
"' 	c #0C0D10",
") 	c #3D4453",
"! 	c #1E1F23",
"~ 	c #19191C",
"{ 	c #191A1D",
"] 	c #3C4352",
"^ 	c #111317",
"/ 	c #0C0E10",
"( 	c #3A414F",
"_ 	c #161617",
": 	c #0F0F0F",
"< 	c #101010",
"[ 	c #111316",
"} 	c #0D0F11",
"| 	c #171819",
"1 	c #111111",
"2 	c #121212",
"3 	c #3D4352",
"4 	c #121317",
"5 	c #0E1013",
"6 	c #3F4656",
"7 	c #17181A",
"8 	c #111110",
"9 	c #3E4656",
"0 	c #121417",
"a 	c #0F1114",
"b 	c #414859",
"c 	c #131418",
"d 	c #434A5C",
"e 	c #18181A",
"f 	c #131519",
"g 	c #101215",
"h 	c #444C5E",
"i 	c #171718",
"j 	c #0F0F0E",
"k 	c #111010",
"l 	c #141519",
"m 	c #0F1115",
"n 	c #485163",
"o 	c #343945",
"p 	c #30353E",
"q 	c #303540",
"r 	c #2E333F",
"s 	c #2D323E",
"t 	c #495163",
"u 	c #131419",
"v 	c #4A5365",
"w 	c #414858",
"x 	c #3E4553",
"y 	c #3E4554",
"z 	c #383F4F",
"A 	c #FFFFFF",
"B 	c #121418",
"C 	c #101114",
"D 	c #4B5366",
"E 	c #404757",
"F 	c #3D4452",
"G 	c #343A4B",
"H 	c #4B5367",
"I 	c #33394A",
"J 	c #4C5569",
"K 	c #424A5A",
"L 	c #3F4756",
"M 	c #3F4757",
"N 	c #373E50",
"O 	c #2A3044",
"P 	c #25293F",
"Q 	c #424A5B",
"R 	c #4C5468",
"S 	c #0D0E10",
"T 	c #464E60",
"U 	c #404858",
"V 	c #414959",
"W 	c #3B4254",
"X 	c #394052",
"Y 	c #414958",
"Z 	c #444C5D",
"` 	c #4D5569",
" .	c #16171C",
"..	c #2C303B",
"+.	c #59637A",
"@.	c #485164",
"#.	c #474F61",
"$.	c #474F62",
"%.	c #4A5265",
"&.	c #50596D",
"*.	c #080809",
"=.	c #2C303C",
"-.	c #4D556A",
";.	c #50586E",
">.	c #4F586D",
",.	c #515A6F",
"'.	c #4A5165",
").	c #0F0F12",
"!.	c #191B20",
"~.	c #0E0F12",
"{.	c #0B0C0E",
". + @ # # # # # # # # # # # # # # # # # # # # # $ % ",
"& * = - - - - - - - - - - - - - - - - - - - - ; > , ",
"' ) ! ~ { { { { { { { { { { { { { { { { { { ~ ! ] ^ ",
"/ ( _ : < < < < < < < < < < < < < < < < < < : _ ( [ ",
"} ) | 1 2 2 2 2 2 2 2 2 2 2 2 2 2 2 2 2 2 2 1 | 3 4 ",
"5 6 7 8 2 2 2 2 2 2 2 2 2 2 2 2 2 2 2 2 2 2 8 7 9 0 ",
"a b 7 8 2 2 2 2 2 2 2 2 2 2 2 2 2 2 2 2 2 2 8 7 b c ",
"& d e 8 2 2 2 2 2 2 2 2 2 2 2 2 2 2 2 2 2 2 8 e d f ",
"g h i j k k k k k k k k k k k k k k k k k k j i h l ",
"m n o p q r s s s s s s s s s s r q q q q q p o t u ",
"& v w x y z A A A A A A A A A A z y y y y y x w v B ",
"C D E F ) G A A A A A A A A A A G ) ) ) ) ) F E D c ",
"C H w x y I A A A A A A A A A A I y y y y y x w H c ",
"& J K L M N O P P P P P P P P O N M M M M M L Q R c ",
"S R T U V M W X X X X X X X X W M V V V V V Y Z ` c ",
" ...+.@.#.$.$.$.$.$.$.$.$.$.$.$.$.$.$.$.$.$.#.%.&.c ",
"  *.=.-.;.>.>.>.>.>.>.>.>.>.>.>.>.>.>.>.>.>.>.,.'.).",
"    !.~.g g g g g g g g g g g g g g g g g g g g a {.",
"                                                    ",
"                                                    ",
"                                                    "};
