/* XPM */
static char * hide_pressed_xpm[] = {
"26 21 332 2",
"  	c None",
". 	c #0E1319",
"+ 	c #1C3F47",
"@ 	c #224A53",
"# 	c #234D56",
"$ 	c #24515A",
"% 	c #24555E",
"& 	c #255761",
"* 	c #255963",
"= 	c #265C66",
"- 	c #265E68",
"; 	c #26606A",
"> 	c #27626C",
", 	c #27646E",
"' 	c #27656F",
") 	c #1F4751",
"! 	c #16191E",
"~ 	c #13223C",
"{ 	c #858785",
"] 	c #8B8985",
"^ 	c #8F8D87",
"/ 	c #959189",
"( 	c #99958A",
"_ 	c #9C978A",
": 	c #A09A8B",
"< 	c #A29C8C",
"[ 	c #A59E8C",
"} 	c #A7A18D",
"| 	c #AAA28E",
"1 	c #ABA48E",
"2 	c #ADA58F",
"3 	c #ACA58F",
"4 	c #A7A08D",
"5 	c #9D978A",
"6 	c #959188",
"7 	c #8E8C87",
"8 	c #888A88",
"9 	c #13151A",
"0 	c #0E2739",
"a 	c #5F7C88",
"b 	c #2D6CA3",
"c 	c #266BAB",
"d 	c #2875BA",
"e 	c #2A7DC7",
"f 	c #2A82D0",
"g 	c #2B87D9",
"h 	c #2C8CE1",
"i 	c #2D90E8",
"j 	c #2D94EF",
"k 	c #2E97F5",
"l 	c #2F9AFB",
"m 	c #2F9DFF",
"n 	c #2873BA",
"o 	c #2E73AE",
"p 	c #60808E",
"q 	c #111317",
"r 	c #0C2839",
"s 	c #567E8C",
"t 	c #175B9E",
"u 	c #0D57A7",
"v 	c #0E5EB6",
"w 	c #0E65C4",
"x 	c #0E6ACD",
"y 	c #0E6ED7",
"z 	c #0D72DF",
"A 	c #0D75E7",
"B 	c #0D79EE",
"C 	c #0D7CF5",
"D 	c #0D7FFA",
"E 	c #0D81FF",
"F 	c #0D5EB6",
"G 	c #1761A9",
"H 	c #588190",
"I 	c #111316",
"J 	c #0C273B",
"K 	c #5A838D",
"L 	c #185A9E",
"M 	c #1053A7",
"N 	c #115CB7",
"O 	c #1062C4",
"P 	c #1066CE",
"Q 	c #106AD7",
"R 	c #106EDF",
"S 	c #1071E7",
"T 	c #1075EE",
"U 	c #1077F5",
"V 	c #107AFA",
"W 	c #107CFF",
"X 	c #105AB6",
"Y 	c #185FAA",
"Z 	c #5A8993",
"` 	c #121317",
" .	c #0D283D",
"..	c #5B8C8F",
"+.	c #18579F",
"@.	c #104EA7",
"#.	c #1157B7",
"$.	c #105DC4",
"%.	c #1060CE",
"&.	c #1064D7",
"*.	c #1068DF",
"=.	c #106BE7",
"-.	c #106EEE",
";.	c #1071F5",
">.	c #1073FA",
",.	c #1075FF",
"'.	c #1054B6",
").	c #185DAB",
"!.	c #5B8F95",
"~.	c #121417",
"{.	c #0D273F",
"].	c #5C9393",
"^.	c #18549F",
"/.	c #104AA7",
"(.	c #1151B7",
"_.	c #1057C4",
":.	c #105ACE",
"<.	c #105ED7",
"[.	c #1061DF",
"}.	c #1064E7",
"|.	c #1067EE",
"1.	c #1069F5",
"2.	c #106BFA",
"3.	c #106DFF",
"4.	c #104FB6",
"5.	c #1859AB",
"6.	c #5E9798",
"7.	c #131418",
"8.	c #0D2741",
"9.	c #5D9897",
"0.	c #19519F",
"a.	c #0E47A7",
"b.	c #114FB7",
"c.	c #1054C4",
"d.	c #1058CE",
"e.	c #105BD7",
"f.	c #105EDF",
"g.	c #1061E7",
"h.	c #1064EE",
"i.	c #1066F5",
"j.	c #1068FA",
"k.	c #106AFF",
"l.	c #0E4CB6",
"m.	c #1957AB",
"n.	c #5F9E9C",
"o.	c #131519",
"p.	c #112642",
"q.	c #7D9C9B",
"r.	c #1C4E9E",
"s.	c #0B42A6",
"t.	c #0E49B6",
"u.	c #0D4EC4",
"v.	c #0D51CD",
"w.	c #0D54D7",
"x.	c #0D57DF",
"y.	c #0D5AE7",
"z.	c #0C5CEE",
"A.	c #0C5EF5",
"B.	c #0C60FA",
"C.	c #0C62FF",
"D.	c #0B47B5",
"E.	c #1C53AA",
"F.	c #7FA2A0",
"G.	c #141519",
"H.	c #173044",
"I.	c #A1A19F",
"J.	c #5479B1",
"K.	c #4572B8",
"L.	c #4A7AC5",
"M.	c #4A7BCA",
"N.	c #497BCC",
"O.	c #4B7FD3",
"P.	c #4C82DA",
"Q.	c #4D85DF",
"R.	c #4E88E5",
"S.	c #4F8BEA",
"T.	c #508DED",
"U.	c #518EF1",
"V.	c #508CEA",
"W.	c #528EEC",
"X.	c #518BE6",
"Y.	c #5087DF",
"Z.	c #4E83D7",
"`.	c #4D80D0",
" +	c #4878C4",
".+	c #577FBA",
"++	c #A7A7A4",
"@+	c #131419",
"#+	c #183446",
"$+	c #A5A4A3",
"%+	c #6B8EB9",
"&+	c #5F8AC0",
"*+	c #6593CB",
"=+	c #5F8BC5",
"-+	c #FFFFFF",
";+	c #689DE0",
">+	c #70AAEE",
",+	c #6FA6E8",
"'+	c #6DA2E2",
")+	c #6A9EDB",
"!+	c #6899D5",
"~+	c #6291CA",
"{+	c #6E94C1",
"]+	c #ACACA9",
"^+	c #121418",
"/+	c #173447",
"(+	c #AAA9A8",
"_+	c #6990B9",
":+	c #5D8BBF",
"<+	c #6295CA",
"[+	c #5784B9",
"}+	c #5E96D3",
"|+	c #6DACED",
"1+	c #6CA9E8",
"2+	c #6AA4E2",
"3+	c #68A0DB",
"4+	c #669BD5",
"5+	c #6092CA",
"6+	c #6C97C1",
"7+	c #B1B1AE",
"8+	c #173448",
"9+	c #AEAEAD",
"0+	c #6993B9",
"a+	c #5D90C0",
"b+	c #6398CB",
"c+	c #5482B4",
"d+	c #5B94CC",
"e+	c #6EB1EE",
"f+	c #6CADE8",
"g+	c #6AA9E2",
"h+	c #68A4DB",
"i+	c #669FD5",
"j+	c #6097CA",
"k+	c #6D99C1",
"l+	c #B6B5B3",
"m+	c #18354B",
"n+	c #B2B2B1",
"o+	c #699ABA",
"p+	c #5F98C1",
"q+	c #64A1CC",
"r+	c #5B94BE",
"s+	c #47759D",
"t+	c #3F6991",
"u+	c #406C94",
"v+	c #416E97",
"w+	c #42709A",
"x+	c #43729D",
"y+	c #44749F",
"z+	c #4475A1",
"A+	c #4E84B0",
"B+	c #63A8D9",
"C+	c #6FBCEE",
"D+	c #6EB8E9",
"E+	c #6CB3E3",
"F+	c #6AAEDC",
"G+	c #68A9D5",
"H+	c #62A1CB",
"I+	c #6EA2C3",
"J+	c #BAB9B7",
"K+	c #0A2A44",
"L+	c #B3B6B5",
"M+	c #70ABBC",
"N+	c #5AA0C1",
"O+	c #62ACCC",
"P+	c #62AFD0",
"Q+	c #5DA8CA",
"R+	c #5CA8CB",
"S+	c #5EACD0",
"T+	c #5EB0D4",
"U+	c #60B4D9",
"V+	c #61B8DD",
"W+	c #62BAE0",
"X+	c #63BDE3",
"Y+	c #65BEE4",
"Z+	c #6BC8EC",
"`+	c #6CC9EE",
" @	c #6BC5E9",
".@	c #69C0E3",
"+@	c #67BADC",
"@@	c #65B5D6",
"#@	c #60ACCC",
"$@	c #6CABC3",
"%@	c #BEBDBB",
"&@	c #0D2541",
"*@	c #758799",
"=@	c #C0BFBE",
"-@	c #74BCC6",
";@	c #72C1CF",
">@	c #76CBD8",
",@	c #79D2DE",
"'@	c #7BD8E5",
")@	c #7EDEEA",
"!@	c #80E3EF",
"~@	c #82E8F4",
"{@	c #83EDF8",
"]@	c #85F1FC",
"^@	c #86F4FF",
"/@	c #70C1CF",
"(@	c #7BBFC6",
"_@	c #C1C0BF",
":@	c #051E40",
"<@	c #7B8DA0",
"[@	c #C2CBC9",
"}@	c #D5D4D0",
"|@	c #DDDAD7",
"1@	c #E1DFDC",
"2@	c #E5E4E0",
"3@	c #EAE8E4",
"4@	c #ECEAE6",
"5@	c #EFEDEA",
"6@	c #F1F0ED",
"7@	c #F3F2F0",
"8@	c #F5F4F2",
"9@	c #ECEBE7",
"0@	c #E5E3E0",
"a@	c #E0DFDB",
"b@	c #DCDAD7",
"c@	c #CCCBC9",
"d@	c #C0C4C2",
"e@	c #0F0F12",
"f@	c #0B2748",
"g@	c #072D4E",
"h@	c #153658",
"i@	c #14385A",
"j@	c #14385C",
"k@	c #14385D",
"l@	c #14395E",
"m@	c #13395F",
"n@	c #12395F",
"o@	c #143555",
"p@	c #103151",
"q@	c #0B0C0E",
". + @ # $ % & * = - ; > , ' , > ; - = * & % $ # ) ! ",
"~ { ] ^ / ( _ : < [ } | 1 2 3 | 4 [ < : 5 ( 6 7 8 9 ",
"0 a b c d e f g h i j k l m l k j i h g f e n o p q ",
"r s t u v w x y z A B C D E D C B A z y x w F G H I ",
"J K L M N O P Q R S T U V W V U T S R Q P O X Y Z ` ",
" ...+.@.#.$.%.&.*.=.-.;.>.,.>.;.-.=.*.&.%.$.'.).!.~.",
"{.].^./.(._.:.<.[.}.|.1.2.3.2.1.|.}.[.<.:._.4.5.6.7.",
"8.9.0.a.b.c.d.e.f.g.h.i.j.k.j.i.h.g.f.e.d.c.l.m.n.o.",
"p.q.r.s.t.u.v.w.x.y.z.A.B.C.B.A.z.y.x.w.v.u.D.E.F.G.",
"H.I.J.K.L.M.N.O.P.Q.R.S.T.U.T.S.V.W.X.Y.Z.`. +.+++@+",
"#+$+%+&+*+=+-+-+-+-+-+-+-+-+-+-+;+>+,+'+)+!+~+{+]+^+",
"/+(+_+:+<+[+-+-+-+-+-+-+-+-+-+-+}+|+1+2+3+4+5+6+7+7.",
"8+9+0+a+b+c+-+-+-+-+-+-+-+-+-+-+d+e+f+g+h+i+j+k+l+7.",
"m+n+o+p+q+r+s+t+u+v+w+x+y+z+y+A+B+C+D+E+F+G+H+I+J+7.",
"K+L+M+N+O+P+Q+R+S+T+U+V+W+X+W+Y+Z+`+ @.@+@@@#@$@%@7.",
"&@*@=@-@;@>@,@'@)@!@~@{@]@^@]@{@~@!@)@'@,@>@/@(@_@7.",
"  :@<@[@}@|@1@2@3@4@5@6@7@8@7@6@5@9@3@0@a@b@}@c@d@e@",
"    f@g@h@i@j@k@l@m@m@m@n@n@n@m@m@m@l@k@j@i@h@o@p@q@",
"                                                    ",
"                                                    ",
"                                                    "};
