/* XPM */
static char * left_active_xpm[] = {
"5 800 4 1",
" 	c #130F0D",
".	c #4E5058",
"+	c #3C4355",
"@	c #313441",
" .++@",
" .++@",
" .++@",
" .++@",
" .++@",
" .++@",
" .++@",
" .++@",
" .++@",
" .++@",
" .++@",
" .++@",
" .++@",
" .++@",
" .++@",
" .++@",
" .++@",
" .++@",
" .++@",
" .++@",
" .++@",
" .++@",
" .++@",
" .++@",
" .++@",
" .++@",
" .++@",
" .++@",
" .++@",
" .++@",
" .++@",
" .++@",
" .++@",
" .++@",
" .++@",
" .++@",
" .++@",
" .++@",
" .++@",
" .++@",
" .++@",
" .++@",
" .++@",
" .++@",
" .++@",
" .++@",
" .++@",
" .++@",
" .++@",
" .++@",
" .++@",
" .++@",
" .++@",
" .++@",
" .++@",
" .++@",
" .++@",
" .++@",
" .++@",
" .++@",
" .++@",
" .++@",
" .++@",
" .++@",
" .++@",
" .++@",
" .++@",
" .++@",
" .++@",
" .++@",
" .++@",
" .++@",
" .++@",
" .++@",
" .++@",
" .++@",
" .++@",
" .++@",
" .++@",
" .++@",
" .++@",
" .++@",
" .++@",
" .++@",
" .++@",
" .++@",
" .++@",
" .++@",
" .++@",
" .++@",
" .++@",
" .++@",
" .++@",
" .++@",
" .++@",
" .++@",
" .++@",
" .++@",
" .++@",
" .++@",
" .++@",
" .++@",
" .++@",
" .++@",
" .++@",
" .++@",
" .++@",
" .++@",
" .++@",
" .++@",
" .++@",
" .++@",
" .++@",
" .++@",
" .++@",
" .++@",
" .++@",
" .++@",
" .++@",
" .++@",
" .++@",
" .++@",
" .++@",
" .++@",
" .++@",
" .++@",
" .++@",
" .++@",
" .++@",
" .++@",
" .++@",
" .++@",
" .++@",
" .++@",
" .++@",
" .++@",
" .++@",
" .++@",
" .++@",
" .++@",
" .++@",
" .++@",
" .++@",
" .++@",
" .++@",
" .++@",
" .++@",
" .++@",
" .++@",
" .++@",
" .++@",
" .++@",
" .++@",
" .++@",
" .++@",
" .++@",
" .++@",
" .++@",
" .++@",
" .++@",
" .++@",
" .++@",
" .++@",
" .++@",
" .++@",
" .++@",
" .++@",
" .++@",
" .++@",
" .++@",
" .++@",
" .++@",
" .++@",
" .++@",
" .++@",
" .++@",
" .++@",
" .++@",
" .++@",
" .++@",
" .++@",
" .++@",
" .++@",
" .++@",
" .++@",
" .++@",
" .++@",
" .++@",
" .++@",
" .++@",
" .++@",
" .++@",
" .++@",
" .++@",
" .++@",
" .++@",
" .++@",
" .++@",
" .++@",
" .++@",
" .++@",
" .++@",
" .++@",
" .++@",
" .++@",
" .++@",
" .++@",
" .++@",
" .++@",
" .++@",
" .++@",
" .++@",
" .++@",
" .++@",
" .++@",
" .++@",
" .++@",
" .++@",
" .++@",
" .++@",
" .++@",
" .++@",
" .++@",
" .++@",
" .++@",
" .++@",
" .++@",
" .++@",
" .++@",
" .++@",
" .++@",
" .++@",
" .++@",
" .++@",
" .++@",
" .++@",
" .++@",
" .++@",
" .++@",
" .++@",
" .++@",
" .++@",
" .++@",
" .++@",
" .++@",
" .++@",
" .++@",
" .++@",
" .++@",
" .++@",
" .++@",
" .++@",
" .++@",
" .++@",
" .++@",
" .++@",
" .++@",
" .++@",
" .++@",
" .++@",
" .++@",
" .++@",
" .++@",
" .++@",
" .++@",
" .++@",
" .++@",
" .++@",
" .++@",
" .++@",
" .++@",
" .++@",
" .++@",
" .++@",
" .++@",
" .++@",
" .++@",
" .++@",
" .++@",
" .++@",
" .++@",
" .++@",
" .++@",
" .++@",
" .++@",
" .++@",
" .++@",
" .++@",
" .++@",
" .++@",
" .++@",
" .++@",
" .++@",
" .++@",
" .++@",
" .++@",
" .++@",
" .++@",
" .++@",
" .++@",
" .++@",
" .++@",
" .++@",
" .++@",
" .++@",
" .++@",
" .++@",
" .++@",
" .++@",
" .++@",
" .++@",
" .++@",
" .++@",
" .++@",
" .++@",
" .++@",
" .++@",
" .++@",
" .++@",
" .++@",
" .++@",
" .++@",
" .++@",
" .++@",
" .++@",
" .++@",
" .++@",
" .++@",
" .++@",
" .++@",
" .++@",
" .++@",
" .++@",
" .++@",
" .++@",
" .++@",
" .++@",
" .++@",
" .++@",
" .++@",
" .++@",
" .++@",
" .++@",
" .++@",
" .++@",
" .++@",
" .++@",
" .++@",
" .++@",
" .++@",
" .++@",
" .++@",
" .++@",
" .++@",
" .++@",
" .++@",
" .++@",
" .++@",
" .++@",
" .++@",
" .++@",
" .++@",
" .++@",
" .++@",
" .++@",
" .++@",
" .++@",
" .++@",
" .++@",
" .++@",
" .++@",
" .++@",
" .++@",
" .++@",
" .++@",
" .++@",
" .++@",
" .++@",
" .++@",
" .++@",
" .++@",
" .++@",
" .++@",
" .++@",
" .++@",
" .++@",
" .++@",
" .++@",
" .++@",
" .++@",
" .++@",
" .++@",
" .++@",
" .++@",
" .++@",
" .++@",
" .++@",
" .++@",
" .++@",
" .++@",
" .++@",
" .++@",
" .++@",
" .++@",
" .++@",
" .++@",
" .++@",
" .++@",
" .++@",
" .++@",
" .++@",
" .++@",
" .++@",
" .++@",
" .++@",
" .++@",
" .++@",
" .++@",
" .++@",
" .++@",
" .++@",
" .++@",
" .++@",
" .++@",
" .++@",
" .++@",
" .++@",
" .++@",
" .++@",
" .++@",
" .++@",
" .++@",
" .++@",
" .++@",
" .++@",
" .++@",
" .++@",
" .++@",
" .++@",
" .++@",
" .++@",
" .++@",
" .++@",
" .++@",
" .++@",
" .++@",
" .++@",
" .++@",
" .++@",
" .++@",
" .++@",
" .++@",
" .++@",
" .++@",
" .++@",
" .++@",
" .++@",
" .++@",
" .++@",
" .++@",
" .++@",
" .++@",
" .++@",
" .++@",
" .++@",
" .++@",
" .++@",
" .++@",
" .++@",
" .++@",
" .++@",
" .++@",
" .++@",
" .++@",
" .++@",
" .++@",
" .++@",
" .++@",
" .++@",
" .++@",
" .++@",
" .++@",
" .++@",
" .++@",
" .++@",
" .++@",
" .++@",
" .++@",
" .++@",
" .++@",
" .++@",
" .++@",
" .++@",
" .++@",
" .++@",
" .++@",
" .++@",
" .++@",
" .++@",
" .++@",
" .++@",
" .++@",
" .++@",
" .++@",
" .++@",
" .++@",
" .++@",
" .++@",
" .++@",
" .++@",
" .++@",
" .++@",
" .++@",
" .++@",
" .++@",
" .++@",
" .++@",
" .++@",
" .++@",
" .++@",
" .++@",
" .++@",
" .++@",
" .++@",
" .++@",
" .++@",
" .++@",
" .++@",
" .++@",
" .++@",
" .++@",
" .++@",
" .++@",
" .++@",
" .++@",
" .++@",
" .++@",
" .++@",
" .++@",
" .++@",
" .++@",
" .++@",
" .++@",
" .++@",
" .++@",
" .++@",
" .++@",
" .++@",
" .++@",
" .++@",
" .++@",
" .++@",
" .++@",
" .++@",
" .++@",
" .++@",
" .++@",
" .++@",
" .++@",
" .++@",
" .++@",
" .++@",
" .++@",
" .++@",
" .++@",
" .++@",
" .++@",
" .++@",
" .++@",
" .++@",
" .++@",
" .++@",
" .++@",
" .++@",
" .++@",
" .++@",
" .++@",
" .++@",
" .++@",
" .++@",
" .++@",
" .++@",
" .++@",
" .++@",
" .++@",
" .++@",
" .++@",
" .++@",
" .++@",
" .++@",
" .++@",
" .++@",
" .++@",
" .++@",
" .++@",
" .++@",
" .++@",
" .++@",
" .++@",
" .++@",
" .++@",
" .++@",
" .++@",
" .++@",
" .++@",
" .++@",
" .++@",
" .++@",
" .++@",
" .++@",
" .++@",
" .++@",
" .++@",
" .++@",
" .++@",
" .++@",
" .++@",
" .++@",
" .++@",
" .++@",
" .++@",
" .++@",
" .++@",
" .++@",
" .++@",
" .++@",
" .++@",
" .++@",
" .++@",
" .++@",
" .++@",
" .++@",
" .++@",
" .++@",
" .++@",
" .++@",
" .++@",
" .++@",
" .++@",
" .++@",
" .++@",
" .++@",
" .++@",
" .++@",
" .++@",
" .++@",
" .++@",
" .++@",
" .++@",
" .++@",
" .++@",
" .++@",
" .++@",
" .++@",
" .++@",
" .++@",
" .++@",
" .++@",
" .++@",
" .++@",
" .++@",
" .++@",
" .++@",
" .++@",
" .++@",
" .++@",
" .++@",
" .++@",
" .++@",
" .++@",
" .++@",
" .++@",
" .++@",
" .++@",
" .++@",
" .++@",
" .++@",
" .++@",
" .++@",
" .++@",
" .++@",
" .++@",
" .++@",
" .++@",
" .++@",
" .++@",
" .++@",
" .++@",
" .++@",
" .++@",
" .++@",
" .++@",
" .++@",
" .++@",
" .++@",
" .++@",
" .++@",
" .++@",
" .++@",
" .++@",
" .++@",
" .++@",
" .++@",
" .++@",
" .++@",
" .++@",
" .++@",
" .++@",
" .++@",
" .++@",
" .++@",
" .++@",
" .++@",
" .++@",
" .++@",
" .++@",
" .++@",
" .++@",
" .++@",
" .++@",
" .++@",
" .++@",
" .++@",
" .++@",
" .++@",
" .++@",
" .++@",
" .++@",
" .++@",
" .++@",
" .++@",
" .++@",
" .++@",
" .++@",
" .++@",
" .++@",
" .++@",
" .++@",
" .++@",
" .++@",
" .++@",
" .++@",
" .++@",
" .++@",
" .++@",
" .++@",
" .++@",
" .++@",
" .++@",
" .++@",
" .++@",
" .++@",
" .++@",
" .++@",
" .++@",
" .++@",
" .++@",
" .++@",
" .++@",
" .++@",
" .++@",
" .++@",
" .++@",
" .++@",
" .++@",
" .++@",
" .++@",
" .++@",
" .++@",
" .++@",
" .++@",
" .++@",
" .++@",
" .++@",
" .++@",
" .++@",
" .++@",
" .++@",
" .++@",
" .++@",
" .++@",
" .++@",
" .++@",
" .++@",
" .++@",
" .++@",
" .++@",
" .++@",
" .++@",
" .++@",
" .++@",
" .++@",
" .++@",
" .++@",
" .++@",
" .++@",
" .++@",
" .++@",
" .++@",
" .++@"};
