/* XPM */
static char * maximize_active_xpm[] = {
"24 21 81 1",
" 	c None",
".	c #1B1F26",
"+	c #1D2028",
"@	c #545C73",
"#	c #5A637B",
"$	c #586179",
"%	c #3C4352",
"&	c #1E1F23",
"*	c #19191C",
"=	c #191A1D",
"-	c #3A414F",
";	c #161617",
">	c #0F0F0F",
",	c #101010",
"'	c #3D4352",
")	c #171819",
"!	c #111111",
"~	c #121212",
"{	c #111112",
"]	c #111113",
"^	c #3E4656",
"/	c #17181A",
"(	c #111110",
"_	c #101013",
":	c #DADFE6",
"<	c #414859",
"[	c #0F0F13",
"}	c #434A5C",
"|	c #18181A",
"1	c #0F0F14",
"2	c #0A0A17",
"3	c #0B0B17",
"4	c #444C5E",
"5	c #171718",
"6	c #0F0F0E",
"7	c #111010",
"8	c #0E0D12",
"9	c #D9DEE5",
"0	c #0C0C14",
"a	c #0F0E12",
"b	c #495163",
"c	c #343945",
"d	c #30353E",
"e	c #303540",
"f	c #272B39",
"g	c #F1F6FD",
"h	c #4A5365",
"i	c #414858",
"j	c #3E4553",
"k	c #3E4554",
"l	c #33394A",
"m	c #FFFFFF",
"n	c #3A4151",
"o	c #4B5366",
"p	c #404757",
"q	c #3D4452",
"r	c #3D4453",
"s	c #323849",
"t	c #4B5367",
"u	c #4C5468",
"v	c #424A5B",
"w	c #3F4756",
"x	c #3F4757",
"y	c #373E50",
"z	c #2A3044",
"A	c #25293F",
"B	c #4D5569",
"C	c #444C5D",
"D	c #414958",
"E	c #414959",
"F	c #3B4254",
"G	c #394052",
"H	c #50596D",
"I	c #4A5265",
"J	c #474F61",
"K	c #474F62",
"L	c #4A5165",
"M	c #515A6F",
"N	c #4F586D",
"O	c #0F1114",
"P	c #101215",
".++++++++++++++++++++++.",
"@#$$$$$$$$$$$$$$$$$$$$#@",
"%&*==================*&%",
"-;>,,,,,,,,,,,,,,,,,,>;-",
"')!~~~{]]]]]]]]]]{~~~!)'",
"^/(~~~_::::::::::_~~~(/^",
"</(~~~[::::::::::[~~~(/<",
"}|(~~~1::233332::1~~~(|}",
"4567778990aaaa0998777654",
"bcdeeefggfeeeefggfeeedcb",
"hijkkklmmlnnnnlmmlkkkjih",
"opqrrrsmmmmmmmmmmsrrrqpo",
"tijkkklmmmmmmmmmmlkkkjit",
"uvwxxxyzAAAAAAAAzyxxxwvu",
"BCDEEExFGGGGGGGGFxEEEDCB",
"HIJKKKKKKKKKKKKKKKKKKJIH",
"LMNNNNNNNNNNNNNNNNNNNNML",
"OPPPPPPPPPPPPPPPPPPPPPPO",
"                        ",
"                        ",
"                        "};
