/* XPM */
static char * maximize_toggled_active_xpm[] = {
"24 21 71 1",
" 	c None",
".	c #1B1F26",
"+	c #1D2028",
"@	c #545C73",
"#	c #5A637B",
"$	c #586179",
"%	c #3C4352",
"&	c #1E1F23",
"*	c #19191C",
"=	c #191A1D",
"-	c #3A414F",
";	c #161617",
">	c #0F0F0F",
",	c #101010",
"'	c #3D4352",
")	c #171819",
"!	c #111111",
"~	c #121212",
"{	c #111112",
"]	c #111113",
"^	c #272B39",
"/	c #3E4656",
"(	c #17181A",
"_	c #111110",
":	c #FCFCFC",
"<	c #414859",
"[	c #434A5C",
"}	c #18181A",
"|	c #444C5E",
"1	c #171718",
"2	c #0F0F0E",
"3	c #111010",
"4	c #E9E9E9",
"5	c #495163",
"6	c #343945",
"7	c #30353E",
"8	c #303540",
"9	c #4A5365",
"0	c #414858",
"a	c #3E4553",
"b	c #3E4554",
"c	c #33394A",
"d	c #E2E2E2",
"e	c #4B5366",
"f	c #404757",
"g	c #3D4452",
"h	c #3D4453",
"i	c #323849",
"j	c #DCDCDC",
"k	c #4B5367",
"l	c #D7D7D7",
"m	c #4C5468",
"n	c #424A5B",
"o	c #3F4756",
"p	c #3F4757",
"q	c #373E50",
"r	c #4D5569",
"s	c #444C5D",
"t	c #414958",
"u	c #414959",
"v	c #50596D",
"w	c #4A5265",
"x	c #474F61",
"y	c #474F62",
"z	c #2A3044",
"A	c #25293F",
"B	c #4A5165",
"C	c #515A6F",
"D	c #4F586D",
"E	c #0F1114",
"F	c #101215",
".++++++++++++++++++++++.",
"@#$$$$$$$$$$$$$$$$$$$$#@",
"%&*==================*&%",
"-;>,,,,,,,,,,,,,,,,,,>;-",
"')!~~~{]^^^^^^^^^^~~~!)'",
"/(_~~~~~^::::::::^~~~_(/",
"<(_~~~^^^^^^^^^^:^~~~_(<",
"[}_~~~^::::::::^:^~~~_}[",
"|12333^::::::::^4^33321|",
"567888^::^^^^::^4^888765",
"90abbbc44^bb^44cdcbbba09",
"efghhhi44^hh^44ijihhhgfe",
"k0abbbcdd^^^^ddclcbbba0k",
"mnopppqjjjjjjjjqqqppponm",
"rstuuuqllllllllquuuuutsr",
"vwxyyyzAAAAAAAAzyyyyyxwv",
"BCDDDDDDDDDDDDDDDDDDDDCB",
"EFFFFFFFFFFFFFFFFFFFFFFE",
"                        ",
"                        ",
"                        "};
