/* XPM */
static char * maximize_inactive_xpm[] = {
"24 21 19 1",
" 	c None",
".	c #252525",
"+	c #555555",
"@	c #0E0E0E",
"#	c #0F0F0F",
"$	c #DADFE6",
"%	c #101010",
"&	c #D9DEE5",
"*	c #161616",
"=	c #F1F6FD",
"-	c #242424",
";	c #FFFFFF",
">	c #282828",
",	c #2A2A2A",
"'	c #2B2B2B",
")	c #2F2F2F",
"!	c #323232",
"~	c #101215",
"{	c #0F1114",
"........................",
"++++++++++++++++++++++++",
"+@@@@@@@@@@@@@@@@@@@@@@+",
"+@@@@@@@@@@@@@@@@@@@@@@+",
"+######################+",
"+######$$$$$$$$$$######+",
"+######$$$$$$$$$$######+",
"+%%%%%%$$%%%%%%$$%%%%%%+",
"+%%%%%%&&%%%%%%&&%%%%%%+",
"+******==******==******+",
"+------;;------;;------+",
"+------;;;;;;;;;;------+",
"+>>>>>>;;;;;;;;;;>>>>>>+",
"+,,,,,,,,,,,,,,,,,,,,,,+",
"+''''''''''''''''''''''+",
"+))))))))))))))))))))))+",
"+!!!!!!!!!!!!!!!!!!!!!!+",
"~~~~~~~~~~~~~~~~~~~~~~~{",
"                        ",
"                        ",
"                        "};
