/* XPM */
static char * maximize_toggled_inactive_xpm[] = {
"24 21 16 1",
" 	c None",
".	c #1B1F26",
"+	c #1D2028",
"@	c #4F4F4F",
"#	c #0E0E0E",
"$	c #161616",
"%	c #FCFCFC",
"&	c #E9E9E9",
"*	c #1C1C1C",
"=	c #272B39",
"-	c #2F2F2F",
";	c #E2E2E2",
">	c #DCDCDC",
",	c #D7D7D7",
"'	c #0F1114",
")	c #101215",
".++++++++++++++++++++++.",
"@@@@@@@@@@@@@@@@@@@@@@@@",
"@######################@",
"@######################@",
"@#######$$$$$$$$$$#####@",
"@#######$%%%%%%%%$#####@",
"@#####$$$$$$$$$$%$#####@",
"@#####$%%%%%%%%$%$#####@",
"@#####$%%%%%%%%$&$#####@",
"@*$$$$$%%====%%$&$$$$$$@",
"@******&&=--=&&*;******@",
"@******&&=--=&&*>******@",
"@******;;====;;*,******@",
"@******>>>>>>>>********@",
"@******,,,,,,,,********@",
"@**$$$$$$$$$$$$$*******@",
"@**********************@",
"'))))))))))))))))))))))'",
"                        ",
"                        ",
"                        "};
