/* XPM */
static char * maximize_pressed_xpm[] = {
"24 21 287 2",
"  	c None",
". 	c #1F424B",
"+ 	c #22464F",
"@ 	c #224A53",
"# 	c #234E57",
"$ 	c #24525C",
"% 	c #245560",
"& 	c #255862",
"* 	c #255B64",
"= 	c #265D67",
"- 	c #266069",
"; 	c #26626C",
"> 	c #27646E",
", 	c #27656F",
"' 	c #1F444E",
") 	c #818384",
"! 	c #868685",
"~ 	c #8B8A86",
"{ 	c #908D86",
"] 	c #969389",
"^ 	c #9B968A",
"/ 	c #9E998B",
"( 	c #A19B8B",
"_ 	c #A59E8E",
": 	c #A7A08D",
"< 	c #A9A18D",
"[ 	c #ABA38E",
"} 	c #ADA58F",
"| 	c #AAA28E",
"1 	c #A49E8D",
"2 	c #9F9A8C",
"3 	c #959288",
"4 	c #8B8A85",
"5 	c #848685",
"6 	c #5C7786",
"7 	c #2B6699",
"8 	c #2565A2",
"9 	c #276FAF",
"0 	c #2977BE",
"a 	c #2A7FCB",
"b 	c #2B84D4",
"c 	c #2C89DD",
"d 	c #2D8FE6",
"e 	c #2D93ED",
"f 	c #2E97F4",
"g 	c #2F9AFB",
"h 	c #2F9DFF",
"i 	c #276DAF",
"j 	c #2D6DA4",
"k 	c #5E7B89",
"l 	c #557988",
"m 	c #175694",
"n 	c #0D529C",
"o 	c #0E59AB",
"p 	c #0E61BB",
"q 	c #0E67C8",
"r 	c #0E6CD2",
"s 	c #0D70DB",
"t 	c #0D75E5",
"u 	c #0D78EC",
"v 	c #0D7CF4",
"w 	c #0D7FFA",
"x 	c #0D81FF",
"y 	c #0D59AA",
"z 	c #175C9F",
"A 	c #557D8B",
"B 	c #57808B",
"C 	c #185595",
"D 	c #104F9D",
"E 	c #1157AB",
"F 	c #115EBB",
"G 	c #1063C8",
"H 	c #0F64CC",
"I 	c #0F65D0",
"J 	c #0F69D9",
"K 	c #0F6DDF",
"L 	c #0F70E7",
"M 	c #0F72EC",
"N 	c #0F74F1",
"O 	c #0F68D5",
"P 	c #1068D2",
"Q 	c #1055AB",
"R 	c #185AA0",
"S 	c #58848E",
"T 	c #58878E",
"U 	c #185395",
"V 	c #10499D",
"W 	c #1152AB",
"X 	c #1159BB",
"Y 	c #105EC8",
"Z 	c #0F59C2",
"` 	c #DADFE6",
" .	c #0F5DCB",
"..	c #1062D2",
"+.	c #104FAB",
"@.	c #1858A1",
"#.	c #598A91",
"$.	c #5B8E91",
"%.	c #184F95",
"&.	c #10469D",
"*.	c #114DAB",
"=.	c #1153BB",
"-.	c #1058C8",
";.	c #0E4EB7",
">.	c #0E51BF",
",.	c #105CD2",
"'.	c #104BAB",
").	c #1855A1",
"!.	c #5C9193",
"~.	c #5B9394",
"{.	c #194D95",
"].	c #0F439D",
"^.	c #114BAB",
"/.	c #1151BB",
"(.	c #1056C8",
"_.	c #0D49B1",
":.	c #093790",
"<.	c #093C9B",
"[.	c #093D9E",
"}.	c #093EA1",
"|.	c #093995",
"1.	c #0D4CB9",
"2.	c #1059D2",
"3.	c #0E48AB",
"4.	c #1952A1",
"5.	c #5D9797",
"6.	c #789999",
"7.	c #1B4A94",
"8.	c #0B3E9C",
"9.	c #0E45AB",
"0.	c #0D4BBB",
"a.	c #0D4FC8",
"b.	c #0B44B1",
"c.	c #D9DEE5",
"d.	c #0943B5",
"e.	c #0A52D9",
"f.	c #0A54DF",
"g.	c #0A56E3",
"h.	c #0945BB",
"i.	c #0B46B8",
"j.	c #0D53D2",
"k.	c #0B43AA",
"l.	c #1C4FA0",
"m.	c #7B9C9B",
"n.	c #9D9D9D",
"o.	c #5275A9",
"p.	c #446DB0",
"q.	c #4975BC",
"r.	c #4B7CC8",
"s.	c #4D81D3",
"t.	c #416DB8",
"u.	c #F1F6FD",
"v.	c #4476CA",
"w.	c #5493F6",
"x.	c #5596FB",
"y.	c #5698FF",
"z.	c #4578CF",
"A.	c #4270BF",
"B.	c #4F85DB",
"C.	c #4673BB",
"D.	c #547AB2",
"E.	c #A2A1A0",
"F.	c #A1A1A1",
"G.	c #6889B2",
"H.	c #5D85B8",
"I.	c #628DC3",
"J.	c #6695CE",
"K.	c #699BD7",
"L.	c #5883BC",
"M.	c #FFFFFF",
"N.	c #5D8DCB",
"O.	c #6CA5EA",
"P.	c #6EA8EE",
"Q.	c #6FAAF1",
"R.	c #5E90CF",
"S.	c #5A86C2",
"T.	c #6BA0DF",
"U.	c #608CC2",
"V.	c #6B8FBA",
"W.	c #A5A5A4",
"X.	c #A6A6A6",
"Y.	c #668BB1",
"Z.	c #5A86B8",
"`.	c #608FC2",
" +	c #6497CE",
".+	c #679DD7",
"++	c #5685BC",
"@+	c #5889C1",
"#+	c #69A2DF",
"$+	c #5D8DC2",
"%+	c #6991BA",
"&+	c #AAAAA9",
"*+	c #AAAAAA",
"=+	c #668DB2",
"-+	c #5B8AB8",
";+	c #6093C3",
">+	c #649BCE",
",+	c #67A1D7",
"'+	c #5688BC",
")+	c #588CC2",
"!+	c #69A6DF",
"~+	c #5E91C2",
"{+	c #6A94BA",
"]+	c #AFAFAE",
"^+	c #AEAEAE",
"/+	c #6895B3",
"(+	c #5C93B9",
"_+	c #629BC4",
":+	c #66A4CF",
"<+	c #69ABD8",
"[+	c #5E9BC7",
"}+	c #4A7BA4",
"|+	c #416D96",
"1+	c #427099",
"2+	c #43729C",
"3+	c #44749F",
"4+	c #4475A1",
"5+	c #4B7EA9",
"6+	c #5F9FCD",
"7+	c #6BB1DF",
"8+	c #5F9AC3",
"9+	c #6B9CBB",
"0+	c #B3B3B2",
"a+	c #B2B2B2",
"b+	c #669DB4",
"c+	c #5B9DBA",
"d+	c #60A6C4",
"e+	c #63AFCF",
"f+	c #66B7D9",
"g+	c #65B7DA",
"h+	c #60B1D3",
"i+	c #5EAFD3",
"j+	c #5FB3D8",
"k+	c #61B7DC",
"l+	c #62BAE0",
"m+	c #63BDE3",
"n+	c #62B5DA",
"o+	c #67BDE0",
"p+	c #68BDE0",
"q+	c #5DA5C4",
"r+	c #6AA5BC",
"s+	c #B7B7B6",
"t+	c #B5B5B5",
"u+	c #74AEB8",
"v+	c #6AAFBE",
"w+	c #70BAC8",
"x+	c #74C5D2",
"y+	c #77CEDB",
"z+	c #7AD5E1",
"A+	c #7DDBE8",
"B+	c #7FE2EE",
"C+	c #81E7F3",
"D+	c #83ECF8",
"E+	c #85F1FC",
"F+	c #86F4FF",
"G+	c #6DB9C7",
"H+	c #78B7C0",
"I+	c #BBBABA",
"J+	c #B4B8B8",
"K+	c #BEBDBD",
"L+	c #C6C5C3",
"M+	c #CECCCA",
"N+	c #D6D5D2",
"O+	c #DEDCD9",
"P+	c #E3E2DE",
"Q+	c #E7E6E2",
"R+	c #EBEAE7",
"S+	c #EEEDE9",
"T+	c #F1F0ED",
"U+	c #F3F2F0",
"V+	c #F6F5F2",
"W+	c #F3F2EF",
"X+	c #DFDCD9",
"Y+	c #D7D5D3",
"Z+	c #CECDCA",
"`+	c #B9BEBD",
" @	c #102D4B",
".@	c #14314F",
"+@	c #143352",
"@@	c #153656",
"#@	c #153759",
"$@	c #15385B",
"%@	c #14385C",
"&@	c #14385D",
"*@	c #13395F",
"=@	c #12395F",
"-@	c #102F4E",
". + @ # $ % & * = - ; > , > ; - = * & % $ # @ ' ",
") ! ~ { ] ^ / ( _ : < [ } [ | : 1 ( 2 ^ 3 { 4 5 ",
"6 7 8 9 0 a b c d e f g h g f e d c b a 0 i j k ",
"l m n o p q r s t u v w x w v u t s r q p y z A ",
"B C D E F G H I J K L M N M L K J O P G F Q R S ",
"T U V W X Y Z ` ` ` ` ` ` ` ` ` `  ...Y X +.@.#.",
"$.%.&.*.=.-.;.` ` ` ` ` ` ` ` ` ` >.,.-.=.'.).!.",
"~.{.].^./.(._.` ` :.<.[.}.[.|.` ` 1.2.(./.3.4.5.",
"6.7.8.9.0.a.b.c.c.d.e.f.g.f.h.c.c.i.j.a.0.k.l.m.",
"n.o.p.q.r.s.t.u.u.v.w.x.y.x.z.u.u.A.B.s.r.C.D.E.",
"F.G.H.I.J.K.L.M.M.N.O.P.Q.P.R.M.M.S.T.K.J.U.V.W.",
"X.Y.Z.`. +.+++M.M.M.M.M.M.M.M.M.M.@+#+.+ +$+%+&+",
"*+=+-+;+>+,+'+M.M.M.M.M.M.M.M.M.M.)+!+,+>+~+{+]+",
"^+/+(+_+:+<+[+}+|+1+2+3+4+3+2+1+5+6+7+<+:+8+9+0+",
"a+b+c+d+e+f+g+h+i+j+k+l+m+l+k+j+n+o+p+f+e+q+r+s+",
"t+u+v+w+x+y+z+A+B+C+D+E+F+E+D+C+B+A+z+y+x+G+H+I+",
"J+K+L+M+N+O+P+Q+R+S+T+U+V+W+T+S+R+Q+P+X+Y+Z+L+`+",
" @.@+@@@#@$@%@&@*@*@*@=@=@=@*@*@*@&@%@$@#@@@+@-@",
"                                                ",
"                                                ",
"                                                "};
