/* XPM */
static char * maximize_toggled_pressed_xpm[] = {
"24 21 222 2",
"  	c None",
". 	c #1F424B",
"+ 	c #22464F",
"@ 	c #224A53",
"# 	c #234E57",
"$ 	c #24525C",
"% 	c #245560",
"& 	c #255862",
"* 	c #255B64",
"= 	c #265D67",
"- 	c #266069",
"; 	c #26626C",
"> 	c #27646E",
", 	c #27656F",
"' 	c #1F444E",
") 	c #818384",
"! 	c #868685",
"~ 	c #8B8A86",
"{ 	c #908D86",
"] 	c #969389",
"^ 	c #9B968A",
"/ 	c #9E998B",
"( 	c #A19B8B",
"_ 	c #A59E8E",
": 	c #A7A08D",
"< 	c #A9A18D",
"[ 	c #ABA38E",
"} 	c #ADA58F",
"| 	c #AAA28E",
"1 	c #A49E8D",
"2 	c #9F9A8C",
"3 	c #959288",
"4 	c #8B8A85",
"5 	c #848685",
"6 	c #5C7786",
"7 	c #2B6699",
"8 	c #2565A2",
"9 	c #276FAF",
"0 	c #2977BE",
"a 	c #2A7FCB",
"b 	c #2B84D4",
"c 	c #2C89DD",
"d 	c #2D8FE6",
"e 	c #2D93ED",
"f 	c #2E97F4",
"g 	c #2F9AFB",
"h 	c #2F9DFF",
"i 	c #276DAF",
"j 	c #2D6DA4",
"k 	c #5E7B89",
"l 	c #557988",
"m 	c #175694",
"n 	c #0D529C",
"o 	c #0E59AB",
"p 	c #0E61BB",
"q 	c #0E67C8",
"r 	c #0E6CD2",
"s 	c #0D59AA",
"t 	c #175C9F",
"u 	c #557D8B",
"v 	c #57808B",
"w 	c #185595",
"x 	c #104F9D",
"y 	c #1157AB",
"z 	c #115EBB",
"A 	c #1063C8",
"B 	c #1068D2",
"C 	c #272B39",
"D 	c #1055AB",
"E 	c #185AA0",
"F 	c #58848E",
"G 	c #58878E",
"H 	c #185395",
"I 	c #10499D",
"J 	c #1152AB",
"K 	c #1159BB",
"L 	c #105EC8",
"M 	c #1062D2",
"N 	c #FCFCFC",
"O 	c #104FAB",
"P 	c #1858A1",
"Q 	c #598A91",
"R 	c #5B8E91",
"S 	c #184F95",
"T 	c #10469D",
"U 	c #114DAB",
"V 	c #1153BB",
"W 	c #1058C8",
"X 	c #105CD2",
"Y 	c #104BAB",
"Z 	c #1855A1",
"` 	c #5C9193",
" .	c #5B9394",
"..	c #194D95",
"+.	c #0F439D",
"@.	c #114BAB",
"#.	c #1151BB",
"$.	c #1056C8",
"%.	c #1059D2",
"&.	c #0E48AB",
"*.	c #1952A1",
"=.	c #5D9797",
"-.	c #789999",
";.	c #1B4A94",
">.	c #0B3E9C",
",.	c #0E45AB",
"'.	c #0D4BBB",
").	c #0D4FC8",
"!.	c #E9E9E9",
"~.	c #0D53D2",
"{.	c #0B43AA",
"].	c #1C4FA0",
"^.	c #7B9C9B",
"/.	c #9D9D9D",
"(.	c #5275A9",
"_.	c #446DB0",
":.	c #4975BC",
"<.	c #4B7CC8",
"[.	c #4D81D3",
"}.	c #4F85DB",
"|.	c #4673BB",
"1.	c #547AB2",
"2.	c #A2A1A0",
"3.	c #A1A1A1",
"4.	c #6889B2",
"5.	c #5D85B8",
"6.	c #628DC3",
"7.	c #6695CE",
"8.	c #699BD7",
"9.	c #33394A",
"0.	c #6BA0DF",
"a.	c #E2E2E2",
"b.	c #608CC2",
"c.	c #6B8FBA",
"d.	c #A5A5A4",
"e.	c #A6A6A6",
"f.	c #668BB1",
"g.	c #5A86B8",
"h.	c #608FC2",
"i.	c #6497CE",
"j.	c #679DD7",
"k.	c #323849",
"l.	c #69A2DF",
"m.	c #DCDCDC",
"n.	c #5D8DC2",
"o.	c #6991BA",
"p.	c #AAAAA9",
"q.	c #AAAAAA",
"r.	c #668DB2",
"s.	c #5B8AB8",
"t.	c #6093C3",
"u.	c #649BCE",
"v.	c #67A1D7",
"w.	c #D7D7D7",
"x.	c #69A6DF",
"y.	c #5E91C2",
"z.	c #6A94BA",
"A.	c #AFAFAE",
"B.	c #AEAEAE",
"C.	c #6895B3",
"D.	c #5C93B9",
"E.	c #629BC4",
"F.	c #66A4CF",
"G.	c #69ABD8",
"H.	c #373E50",
"I.	c #6BB1DF",
"J.	c #5F9AC3",
"K.	c #6B9CBB",
"L.	c #B3B3B2",
"M.	c #B2B2B2",
"N.	c #669DB4",
"O.	c #5B9DBA",
"P.	c #60A6C4",
"Q.	c #63AFCF",
"R.	c #66B7D9",
"S.	c #68BDE0",
"T.	c #5DA5C4",
"U.	c #6AA5BC",
"V.	c #B7B7B6",
"W.	c #B5B5B5",
"X.	c #74AEB8",
"Y.	c #6AAFBE",
"Z.	c #70BAC8",
"`.	c #74C5D2",
" +	c #77CEDB",
".+	c #2A3044",
"++	c #25293F",
"@+	c #7FE2EE",
"#+	c #7DDBE8",
"$+	c #7AD5E1",
"%+	c #6DB9C7",
"&+	c #78B7C0",
"*+	c #BBBABA",
"=+	c #B4B8B8",
"-+	c #BEBDBD",
";+	c #C6C5C3",
">+	c #CECCCA",
",+	c #D6D5D2",
"'+	c #DEDCD9",
")+	c #E3E2DE",
"!+	c #E7E6E2",
"~+	c #EBEAE7",
"{+	c #EEEDE9",
"]+	c #F1F0ED",
"^+	c #F3F2F0",
"/+	c #F6F5F2",
"(+	c #F3F2EF",
"_+	c #DFDCD9",
":+	c #D7D5D3",
"<+	c #CECDCA",
"[+	c #B9BEBD",
"}+	c #102D4B",
"|+	c #14314F",
"1+	c #143352",
"2+	c #153656",
"3+	c #153759",
"4+	c #15385B",
"5+	c #14385C",
"6+	c #14385D",
"7+	c #13395F",
"8+	c #12395F",
"9+	c #102F4E",
". + @ # $ % & * = - ; > , > ; - = * & % $ # @ ' ",
") ! ~ { ] ^ / ( _ : < [ } [ | : 1 ( 2 ^ 3 { 4 5 ",
"6 7 8 9 0 a b c d e f g h g f e d c b a 0 i j k ",
"l m n o p q r q r q r q r q r q r q r q p s t u ",
"v w x y z A B A C C C C C C C C C C B A z D E F ",
"G H I J K L M L C N N N N N N N N C M L K O P Q ",
"R S T U V W C C C C C C C C C C N C X W V Y Z ` ",
" ...+.@.#.$.C N N N N N N N N C N C %.$.#.&.*.=.",
"-.;.>.,.'.).C N N N N N N N N C !.C ~.).'.{.].^.",
"/.(._.:.<.[.C N N C C C C N N C !.C }.[.<.|.1.2.",
"3.4.5.6.7.8.9.!.!.C 0.8.C !.!.9.a.9.0.8.7.b.c.d.",
"e.f.g.h.i.j.k.!.!.C l.j.C !.!.k.m.k.l.j.i.n.o.p.",
"q.r.s.t.u.v.9.a.a.C C C C a.a.9.w.9.x.v.u.y.z.A.",
"B.C.D.E.F.G.H.m.m.m.m.m.m.m.m.H.H.H.I.G.F.J.K.L.",
"M.N.O.P.Q.R.H.w.w.w.w.w.w.w.w.H.S.R.S.R.Q.T.U.V.",
"W.X.Y.Z.`. +.+++++++++++++++++.+@+#+$+ +`.%+&+*+",
"=+-+;+>+,+'+)+!+~+{+]+^+/+(+]+{+~+!+)+_+:+<+;+[+",
"}+|+1+2+3+4+5+6+7+7+7+8+8+8+7+7+7+6+5+4+3+2+1+9+",
"                                                ",
"                                                ",
"                                                "};
