/* XPM */
static char * menu_inactive_xpm[] = {
"15 26 13 1",
" 	c None",
".	c #101010",
"+	c #111111",
"@	c #121212",
"#	c #171717",
"$	c #1E1E1E",
"%	c #222222",
"&	c #252525",
"*	c #262626",
"=	c #2A2A2A",
"-	c #2D2D2D",
";	c #323232",
">	c #3A3A3A",
"               ",
"               ",
"               ",
"               ",
"               ",
"...............",
"...............",
"...............",
"+++++++++++++++",
"@@@@@@@@@@@@@@@",
"@@@@@@@@@@@@@@@",
"###############",
"$$$$$$$$$$$$$$$",
"$$$$$$$$$$$$$$$",
"%%%%%%%%%%%%%%%",
"&&&&&&&&&&&&&&&",
"***************",
"===============",
"---------------",
";;;;;;;;;;;;;;;",
">>>>>>>>>>>>>>>",
"               ",
"               ",
"               ",
"               ",
"               "};
