/* XPM */
static char * menu_active_xpm[] = {
"15 26 18 1",
" 	c None",
".	c #141517",
"+	c #151618",
"@	c #161618",
"#	c #171718",
"$	c #1C1D1E",
"%	c #1E2024",
"&	c #272B33",
"*	c #262A32",
"=	c #262A34",
"-	c #272B35",
";	c #292E38",
">	c #2C313D",
",	c #303642",
"'	c #323745",
")	c #333946",
"!	c #39404D",
"~	c #3F4455",
"               ",
"               ",
"               ",
"               ",
"               ",
"..++++++++++++.",
"@@@@@@@@@@@@@@@",
"@@@@@@@@@@@@@@@",
"###############",
"$$$$$$$$$$$$$$$",
"%%%%%%%%%%%%%%%",
"&&&&&&&&&&&&&&*",
"===============",
"---------------",
";;;;;;;;;;;;;;;",
">>>>>>>>>>>>>>>",
",,,,,,,,,,,,,,,",
"'''''''''''''''",
")))))))))))))))",
"!!!!!!!!!!!!!!!",
"~~~~~~~~~~~~~~~",
"               ",
"               ",
"               ",
"               ",
"               "};
