/* XPM */
static char * right_active_xpm[] = {
"5 800 4 1",
" 	c #313441",
".	c #3C4355",
"+	c #4E5058",
"@	c #130F0D",
" ..+@",
" ..+@",
" ..+@",
" ..+@",
" ..+@",
" ..+@",
" ..+@",
" ..+@",
" ..+@",
" ..+@",
" ..+@",
" ..+@",
" ..+@",
" ..+@",
" ..+@",
" ..+@",
" ..+@",
" ..+@",
" ..+@",
" ..+@",
" ..+@",
" ..+@",
" ..+@",
" ..+@",
" ..+@",
" ..+@",
" ..+@",
" ..+@",
" ..+@",
" ..+@",
" ..+@",
" ..+@",
" ..+@",
" ..+@",
" ..+@",
" ..+@",
" ..+@",
" ..+@",
" ..+@",
" ..+@",
" ..+@",
" ..+@",
" ..+@",
" ..+@",
" ..+@",
" ..+@",
" ..+@",
" ..+@",
" ..+@",
" ..+@",
" ..+@",
" ..+@",
" ..+@",
" ..+@",
" ..+@",
" ..+@",
" ..+@",
" ..+@",
" ..+@",
" ..+@",
" ..+@",
" ..+@",
" ..+@",
" ..+@",
" ..+@",
" ..+@",
" ..+@",
" ..+@",
" ..+@",
" ..+@",
" ..+@",
" ..+@",
" ..+@",
" ..+@",
" ..+@",
" ..+@",
" ..+@",
" ..+@",
" ..+@",
" ..+@",
" ..+@",
" ..+@",
" ..+@",
" ..+@",
" ..+@",
" ..+@",
" ..+@",
" ..+@",
" ..+@",
" ..+@",
" ..+@",
" ..+@",
" ..+@",
" ..+@",
" ..+@",
" ..+@",
" ..+@",
" ..+@",
" ..+@",
" ..+@",
" ..+@",
" ..+@",
" ..+@",
" ..+@",
" ..+@",
" ..+@",
" ..+@",
" ..+@",
" ..+@",
" ..+@",
" ..+@",
" ..+@",
" ..+@",
" ..+@",
" ..+@",
" ..+@",
" ..+@",
" ..+@",
" ..+@",
" ..+@",
" ..+@",
" ..+@",
" ..+@",
" ..+@",
" ..+@",
" ..+@",
" ..+@",
" ..+@",
" ..+@",
" ..+@",
" ..+@",
" ..+@",
" ..+@",
" ..+@",
" ..+@",
" ..+@",
" ..+@",
" ..+@",
" ..+@",
" ..+@",
" ..+@",
" ..+@",
" ..+@",
" ..+@",
" ..+@",
" ..+@",
" ..+@",
" ..+@",
" ..+@",
" ..+@",
" ..+@",
" ..+@",
" ..+@",
" ..+@",
" ..+@",
" ..+@",
" ..+@",
" ..+@",
" ..+@",
" ..+@",
" ..+@",
" ..+@",
" ..+@",
" ..+@",
" ..+@",
" ..+@",
" ..+@",
" ..+@",
" ..+@",
" ..+@",
" ..+@",
" ..+@",
" ..+@",
" ..+@",
" ..+@",
" ..+@",
" ..+@",
" ..+@",
" ..+@",
" ..+@",
" ..+@",
" ..+@",
" ..+@",
" ..+@",
" ..+@",
" ..+@",
" ..+@",
" ..+@",
" ..+@",
" ..+@",
" ..+@",
" ..+@",
" ..+@",
" ..+@",
" ..+@",
" ..+@",
" ..+@",
" ..+@",
" ..+@",
" ..+@",
" ..+@",
" ..+@",
" ..+@",
" ..+@",
" ..+@",
" ..+@",
" ..+@",
" ..+@",
" ..+@",
" ..+@",
" ..+@",
" ..+@",
" ..+@",
" ..+@",
" ..+@",
" ..+@",
" ..+@",
" ..+@",
" ..+@",
" ..+@",
" ..+@",
" ..+@",
" ..+@",
" ..+@",
" ..+@",
" ..+@",
" ..+@",
" ..+@",
" ..+@",
" ..+@",
" ..+@",
" ..+@",
" ..+@",
" ..+@",
" ..+@",
" ..+@",
" ..+@",
" ..+@",
" ..+@",
" ..+@",
" ..+@",
" ..+@",
" ..+@",
" ..+@",
" ..+@",
" ..+@",
" ..+@",
" ..+@",
" ..+@",
" ..+@",
" ..+@",
" ..+@",
" ..+@",
" ..+@",
" ..+@",
" ..+@",
" ..+@",
" ..+@",
" ..+@",
" ..+@",
" ..+@",
" ..+@",
" ..+@",
" ..+@",
" ..+@",
" ..+@",
" ..+@",
" ..+@",
" ..+@",
" ..+@",
" ..+@",
" ..+@",
" ..+@",
" ..+@",
" ..+@",
" ..+@",
" ..+@",
" ..+@",
" ..+@",
" ..+@",
" ..+@",
" ..+@",
" ..+@",
" ..+@",
" ..+@",
" ..+@",
" ..+@",
" ..+@",
" ..+@",
" ..+@",
" ..+@",
" ..+@",
" ..+@",
" ..+@",
" ..+@",
" ..+@",
" ..+@",
" ..+@",
" ..+@",
" ..+@",
" ..+@",
" ..+@",
" ..+@",
" ..+@",
" ..+@",
" ..+@",
" ..+@",
" ..+@",
" ..+@",
" ..+@",
" ..+@",
" ..+@",
" ..+@",
" ..+@",
" ..+@",
" ..+@",
" ..+@",
" ..+@",
" ..+@",
" ..+@",
" ..+@",
" ..+@",
" ..+@",
" ..+@",
" ..+@",
" ..+@",
" ..+@",
" ..+@",
" ..+@",
" ..+@",
" ..+@",
" ..+@",
" ..+@",
" ..+@",
" ..+@",
" ..+@",
" ..+@",
" ..+@",
" ..+@",
" ..+@",
" ..+@",
" ..+@",
" ..+@",
" ..+@",
" ..+@",
" ..+@",
" ..+@",
" ..+@",
" ..+@",
" ..+@",
" ..+@",
" ..+@",
" ..+@",
" ..+@",
" ..+@",
" ..+@",
" ..+@",
" ..+@",
" ..+@",
" ..+@",
" ..+@",
" ..+@",
" ..+@",
" ..+@",
" ..+@",
" ..+@",
" ..+@",
" ..+@",
" ..+@",
" ..+@",
" ..+@",
" ..+@",
" ..+@",
" ..+@",
" ..+@",
" ..+@",
" ..+@",
" ..+@",
" ..+@",
" ..+@",
" ..+@",
" ..+@",
" ..+@",
" ..+@",
" ..+@",
" ..+@",
" ..+@",
" ..+@",
" ..+@",
" ..+@",
" ..+@",
" ..+@",
" ..+@",
" ..+@",
" ..+@",
" ..+@",
" ..+@",
" ..+@",
" ..+@",
" ..+@",
" ..+@",
" ..+@",
" ..+@",
" ..+@",
" ..+@",
" ..+@",
" ..+@",
" ..+@",
" ..+@",
" ..+@",
" ..+@",
" ..+@",
" ..+@",
" ..+@",
" ..+@",
" ..+@",
" ..+@",
" ..+@",
" ..+@",
" ..+@",
" ..+@",
" ..+@",
" ..+@",
" ..+@",
" ..+@",
" ..+@",
" ..+@",
" ..+@",
" ..+@",
" ..+@",
" ..+@",
" ..+@",
" ..+@",
" ..+@",
" ..+@",
" ..+@",
" ..+@",
" ..+@",
" ..+@",
" ..+@",
" ..+@",
" ..+@",
" ..+@",
" ..+@",
" ..+@",
" ..+@",
" ..+@",
" ..+@",
" ..+@",
" ..+@",
" ..+@",
" ..+@",
" ..+@",
" ..+@",
" ..+@",
" ..+@",
" ..+@",
" ..+@",
" ..+@",
" ..+@",
" ..+@",
" ..+@",
" ..+@",
" ..+@",
" ..+@",
" ..+@",
" ..+@",
" ..+@",
" ..+@",
" ..+@",
" ..+@",
" ..+@",
" ..+@",
" ..+@",
" ..+@",
" ..+@",
" ..+@",
" ..+@",
" ..+@",
" ..+@",
" ..+@",
" ..+@",
" ..+@",
" ..+@",
" ..+@",
" ..+@",
" ..+@",
" ..+@",
" ..+@",
" ..+@",
" ..+@",
" ..+@",
" ..+@",
" ..+@",
" ..+@",
" ..+@",
" ..+@",
" ..+@",
" ..+@",
" ..+@",
" ..+@",
" ..+@",
" ..+@",
" ..+@",
" ..+@",
" ..+@",
" ..+@",
" ..+@",
" ..+@",
" ..+@",
" ..+@",
" ..+@",
" ..+@",
" ..+@",
" ..+@",
" ..+@",
" ..+@",
" ..+@",
" ..+@",
" ..+@",
" ..+@",
" ..+@",
" ..+@",
" ..+@",
" ..+@",
" ..+@",
" ..+@",
" ..+@",
" ..+@",
" ..+@",
" ..+@",
" ..+@",
" ..+@",
" ..+@",
" ..+@",
" ..+@",
" ..+@",
" ..+@",
" ..+@",
" ..+@",
" ..+@",
" ..+@",
" ..+@",
" ..+@",
" ..+@",
" ..+@",
" ..+@",
" ..+@",
" ..+@",
" ..+@",
" ..+@",
" ..+@",
" ..+@",
" ..+@",
" ..+@",
" ..+@",
" ..+@",
" ..+@",
" ..+@",
" ..+@",
" ..+@",
" ..+@",
" ..+@",
" ..+@",
" ..+@",
" ..+@",
" ..+@",
" ..+@",
" ..+@",
" ..+@",
" ..+@",
" ..+@",
" ..+@",
" ..+@",
" ..+@",
" ..+@",
" ..+@",
" ..+@",
" ..+@",
" ..+@",
" ..+@",
" ..+@",
" ..+@",
" ..+@",
" ..+@",
" ..+@",
" ..+@",
" ..+@",
" ..+@",
" ..+@",
" ..+@",
" ..+@",
" ..+@",
" ..+@",
" ..+@",
" ..+@",
" ..+@",
" ..+@",
" ..+@",
" ..+@",
" ..+@",
" ..+@",
" ..+@",
" ..+@",
" ..+@",
" ..+@",
" ..+@",
" ..+@",
" ..+@",
" ..+@",
" ..+@",
" ..+@",
" ..+@",
" ..+@",
" ..+@",
" ..+@",
" ..+@",
" ..+@",
" ..+@",
" ..+@",
" ..+@",
" ..+@",
" ..+@",
" ..+@",
" ..+@",
" ..+@",
" ..+@",
" ..+@",
" ..+@",
" ..+@",
" ..+@",
" ..+@",
" ..+@",
" ..+@",
" ..+@",
" ..+@",
" ..+@",
" ..+@",
" ..+@",
" ..+@",
" ..+@",
" ..+@",
" ..+@",
" ..+@",
" ..+@",
" ..+@",
" ..+@",
" ..+@",
" ..+@",
" ..+@",
" ..+@",
" ..+@",
" ..+@",
" ..+@",
" ..+@",
" ..+@",
" ..+@",
" ..+@",
" ..+@",
" ..+@",
" ..+@",
" ..+@",
" ..+@",
" ..+@",
" ..+@",
" ..+@",
" ..+@",
" ..+@",
" ..+@",
" ..+@",
" ..+@",
" ..+@",
" ..+@",
" ..+@",
" ..+@",
" ..+@",
" ..+@",
" ..+@",
" ..+@",
" ..+@",
" ..+@",
" ..+@",
" ..+@",
" ..+@",
" ..+@",
" ..+@",
" ..+@",
" ..+@",
" ..+@",
" ..+@",
" ..+@",
" ..+@",
" ..+@",
" ..+@",
" ..+@",
" ..+@",
" ..+@",
" ..+@",
" ..+@",
" ..+@",
" ..+@",
" ..+@",
" ..+@",
" ..+@",
" ..+@",
" ..+@",
" ..+@",
" ..+@",
" ..+@",
" ..+@",
" ..+@",
" ..+@",
" ..+@",
" ..+@",
" ..+@",
" ..+@",
" ..+@",
" ..+@",
" ..+@",
" ..+@",
" ..+@",
" ..+@",
" ..+@",
" ..+@",
" ..+@",
" ..+@",
" ..+@",
" ..+@",
" ..+@",
" ..+@",
" ..+@",
" ..+@",
" ..+@",
" ..+@",
" ..+@",
" ..+@",
" ..+@",
" ..+@",
" ..+@",
" ..+@",
" ..+@",
" ..+@",
" ..+@",
" ..+@",
" ..+@",
" ..+@",
" ..+@",
" ..+@",
" ..+@",
" ..+@",
" ..+@",
" ..+@",
" ..+@",
" ..+@",
" ..+@",
" ..+@",
" ..+@",
" ..+@",
" ..+@",
" ..+@",
" ..+@",
" ..+@",
" ..+@",
" ..+@",
" ..+@",
" ..+@",
" ..+@",
" ..+@",
" ..+@",
" ..+@",
" ..+@",
" ..+@",
" ..+@",
" ..+@",
" ..+@",
" ..+@",
" ..+@",
" ..+@",
" ..+@",
" ..+@",
" ..+@",
" ..+@",
" ..+@",
" ..+@",
" ..+@",
" ..+@",
" ..+@",
" ..+@",
" ..+@",
" ..+@",
" ..+@",
" ..+@",
" ..+@",
" ..+@",
" ..+@",
" ..+@",
" ..+@",
" ..+@",
" ..+@",
" ..+@"};
