/* XPM */
static char * title_1_active_xpm[] = {
"3 23 27 1",
" 	c #1E1B1B",
".	c #1E1C1C",
"+	c #4E5058",
"@	c #181A1A",
"#	c #181B1A",
"$	c #09100A",
"%	c #090F09",
"&	c #0C0A0C",
"*	c #0D0A0C",
"=	c #0C0B0C",
"-	c #0D0B0C",
";	c #0C0C0C",
">	c #0D0C0C",
",	c #0E0C0D",
"'	c #0E0C0E",
")	c #0D0E10",
"!	c #101215",
"~	c #171A20",
"{	c #21242B",
"]	c #262B35",
"^	c #292F3B",
"/	c #2D3340",
"(	c #303745",
"_	c #343B49",
":	c #373E4F",
"<	c #3C4355",
"[	c #313441",
" ..",
"+++",
"@@@",
"#@@",
"$%%",
"&**",
"=--",
";;;",
">>>",
",,,",
"'''",
")))",
"!!!",
"~~~",
"{{{",
"]]]",
"^^^",
"///",
"(((",
"___",
":::",
"<<<",
"[[["};
