/* XPM */
static char * title_5_inactive_xpm[] = {
"3 23 21 1",
" 	c None",
".	c #292929",
"+	c #4A4A4A",
"@	c #0F0F0F",
"#	c #101010",
"$	c #111111",
"%	c #121212",
"&	c #161616",
"*	c #1D1D1D",
"=	c #1E1E1E",
"-	c #222222",
";	c #252525",
">	c #272727",
",	c #2B2B2B",
"'	c #2F2F2F",
")	c #363636",
"!	c #3B3B3B",
"~	c #3C3C3C",
"{	c #3D3D3D",
"]	c #3E3E3E",
"^	c #181818",
"...",
"+++",
"@@@",
"@@@",
"###",
"###",
"$$$",
"%%%",
"%%%",
"&&&",
"***",
"===",
"---",
";;;",
">>>",
",,,",
"'''",
")))",
"!!!",
"~~~",
"{{{",
"]]]",
"^^^"};
