/* XPM */
static char * top_right_active_xpm[] = {
"5 23 51 1",
" 	c None",
".	c #1D2229",
"+	c #50586E",
"@	c #0E1013",
"#	c #0D0F13",
"$	c #2F3340",
"%	c #131416",
"&	c #111214",
"*	c #101113",
"=	c #3F4556",
"-	c #151618",
";	c #282C36",
">	c #2E333D",
",	c #161618",
"'	c #202227",
")	c #282D38",
"!	c #202127",
"~	c #130F0D",
"{	c #19191A",
"]	c #222429",
"^	c #1D1E20",
"/	c #25282E",
"(	c #22242A",
"_	c #21242A",
":	c #292D36",
"<	c #272B33",
"[	c #262A33",
"}	c #2D323D",
"|	c #262A34",
"1	c #2E333F",
"2	c #282D37",
"3	c #2F3541",
"4	c #2B303B",
"5	c #323744",
"6	c #2E3440",
"7	c #353B49",
"8	c #313744",
"9	c #383E4D",
"0	c #333846",
"a	c #393F4F",
"b	c #373E4B",
"c	c #3D4453",
"d	c #3E4353",
"e	c #42495A",
"f	c #41485B",
"g	c #464D61",
"h	c #454E63",
"i	c #4A5368",
"j	c #4F596D",
"k	c #525B70",
"l	c #4B5468",
"..   ",
"++.  ",
"@#$$ ",
"%&*= ",
"---;>",
",,,')",
",,,!~",
"{{{]~",
"^^^/~",
"((_:~",
"<[[}~",
"|||1~",
"2223~",
"4445~",
"6667~",
"8889~",
"000a~",
"bbbc~",
"ddde~",
"fffg~",
"hhhi~",
"jjjk~",
"lll+~"};
