/* XPM */
static char * top_left_active_xpm[] = {
"5 23 52 1",
" 	c None",
".	c #1D2229",
"+	c #50586E",
"@	c #373D4C",
"#	c #2F3341",
"$	c #0E0F13",
"%	c #0D0F13",
"&	c #3E4556",
"*	c #111315",
"=	c #121315",
"-	c #0F1012",
";	c #2E333D",
">	c #282C36",
",	c #151618",
"'	c #282D38",
")	c #202227",
"!	c #161618",
"~	c #130F0D",
"{	c #202127",
"]	c #222429",
"^	c #19191A",
"/	c #25282E",
"(	c #1D1E20",
"_	c #2A2E36",
":	c #22242A",
"<	c #21242A",
"[	c #2E333E",
"}	c #272B33",
"|	c #262A33",
"1	c #2E333F",
"2	c #262A34",
"3	c #2F3541",
"4	c #282D37",
"5	c #323744",
"6	c #2B303B",
"7	c #353B49",
"8	c #2E3440",
"9	c #383E4D",
"0	c #313744",
"a	c #393F4F",
"b	c #333846",
"c	c #3D4453",
"d	c #373E4B",
"e	c #42495A",
"f	c #3E4353",
"g	c #464D61",
"h	c #41485B",
"i	c #4A5368",
"j	c #454E63",
"k	c #525B70",
"l	c #4F596D",
"m	c #4B5468",
"   ..",
"  .++",
" @#$%",
" &*=-",
";>,,,",
"')!!!",
"~{!!!",
"~]^^^",
"~/(((",
"~_:<<",
"~[}||",
"~1222",
"~3444",
"~5666",
"~7888",
"~9000",
"~abbb",
"~cddd",
"~efff",
"~ghhh",
"~ijjj",
"~klll",
"~+mmm"};
