/* XPM */
static char * top_right_inactive_xpm[] = {
"5 23 39 1",
" 	c None",
".	c #272727",
"+	c #4F4F4F",
"@	c #4B4B4B",
"#	c #282828",
"$	c #0F0F0F",
"%	c #171717",
"&	c #464646",
"*	c #2C2C2C",
"=	c #383838",
"-	c #101010",
";	c #393939",
">	c #2A2A2A",
",	c #1E1E1E",
"'	c #141414",
")	c #202020",
"!	c #111111",
"~	c #222222",
"{	c #121212",
"]	c #232323",
"^	c #242424",
"/	c #1A1A1A",
"(	c #292929",
"_	c #2D2D2D",
":	c #303030",
"<	c #262626",
"[	c #313131",
"}	c #343434",
"|	c #363636",
"1	c #3A3A3A",
"2	c #3F3F3F",
"3	c #3B3B3B",
"4	c #414141",
"5	c #3C3C3C",
"6	c #424242",
"7	c #3D3D3D",
"8	c #434343",
"9	c #3E3E3E",
"0	c #444444",
"..   ",
"+@#  ",
"$%&* ",
"$$$= ",
"---;>",
"---,'",
"---)'",
"!!!~'",
"{{{]'",
"'''^'",
"///('",
",,,*'",
")))_'",
"^^^:'",
"<<<['",
"(((}'",
"***|'",
"[[[1'",
"===2'",
"3334'",
"5556'",
"7778'",
"9990'"};
