/* XPM */
static char * top_left_inactive_xpm[] = {
"5 23 39 1",
" 	c None",
".	c #272727",
"+	c #282828",
"@	c #4B4B4B",
"#	c #4F4F4F",
"$	c #2C2C2C",
"%	c #464646",
"&	c #171717",
"*	c #0F0F0F",
"=	c #383838",
"-	c #2A2A2A",
";	c #393939",
">	c #101010",
",	c #141414",
"'	c #1E1E1E",
")	c #202020",
"!	c #222222",
"~	c #111111",
"{	c #232323",
"]	c #121212",
"^	c #242424",
"/	c #292929",
"(	c #1A1A1A",
"_	c #2D2D2D",
":	c #303030",
"<	c #313131",
"[	c #262626",
"}	c #343434",
"|	c #363636",
"1	c #3A3A3A",
"2	c #3F3F3F",
"3	c #414141",
"4	c #3B3B3B",
"5	c #424242",
"6	c #3C3C3C",
"7	c #434343",
"8	c #3D3D3D",
"9	c #444444",
"0	c #3E3E3E",
"   ..",
"  +@#",
" $%&*",
" =***",
"-;>>>",
",'>>>",
",)>>>",
",!~~~",
",{]]]",
",^,,,",
",/(((",
",$'''",
",_)))",
",:^^^",
",<[[[",
",}///",
",|$$$",
",1<<<",
",2===",
",3444",
",5666",
",7888",
",9000"};
