/* XPM */
static char * close_inactive_xpm[] = {
"17 20 25 1",
" 	c None",
".	c #212121",
"+	c #3C3C3C",
"@	c #323232",
"#	c #363636",
"$	c #373737",
"%	c #3A3A3A",
"&	c #353535",
"*	c #313131",
"=	c #616161",
"-	c #5B5B5B",
";	c #393939",
">	c #333333",
",	c #343434",
"'	c #5F5F5F",
")	c #5D5D5D",
"!	c #4B4B4B",
"~	c #474747",
"{	c #5E5E5E",
"]	c #5C5C5C",
"^	c #303030",
"/	c #4A4A4A",
"(	c #2F2F2F",
"_	c #2E2E2E",
":	c #2D2D2D",
" ................",
" .++++++++++++++.",
"@.+#$$$$$$$$$$$+.",
"@.%&###########%.",
"*.%&&&=-&&-=&&&%.",
"@.;>,,')!!)',,,;.",
"*.;>>>>~){~>>>>;.",
"*.#@@@@~]]~@@@@#.",
"^.&*@@')//)'@@@&.",
"*.,^^^=-^^-=^^^,.",
"*.@(^^^^^^^^^^^@.",
"*.*____________*.",
"*.(____________(.",
"*.::::::::::::::.",
"^................",
"^_::::::::::::::_",
">>>>>>>>>>>>>>>>>",
">>>>>>>>>>>>>>>>>",
">>>>>>>>>>>>>>>>>",
">>>>>>>>>>>>>>>>>"};
