/* XPM */
static char * close_pressed_xpm[] = {
"17 20 25 1",
" 	c None",
".	c #1A1A1A",
"+	c #272727",
"@	c #333333",
"#	c #1D1D1D",
"$	c #2A2A2A",
"%	c #1C1C1C",
"&	c #2C2C2C",
"*	c #2B2B2B",
"=	c #616161",
"-	c #5A5A5A",
";	c #282828",
">	c #292929",
",	c #5F5F5F",
"'	c #5C5C5C",
")	c #464646",
"!	c #434343",
"~	c #5D5D5D",
"{	c #424242",
"]	c #5B5B5B",
"^	c #454545",
"/	c #1E1E1E",
"(	c #262626",
"_	c #252525",
":	c #232323",
" ................",
" .++++++++++++++.",
"@#$$$$$$$$$$$$$$#",
"@%$&&&&&&&&&&&&$%",
"@%$*&&&&&&&&&&*$%",
"@#$*&&=-&&-=&&*$#",
"@#;>$$,'))',$$>;#",
"@#;>$$$!'~!$$$>;#",
"@#;>$>>{]'{>>>>;#",
"@#+>>>,'^^',>>>+#",
"@/+;;;=-;;-=;;;+/",
"@/+;;;;;;;;;;;;+/",
"@/(++++++++++++(/",
"@/(+;;;;;;;;;;+(/",
"@_::::::::::::::_",
"@@@@@@@@@@@@@@@@@",
"@@@@@@@@@@@@@@@@@",
"@@@@@@@@@@@@@@@@@",
"@@@@@@@@@@@@@@@@@",
"@@@@@@@@@@@@@@@@@"};
