/* XPM */
static char * hide_inactive_xpm[] = {
"16 20 17 1",
" 	c None",
".	c #212121",
"+	c #3C3C3C",
"@	c #373737",
"#	c #363636",
"$	c #323232",
"%	c #3A3A3A",
"&	c #353535",
"*	c #313131",
"=	c #393939",
"-	c #343434",
";	c #333333",
">	c #616161",
",	c #303030",
"'	c #2F2F2F",
")	c #2E2E2E",
"!	c #2D2D2D",
"............... ",
"++++++++++++++. ",
"+@@@@@@@@@@@#+.$",
"%###########&%.$",
"%&&&&&&&&&&&&%.*",
"=-----------;=.$",
"=;;;>>>>>>;;;=.*",
"#$$$>>>>>>$$$#.*",
"&$$$$$$$$$$$*&.,",
"-,,,,,,,,,,,,-.*",
"$,,,,,,,,,,,'$.*",
"*))))))))))))*.*",
"'))))))))))))'.*",
"!!!!!!!!!!!!!!.*",
"...............,",
"!!!!!!!!!!!!!!),",
";;;;;;;;;;;;;;;;",
";;;;;;;;;;;;;;;;",
";;;;;;;;;;;;;;;;",
";;;;;;;;;;;;;;;;"};
