/* XPM */
static char * title_3_active_xpm[] = {
"10 20 6 1",
" 	c None",
".	c #212121",
"+	c #3D3D3D",
"@	c #333333",
"#	c #333434",
"$	c #0E7AE6",
"..........",
"++++++++++",
"@@@@@@@@@@",
"@@@@@@@@@@",
"@@@@@@@@@@",
"@@@@@@@@@@",
"@@@@@@@@@@",
"@@@@@@@@@@",
"@@@@@@@@@@",
"@@@@@@@@@@",
"@@@@@@@@@@",
"@@@@@@@@@@",
"@@@@@@@@@@",
"@@@@@@@@@@",
"@@@@@@@@@@",
"@@@@@@@@@@",
"@@@@@@@@@@",
"@@@@###@@@",
"$$$$$$$$$$",
"@@@@@@@@@@"};
