/* XPM */
static char * title_5_inactive_xpm[] = {
"1 20 4 1",
" 	c None",
".	c #212121",
"+	c #3D3D3D",
"@	c #333333",
".",
"+",
"@",
"@",
"@",
"@",
"@",
"@",
"@",
"@",
"@",
"@",
"@",
"@",
"@",
"@",
"@",
"@",
"@",
"@"};
